<svg width="40" height="40" viewBox="0 0 40 40" fill="none" xmlns="http://www.w3.org/2000/svg">
<path d="M39.4016 24.8381C36.7301 35.5525 25.877 42.0731 15.1601 39.4012C4.44772 36.7301 -2.07358 25.8775 0.599038 15.1639C3.26931 4.44838 14.1225 -2.07268 24.836 0.598468C35.5521 3.26961 42.073 14.1234 39.4013 24.8383L39.4015 24.8381H39.4016Z" fill="#F3BA2F"/>
<path fill-rule="evenodd" clip-rule="evenodd" d="M20.0023 12.6933L14.8228 17.8722L14.8229 17.872L11.8093 14.8587L20.0023 6.66666L28.1978 14.8611L25.1842 17.8744L20.0023 12.6933ZM9.6812 16.9862L6.66742 20L9.68099 23.0128L12.6948 19.9994L9.6812 16.9862ZM14.8228 22.1281L20.0023 27.3067L25.1841 22.1256L28.1993 25.1374L28.1978 25.139L20.0023 33.3333L11.8093 25.1413L11.8051 25.1371L14.8228 22.1281ZM30.3235 16.9879L27.3097 20.0013L30.3234 23.0145L33.3371 20.0011L30.3235 16.9879Z" fill="white"/>
<path d="M23.0588 19.9984H23.0601L20.0022 16.9407L17.742 19.2L17.4824 19.4597L16.9469 19.9953L16.9426 19.9994L16.9469 20.0038L20.0022 23.0593L23.0603 20.0016L23.0618 19.9999L23.059 19.9984" fill="white"/>
</svg>
