<svg width="24" height="24" viewBox="0 0 24 24" fill="none" xmlns="http://www.w3.org/2000/svg">
<path d="M11.5875 4.01251L7.95 6.30001C7.4625 6.60001 6.9375 6.75001 6.375 6.75001H4.575C3.075 6.75001 1.875 7.95001 1.875 9.41251V14.7C1.875 16.3125 3.1875 17.625 4.8 17.625H6.9C7.4625 17.625 7.9875 17.775 8.475 18.075L11.625 19.9875C11.85 20.1375 12.1125 20.2125 12.4125 20.2125C13.2375 20.2125 13.9125 19.5375 13.9125 18.7125V5.28751C13.9125 5.02501 13.8375 4.72501 13.6875 4.50001C13.2 3.78751 12.3 3.56251 11.5875 4.01251ZM12.375 18.7125L9.225 16.8C8.5125 16.3875 7.725 16.125 6.9 16.125H4.8C4.0125 16.125 3.375 15.4875 3.375 14.7V9.41251C3.375 8.77501 3.9 8.25001 4.5375 8.25001H6.375C7.2375 8.25001 8.025 8.02501 8.775 7.57501L12.4125 5.28751V18.7125H12.375ZM21.375 11.25H16.875C16.4625 11.25 16.125 11.5875 16.125 12C16.125 12.4125 16.4625 12.75 16.875 12.75H21.375C21.7875 12.75 22.125 12.4125 22.125 12C22.125 11.5875 21.7875 11.25 21.375 11.25ZM21.075 17.625L17.175 15.375C16.8 15.15 16.35 15.3 16.1625 15.6375C15.9375 16.0125 16.0875 16.4625 16.425 16.65L20.325 18.9C20.7 19.125 21.15 18.975 21.3375 18.6375C21.5625 18.3 21.45 17.85 21.075 17.625ZM17.1375 8.62501L21.0375 6.37501C21.4125 6.15001 21.525 5.70001 21.3 5.36251C21.075 4.98751 20.625 4.87501 20.2875 5.10001L16.3875 7.35001C16.0125 7.57501 15.9 8.02501 16.125 8.36251C16.35 8.70001 16.8 8.85001 17.1375 8.62501Z" fill="#4A576A"/>
</svg>
