<svg width="32" height="32" viewBox="0 0 32 32" fill="none" xmlns="http://www.w3.org/2000/svg">
<path fill-rule="evenodd" clip-rule="evenodd" d="M11.5349 0C7.70386 0 4.73174 0.759369 2.74556 2.74556C0.759369 4.73174 0 7.70386 0 11.5349V20.4651C0 24.2961 0.759369 27.2683 2.74556 29.2544C4.73174 31.2406 7.70386 32 11.5349 32H20.4651C24.2961 32 27.2683 31.2406 29.2544 29.2544C31.2406 27.2683 32 24.2961 32 20.4651V11.5349C32 7.70386 31.2406 4.73174 29.2544 2.74556C27.2683 0.759369 24.2961 0 20.4651 0H11.5349ZM2.23256 11.5349C2.23256 7.92405 2.96156 5.68686 4.32421 4.32421C5.68686 2.96156 7.92405 2.23256 11.5349 2.23256H20.4651C24.0759 2.23256 26.3131 2.96156 27.6758 4.32421C29.0384 5.68686 29.7674 7.92405 29.7674 11.5349V20.4651C29.7674 24.0759 29.0384 26.3131 27.6758 27.6758C26.3131 29.0384 24.0759 29.7674 20.4651 29.7674H11.5349C7.92405 29.7674 5.68686 29.0384 4.32421 27.6758C2.96156 26.3131 2.23256 24.0759 2.23256 20.4651V11.5349ZM8.18605 9.67442C8.18605 8.65371 9.02581 7.81395 10.0465 7.81395H21.9535C22.9742 7.81395 23.814 8.65371 23.814 9.67442V10.8677C23.2552 10.5807 22.6226 10.4186 21.9535 10.4186H10.0465C9.3774 10.4186 8.74481 10.5807 8.18605 10.8677V9.67442ZM26.0465 18.9767V14.5116V9.67442C26.0465 7.42071 24.2072 5.5814 21.9535 5.5814H10.0465C7.7928 5.5814 5.95349 7.42071 5.95349 9.67442V14.5116V18.9767V19.7209V20.4651H5.5814C4.96489 20.4651 4.46512 20.9649 4.46512 21.5814C4.46512 22.1979 4.96489 22.6977 5.5814 22.6977H7.06977C7.07046 22.6977 7.07116 22.6977 7.07185 22.6977H11.2924C11.7966 24.8304 13.7137 26.4186 16 26.4186C18.2863 26.4186 20.2034 24.8304 20.7076 22.6977H24.9281C24.9288 22.6977 24.9295 22.6977 24.9302 22.6977H26.4186C27.0351 22.6977 27.5349 22.1979 27.5349 21.5814C27.5349 20.9649 27.0351 20.4651 26.4186 20.4651H26.0465V19.7209V18.9767ZM23.814 16.077V14.5116C23.814 13.4909 22.9742 12.6512 21.9535 12.6512H10.0465C9.02581 12.6512 8.18605 13.4909 8.18605 14.5116V16.077C8.74481 15.79 9.3774 15.6279 10.0465 15.6279H21.9535C22.6226 15.6279 23.2552 15.79 23.814 16.077ZM23.814 19.7209C23.814 18.7002 22.9742 17.8605 21.9535 17.8605H10.0465C9.02581 17.8605 8.18605 18.7002 8.18605 19.7209V20.4651H12.2791C12.8956 20.4651 13.3953 20.9649 13.3953 21.5814C13.3953 23.0188 14.5626 24.186 16 24.186C17.4375 24.186 18.6047 23.0188 18.6047 21.5814C18.6047 20.9649 19.1044 20.4651 19.7209 20.4651H23.814V19.7209Z" fill="url(#paint0_linear_25_284)"/>
<defs>
<linearGradient id="paint0_linear_25_284" x1="16" y1="0" x2="16" y2="32" gradientUnits="userSpaceOnUse">
<stop stop-color="#6CB6FF"/>
<stop offset="1" stop-color="#04DAFE"/>
</linearGradient>
</defs>
</svg>
