<svg width="30" height="30" viewBox="0 0 30 30" fill="none" xmlns="http://www.w3.org/2000/svg">
<path fill-rule="evenodd" clip-rule="evenodd" d="M1.69412 1.5341C2.45035 0.862195 3.50192 0.666656 4.63999 0.666656H10.0267C11.1647 0.666656 12.2163 0.862195 12.9725 1.5341C13.7589 2.23281 14 3.23795 14 4.30666V10.36C14 11.4279 13.7592 12.4346 12.9711 13.1322C12.2134 13.8027 11.161 13.9934 10.0237 13.9867H4.63999C3.50549 13.9867 2.45294 13.7958 1.69558 13.1255C0.906774 12.4274 0.666656 11.42 0.666656 10.3467V4.30666C0.666656 3.23795 0.907739 2.2328 1.69412 1.5341ZM3.02253 3.02921C2.85224 3.18051 2.66666 3.49536 2.66666 4.30666V10.3467C2.66666 11.1667 2.85321 11.4792 3.02107 11.6278C3.22038 11.8042 3.65449 11.9867 4.63999 11.9867H10.0329C11.0143 11.9928 11.4473 11.8099 11.6456 11.6345C11.8141 11.4854 12 11.172 12 10.36V4.30666C12 3.49536 11.8144 3.18051 11.6441 3.02921C11.4437 2.85112 11.0086 2.66666 10.0267 2.66666H4.63999C3.65806 2.66666 3.22297 2.85112 3.02253 3.02921ZM16.9845 1.65122C17.7415 0.894242 18.8132 0.666656 19.9733 0.666656H25.36C26.5201 0.666656 27.5918 0.894242 28.3488 1.65122C29.1057 2.40819 29.3333 3.47983 29.3333 4.63999V10.0267C29.3333 11.1868 29.1057 12.2585 28.3488 13.0154C27.5918 13.7724 26.5201 14 25.36 14H19.9733C18.8132 14 17.7415 13.7724 16.9845 13.0154C16.2276 12.2585 16 11.1868 16 10.0267V4.63999C16 3.47983 16.2276 2.40819 16.9845 1.65122ZM18.3988 3.06543C18.1991 3.26512 18 3.68015 18 4.63999V10.0267C18 10.9865 18.1991 11.4015 18.3988 11.6012C18.5985 11.8009 19.0135 12 19.9733 12H25.36C26.3198 12 26.7349 11.8009 26.9345 11.6012C27.1342 11.4015 27.3333 10.9865 27.3333 10.0267V4.63999C27.3333 3.68015 27.1342 3.26512 26.9345 3.06543C26.7349 2.86574 26.3198 2.66666 25.36 2.66666H19.9733C19.0135 2.66666 18.5985 2.86574 18.3988 3.06543ZM4.63999 16C3.47983 16 2.40819 16.2276 1.65122 16.9845C0.894242 17.7415 0.666656 18.8132 0.666656 19.9733V25.36C0.666656 26.5201 0.894242 27.5918 1.65122 28.3488C2.40819 29.1057 3.47983 29.3333 4.63999 29.3333H10.0267C11.1868 29.3333 12.2585 29.1057 13.0154 28.3488C13.7724 27.5918 14 26.5201 14 25.36V19.9733C14 18.8132 13.7724 17.7415 13.0154 16.9845C12.2585 16.2276 11.1868 16 10.0267 16H4.63999ZM2.66666 19.9733C2.66666 19.0135 2.86574 18.5985 3.06543 18.3988C3.26512 18.1991 3.68015 18 4.63999 18H10.0267C10.9865 18 11.4015 18.1991 11.6012 18.3988C11.8009 18.5985 12 19.0135 12 19.9733V25.36C12 26.3198 11.8009 26.7349 11.6012 26.9345C11.4015 27.1342 10.9865 27.3333 10.0267 27.3333H4.63999C3.68015 27.3333 3.26512 27.1342 3.06543 26.9345C2.86574 26.7349 2.66666 26.3198 2.66666 25.36V19.9733ZM17.3333 22.3333C17.3333 21.781 17.781 21.3333 18.3333 21.3333H21.3333V18.3333C21.3333 17.781 21.781 17.3333 22.3333 17.3333C22.8856 17.3333 23.3333 17.781 23.3333 18.3333V21.3333H26.3333C26.8856 21.3333 27.3333 21.781 27.3333 22.3333C27.3333 22.8856 26.8856 23.3333 26.3333 23.3333H23.3333V26.3333C23.3333 26.8856 22.8856 27.3333 22.3333 27.3333C21.781 27.3333 21.3333 26.8856 21.3333 26.3333V23.3333H18.3333C17.781 23.3333 17.3333 22.8856 17.3333 22.3333Z" fill="url(#paint0_linear_25_258)"/>
<defs>
<linearGradient id="paint0_linear_25_258" x1="15" y1="0.666656" x2="15" y2="29.3333" gradientUnits="userSpaceOnUse">
<stop stop-color="#6CB6FF"/>
<stop offset="1" stop-color="#04DAFE"/>
</linearGradient>
</defs>
</svg>
