<svg width="32" height="32" viewBox="0 0 32 32" fill="none" xmlns="http://www.w3.org/2000/svg">
<path fill-rule="evenodd" clip-rule="evenodd" d="M2.23256 16C2.23256 8.39645 8.39645 2.23256 16 2.23256C23.6035 2.23256 29.7674 8.39645 29.7674 16C29.7674 23.6035 23.6035 29.7674 16 29.7674C8.39645 29.7674 2.23256 23.6035 2.23256 16ZM16 0C7.16344 0 0 7.16344 0 16C0 24.8366 7.16344 32 16 32C24.8366 32 32 24.8366 32 16C32 7.16344 24.8366 0 16 0ZM16 6C16.5523 6 17 6.49746 17 7.11111V8H17.6377C20.1026 8 22 10.0859 22 12.5545C22 13.167 21.5068 13.6636 20.8984 13.6636C20.29 13.6636 19.7968 13.167 19.7968 12.5545C19.7968 11.208 18.786 10.2181 17.6377 10.2181H17V15.1757L19.3276 15.9898C19.9873 16.2252 20.7027 16.578 21.2311 17.2566C21.7697 17.9484 22 18.8284 22 19.8891C22 22.11 20.2754 24 18.049 24H17V24.8889C17 25.5025 16.5523 26 16 26C15.4477 26 15 25.5025 15 24.8889V24H14.3623C11.8974 24 10 21.9141 10 19.4455C10 18.833 10.4932 18.3364 11.1016 18.3364C11.71 18.3364 12.2032 18.833 12.2032 19.4455C12.2032 20.792 13.214 21.7819 14.3623 21.7819H15V16.8243L12.6724 16.0102C12.0127 15.7748 11.2973 15.422 10.7689 14.7434C10.2303 14.0516 10 13.1716 10 12.1109C10 9.89 11.7246 8 13.951 8H15V7.11111C15 6.49746 15.4477 6 16 6ZM13.951 10.2181H15V14.4762L13.4053 13.9184C12.9067 13.7402 12.6534 13.5684 12.5028 13.3749C12.3621 13.1942 12.2032 12.8542 12.2032 12.1109C12.2032 11.0194 13.0342 10.2181 13.951 10.2181ZM17 21.7819V17.5238L18.5947 18.0816C19.0933 18.2598 19.3466 18.4317 19.4972 18.6251C19.6379 18.8058 19.7968 19.1458 19.7968 19.8891C19.7968 20.9806 18.9658 21.7819 18.049 21.7819H17Z" fill="url(#paint0_linear_25_277)"/>
<defs>
<linearGradient id="paint0_linear_25_277" x1="16" y1="0" x2="16" y2="32" gradientUnits="userSpaceOnUse">
<stop stop-color="#6CB6FF"/>
<stop offset="1" stop-color="#04DAFE"/>
</linearGradient>
</defs>
</svg>
