<svg width="36" height="36" viewBox="0 0 36 36" fill="none" xmlns="http://www.w3.org/2000/svg">
<path d="M18 34.125C9.105 34.125 1.875 26.895 1.875 18C1.875 9.105 9.105 1.875 18 1.875C26.895 1.875 34.125 9.105 34.125 18C34.125 26.895 26.895 34.125 18 34.125ZM18 4.125C10.35 4.125 4.125 10.35 4.125 18C4.125 25.65 10.35 31.875 18 31.875C25.65 31.875 31.875 25.65 31.875 18C31.875 10.35 25.65 4.125 18 4.125Z" fill="url(#paint0_linear_332_1861)"/>
<path d="M18 20.625C17.385 20.625 16.875 20.115 16.875 19.5V12C16.875 11.385 17.385 10.875 18 10.875C18.615 10.875 19.125 11.385 19.125 12V19.5C19.125 20.115 18.615 20.625 18 20.625Z" fill="url(#paint1_linear_332_1861)"/>
<path d="M18 25.5C17.805 25.5 17.61 25.455 17.43 25.38C17.25 25.305 17.085 25.2 16.935 25.065C16.8 24.915 16.695 24.765 16.62 24.57C16.545 24.39 16.5 24.195 16.5 24C16.5 23.805 16.545 23.61 16.62 23.43C16.695 23.25 16.8 23.085 16.935 22.935C17.085 22.8 17.25 22.695 17.43 22.62C17.79 22.47 18.21 22.47 18.57 22.62C18.75 22.695 18.915 22.8 19.065 22.935C19.2 23.085 19.305 23.25 19.38 23.43C19.455 23.61 19.5 23.805 19.5 24C19.5 24.195 19.455 24.39 19.38 24.57C19.305 24.765 19.2 24.915 19.065 25.065C18.915 25.2 18.75 25.305 18.57 25.38C18.39 25.455 18.195 25.5 18 25.5Z" fill="url(#paint2_linear_332_1861)"/>
<defs>
<linearGradient id="paint0_linear_332_1861" x1="4.78279" y1="6.54276" x2="35.1072" y2="20.0361" gradientUnits="userSpaceOnUse">
<stop stop-color="#6CB6FF"/>
<stop offset="1" stop-color="#04DAFE"/>
</linearGradient>
<linearGradient id="paint1_linear_332_1861" x1="17.0779" y1="12.2862" x2="19.586" y2="12.5437" gradientUnits="userSpaceOnUse">
<stop stop-color="#6CB6FF"/>
<stop offset="1" stop-color="#04DAFE"/>
</linearGradient>
<linearGradient id="paint2_linear_332_1861" x1="16.7705" y1="22.9406" x2="19.589" y2="24.1979" gradientUnits="userSpaceOnUse">
<stop stop-color="#6CB6FF"/>
<stop offset="1" stop-color="#04DAFE"/>
</linearGradient>
</defs>
</svg>
