<svg width="36" height="36" viewBox="0 0 36 36" fill="none" xmlns="http://www.w3.org/2000/svg">
<path d="M20.1 26.13H16.335C13.875 26.13 11.88 24.06 11.88 21.51C11.88 20.895 12.39 20.385 13.005 20.385C13.62 20.385 14.13 20.895 14.13 21.51C14.13 22.815 15.12 23.88 16.335 23.88H20.1C21.075 23.88 21.885 23.01 21.885 21.96C21.885 20.655 21.42 20.4 20.655 20.13L14.61 18C13.44 17.595 11.865 16.725 11.865 14.04C11.865 11.73 13.68 9.87 15.9 9.87H19.665C22.125 9.87 24.12 11.94 24.12 14.49C24.12 15.105 23.61 15.615 22.995 15.615C22.38 15.615 21.87 15.105 21.87 14.49C21.87 13.185 20.88 12.12 19.665 12.12H15.9C14.925 12.12 14.115 12.99 14.115 14.04C14.115 15.345 14.58 15.6 15.345 15.87L21.39 18C22.56 18.405 24.135 19.275 24.135 21.96C24.12 24.255 22.32 26.13 20.1 26.13Z" fill="url(#paint0_linear_332_1875)"/>
<path d="M18 28.125C17.385 28.125 16.875 27.615 16.875 27V9C16.875 8.385 17.385 7.875 18 7.875C18.615 7.875 19.125 8.385 19.125 9V27C19.125 27.615 18.615 28.125 18 28.125Z" fill="url(#paint1_linear_332_1875)"/>
<path d="M22.5 34.125H13.5C5.355 34.125 1.875 30.645 1.875 22.5V13.5C1.875 5.355 5.355 1.875 13.5 1.875H22.5C30.645 1.875 34.125 5.355 34.125 13.5V22.5C34.125 30.645 30.645 34.125 22.5 34.125ZM13.5 4.125C6.585 4.125 4.125 6.585 4.125 13.5V22.5C4.125 29.415 6.585 31.875 13.5 31.875H22.5C29.415 31.875 31.875 29.415 31.875 22.5V13.5C31.875 6.585 29.415 4.125 22.5 4.125H13.5Z" fill="url(#paint2_linear_332_1875)"/>
<defs>
<linearGradient id="paint0_linear_332_1875" x1="12.9713" y1="12.2234" x2="25.3926" y2="16.3942" gradientUnits="userSpaceOnUse">
<stop stop-color="#6CB6FF"/>
<stop offset="1" stop-color="#04DAFE"/>
</linearGradient>
<linearGradient id="paint1_linear_332_1875" x1="17.0779" y1="10.8059" x2="19.6062" y2="10.9309" gradientUnits="userSpaceOnUse">
<stop stop-color="#6CB6FF"/>
<stop offset="1" stop-color="#04DAFE"/>
</linearGradient>
<linearGradient id="paint2_linear_332_1875" x1="4.78279" y1="6.54276" x2="35.1072" y2="20.0361" gradientUnits="userSpaceOnUse">
<stop stop-color="#6CB6FF"/>
<stop offset="1" stop-color="#04DAFE"/>
</linearGradient>
</defs>
</svg>
