<svg width="36" height="36" viewBox="0 0 36 36" fill="none" xmlns="http://www.w3.org/2000/svg">
<path d="M19.5 14.625H10.5C9.885 14.625 9.375 14.115 9.375 13.5C9.375 12.885 9.885 12.375 10.5 12.375H19.5C20.115 12.375 20.625 12.885 20.625 13.5C20.625 14.115 20.115 14.625 19.5 14.625Z" fill="url(#paint0_linear_332_1882)"/>
<path d="M28.5598 22.1999C26.2948 22.1999 24.3749 20.5199 24.1949 18.3599C24.0749 17.1149 24.5249 15.8999 25.4249 15.0149C26.1749 14.2349 27.2398 13.7999 28.3648 13.7999H31.4999C32.9849 13.8449 34.1249 15.0149 34.1249 16.4549V19.545C34.1249 20.985 32.9849 22.1549 31.5449 22.1999H28.5598ZM31.4548 16.0499H28.3798C27.8548 16.0499 27.3749 16.2449 27.0299 16.6049C26.5949 17.0249 26.3849 17.5949 26.4449 18.1649C26.5199 19.1549 27.4798 19.9499 28.5598 19.9499H31.4999C31.6949 19.9499 31.8749 19.77 31.8749 19.545V16.4549C31.8749 16.2299 31.6948 16.0649 31.4548 16.0499Z" fill="url(#paint1_linear_332_1882)"/>
<path d="M24 31.875H10.5C5.34 31.875 1.875 28.41 1.875 23.25V12.75C1.875 8.13 4.72496 4.78501 9.14996 4.23001C9.55496 4.17001 10.02 4.125 10.5 4.125H24C24.36 4.125 24.825 4.14 25.305 4.215C29.73 4.725 32.625 8.085 32.625 12.75V14.925C32.625 15.54 32.115 16.05 31.5 16.05H28.38C27.855 16.05 27.375 16.245 27.03 16.605L27.015 16.62C26.595 17.025 26.4 17.58 26.445 18.15C26.52 19.14 27.48 19.935 28.56 19.935H31.5C32.115 19.935 32.625 20.445 32.625 21.06V23.235C32.625 28.41 29.16 31.875 24 31.875ZM10.5 6.375C10.14 6.375 9.79498 6.40498 9.44998 6.44998C6.14998 6.86998 4.125 9.27 4.125 12.75V23.25C4.125 27.12 6.63 29.625 10.5 29.625H24C27.87 29.625 30.375 27.12 30.375 23.25V22.2H28.56C26.295 22.2 24.375 20.52 24.195 18.36C24.075 17.13 24.525 15.9 25.425 15.03C26.205 14.235 27.255 13.8 28.38 13.8H30.375V12.75C30.375 9.24 28.32 6.82497 24.99 6.43497C24.63 6.37497 24.315 6.375 24 6.375H10.5Z" fill="url(#paint2_linear_332_1882)"/>
<defs>
<linearGradient id="paint0_linear_332_1882" x1="10.3893" y1="12.7007" x2="12.5193" y2="17.4394" gradientUnits="userSpaceOnUse">
<stop stop-color="#6CB6FF"/>
<stop offset="1" stop-color="#04DAFE"/>
</linearGradient>
<linearGradient id="paint1_linear_332_1882" x1="25.0728" y1="15.0157" x2="33.8439" y2="19.6383" gradientUnits="userSpaceOnUse">
<stop stop-color="#6CB6FF"/>
<stop offset="1" stop-color="#04DAFE"/>
</linearGradient>
<linearGradient id="paint2_linear_332_1882" x1="4.64754" y1="8.14145" x2="32.512" y2="21.8805" gradientUnits="userSpaceOnUse">
<stop stop-color="#6CB6FF"/>
<stop offset="1" stop-color="#04DAFE"/>
</linearGradient>
</defs>
</svg>
