<svg width="30" height="30" viewBox="0 0 30 30" fill="none" xmlns="http://www.w3.org/2000/svg">
<path fill-rule="evenodd" clip-rule="evenodd" d="M11 0.666656C7.56803 0.666656 4.90551 1.34692 3.12622 3.12622C1.34692 4.90551 0.666656 7.56803 0.666656 11V19C0.666656 22.432 1.34692 25.0945 3.12622 26.8738C4.90551 28.6531 7.56803 29.3333 11 29.3333H19C22.432 29.3333 25.0945 28.6531 26.8738 26.8738C28.6531 25.0945 29.3333 22.432 29.3333 19V11C29.3333 7.56803 28.6531 4.90551 26.8738 3.12622C25.0945 1.34692 22.432 0.666656 19 0.666656H11ZM2.66666 11C2.66666 7.76529 3.31972 5.76114 4.54043 4.54043C5.76114 3.31972 7.76529 2.66666 11 2.66666H19C22.2347 2.66666 24.2388 3.31972 25.4595 4.54043C26.6803 5.76114 27.3333 7.76529 27.3333 11V19C27.3333 22.2347 26.6803 24.2388 25.4595 25.4595C24.2388 26.6803 22.2347 27.3333 19 27.3333H11C7.76529 27.3333 5.76114 26.6803 4.54043 25.4595C3.31972 24.2388 2.66666 22.2347 2.66666 19V11ZM21.7179 10.9706C21.8084 11.0639 21.8772 11.1704 21.9241 11.2839C21.973 11.4018 22 11.5311 22 11.6667V14.3333C22 14.8856 21.5523 15.3333 21 15.3333C20.4477 15.3333 20 14.8856 20 14.3333V14.0809L16.1071 17.9738C15.8953 18.1856 15.5996 18.2913 15.3015 18.2618C15.0033 18.2323 14.7341 18.0706 14.5679 17.8214L13.1112 15.6363L9.7071 19.0404C9.31657 19.431 8.68341 19.431 8.29288 19.0404C7.90236 18.6499 7.90236 18.0167 8.29288 17.6262L12.5595 13.3595C12.7714 13.1477 13.0671 13.042 13.3652 13.0715C13.6633 13.101 13.9325 13.2627 14.0987 13.512L15.5554 15.697L18.5858 12.6667H18.3333C17.781 12.6667 17.3333 12.2189 17.3333 11.6667C17.3333 11.1144 17.781 10.6667 18.3333 10.6667H20.9993H21C21.2511 10.6667 21.5023 10.7607 21.6961 10.9487C21.7035 10.9559 21.7108 10.9632 21.7179 10.9706Z" fill="url(#paint0_linear_25_270)"/>
<defs>
<linearGradient id="paint0_linear_25_270" x1="15" y1="0.666656" x2="15" y2="29.3333" gradientUnits="userSpaceOnUse">
<stop stop-color="#6CB6FF"/>
<stop offset="1" stop-color="#04DAFE"/>
</linearGradient>
</defs>
</svg>
