<svg width="26" height="26" viewBox="0 0 26 26" fill="none" xmlns="http://www.w3.org/2000/svg">
<path d="M24.1674 20.1544C24.2297 20.3592 24.2742 20.6174 24.3099 20.9201C24.3455 21.2139 24.3633 21.5256 24.3633 21.8282C24.3633 22.131 24.3455 22.4248 24.292 22.6919C24.2476 22.959 24.1763 23.1638 24.0873 23.2973C24.0249 23.3864 23.8558 23.4754 23.562 23.5644C23.2681 23.6535 22.9031 23.7336 22.4758 23.8048C22.0395 23.8849 21.5587 23.9473 21.0334 24.0185C20.5082 24.0897 19.9829 24.1432 19.4487 24.1877C18.9145 24.2322 18.4069 24.2678 17.9084 24.3034C17.4187 24.3301 16.9824 24.3479 16.6085 24.3479C16.2345 24.3479 15.8072 24.3301 15.3175 24.3034C14.8367 24.2677 14.3292 24.2322 13.8039 24.1877C13.2786 24.1432 12.7622 24.0897 12.2547 24.0452C11.7472 23.9918 11.2753 23.9294 10.848 23.8671C10.4207 23.7959 10.0645 23.7335 9.7707 23.6623C9.47689 23.5911 9.29884 23.5288 9.2187 23.4665C9.10297 23.3596 9.00506 23.048 8.92489 22.5227C8.85364 21.9974 8.87149 21.3207 8.99611 20.5016C9.06736 20.0208 9.26323 19.6647 9.56591 19.4243C9.86869 19.1839 10.2337 18.9881 10.6522 18.8367C11.0706 18.6853 11.498 18.5607 11.9431 18.445C12.3883 18.3292 12.7801 18.1689 13.1184 17.9374C13.3855 17.7594 13.5902 17.5902 13.7327 17.4478C13.8751 17.2964 13.9731 17.145 14.0443 17.0026C14.1155 16.8512 14.1423 16.691 14.1423 16.5307C14.1423 16.3704 14.1333 16.1835 14.1155 15.9698C14.0799 15.676 13.9819 15.4356 13.8039 15.2575C13.6258 15.0884 13.4299 14.9192 13.2163 14.75C13.1094 14.661 13.0204 14.5364 12.9403 14.3672C12.8601 14.2069 12.7889 14.0378 12.7266 13.8775C12.6643 13.6994 12.6108 13.4947 12.5485 13.2721C12.4595 13.2365 12.3704 13.192 12.2814 13.1385C12.2013 13.0762 12.1301 12.9872 12.0499 12.8714C11.9609 12.7557 11.8896 12.5865 11.8185 12.3817C11.7383 12.177 11.7116 11.9722 11.7294 11.7852C11.7472 11.5982 11.7828 11.4469 11.8452 11.3222C11.9075 11.1709 11.9876 11.0373 12.0856 10.9216C12.0767 10.4408 12.0945 9.95112 12.1568 9.46143C12.2191 9.04297 12.3081 8.60672 12.4328 8.14376C12.5575 7.68966 12.7533 7.26231 13.0293 6.87057C13.2697 6.51444 13.5368 6.22063 13.8395 5.99804C14.1333 5.77543 14.4449 5.59738 14.7565 5.4727C15.0682 5.34808 15.3887 5.25904 15.7004 5.21451C16.0119 5.17003 16.3146 5.14331 16.5996 5.14331C17.3653 5.14331 18.0419 5.30358 18.6473 5.61517C19.2439 5.9268 19.689 6.26511 19.974 6.62125C20.3034 7.03081 20.5438 7.47596 20.7041 7.98348C20.8643 8.48206 20.9711 8.95398 21.0512 9.3813C21.1314 9.8888 21.1581 10.3963 21.1403 10.9037C21.2115 10.9661 21.2828 11.0462 21.3451 11.1441C21.3896 11.2332 21.4341 11.3489 21.4697 11.4914C21.5053 11.6338 21.5143 11.8119 21.4786 12.0167C21.443 12.2838 21.3896 12.5063 21.3005 12.6666C21.2115 12.8269 21.1225 12.9604 21.0335 13.0495C20.9266 13.1563 20.8109 13.2186 20.6774 13.2543C20.615 13.4768 20.5616 13.6816 20.4993 13.8597C20.4369 14.02 20.3657 14.1891 20.2767 14.3493C20.1876 14.5096 20.0897 14.6343 19.9918 14.7055C19.876 14.8123 19.7603 14.9014 19.6624 14.9726C19.5644 15.0527 19.4843 15.1239 19.4042 15.2041C19.324 15.2842 19.2617 15.3821 19.2172 15.4801C19.1638 15.5869 19.1192 15.7115 19.0926 15.8629C19.0659 16.0588 19.048 16.2546 19.057 16.4594C19.0659 16.6642 19.1104 16.8601 19.1994 17.0471C19.2884 17.2429 19.4308 17.4299 19.6357 17.608C19.8404 17.7861 20.1165 17.9463 20.4815 18.0799C20.7931 18.2134 21.1403 18.3291 21.5232 18.4271C21.906 18.525 22.2711 18.6408 22.6271 18.7743C22.9833 18.9079 23.2949 19.0859 23.571 19.2907C23.8469 19.5579 24.0427 19.8251 24.1674 20.1544ZM12.1924 16.0233C12.1568 16.1925 12.1212 16.3171 12.0767 16.4062C12.0321 16.4952 11.9253 16.5932 11.7651 16.7C11.3733 16.9403 10.9549 17.1362 10.5097 17.2787C10.0556 17.43 9.62825 17.5903 9.21869 17.7684C8.80918 17.9465 8.45302 18.1868 8.14142 18.4806C7.83869 18.7744 7.64282 19.184 7.57163 19.7271C7.54491 19.8963 7.52709 20.0565 7.51817 20.2079C7.5093 20.3682 7.50038 20.5106 7.48259 20.6442C7.46477 20.6709 7.44698 20.6976 7.43805 20.7243C7.42918 20.751 7.41136 20.7688 7.39352 20.8044C6.8059 20.7599 6.21831 20.7065 5.62177 20.6442C5.02523 20.5819 4.47323 20.5106 3.97465 20.4394C3.47605 20.3593 3.04869 20.288 2.70146 20.2168C2.35422 20.1456 2.14058 20.0655 2.05152 19.9942C1.91797 19.8874 1.82004 19.5758 1.74879 19.0505C1.67759 18.5252 1.70431 17.8485 1.82893 17.0116C1.90018 16.5486 2.09605 16.1925 2.39878 15.9432C2.71038 15.7028 3.06651 15.4981 3.49384 15.3645C3.9123 15.222 4.33971 15.0885 4.78483 14.9727C5.23003 14.857 5.62177 14.6878 5.96008 14.4831C6.22723 14.305 6.43197 14.1358 6.58334 13.9934C6.72575 13.842 6.82369 13.6907 6.88604 13.5304C6.94837 13.3701 6.97508 13.2099 6.97508 13.0496C6.97508 12.8893 6.96619 12.7024 6.94837 12.5154C6.92166 12.2127 6.81482 11.9812 6.64566 11.8031C6.4765 11.634 6.28064 11.4559 6.07584 11.2778C5.96009 11.1977 5.85326 11.082 5.77311 10.9217C5.69297 10.7614 5.62178 10.5923 5.55945 10.432C5.49712 10.254 5.44369 10.0492 5.38137 9.82664C5.29233 9.79097 5.20329 9.74649 5.11428 9.69304C5.03416 9.63071 4.96288 9.5417 4.88277 9.42597C4.80262 9.31022 4.72251 9.14103 4.65129 8.93629C4.58004 8.73152 4.54443 8.52673 4.56227 8.34867C4.58004 8.16172 4.61567 8.00144 4.678 7.86786C4.7403 7.70763 4.82044 7.56518 4.9184 7.46725C4.90056 6.98646 4.92727 6.49678 4.98963 6.00707C5.05195 5.59754 5.14989 5.17018 5.28344 4.70719C5.41696 4.2442 5.62178 3.8258 5.88882 3.45182C6.12922 3.09569 6.39634 2.8019 6.69904 2.57929C6.99282 2.35673 7.29553 2.17868 7.60718 2.05403C7.90986 1.92935 8.22149 1.84034 8.54201 1.7958C8.85361 1.7513 9.16526 1.72461 9.45907 1.72461C10.207 1.72461 10.8836 1.88487 11.4801 2.19647C12.0767 2.50807 12.5308 2.84641 12.8335 3.21141C13.0293 3.46071 13.1539 3.70112 13.1985 3.91478C13.2519 4.12847 13.3231 4.38664 13.4121 4.67158C13.1272 4.83184 12.8245 5.08112 12.504 5.40164C12.1835 5.72216 11.9075 6.05158 11.6582 6.38102C11.3644 6.79943 11.1329 7.26245 10.9816 7.76992C10.8302 8.27742 10.7234 8.7493 10.6432 9.18558C10.572 9.71085 10.5364 10.2272 10.5364 10.7526C10.4207 10.8861 10.3227 11.0375 10.2693 11.1977C10.2069 11.3491 10.1714 11.5272 10.1535 11.723C10.1357 11.9278 10.1714 12.1415 10.2425 12.3819C10.3227 12.6401 10.4028 12.836 10.483 12.9606C10.572 13.0942 10.6521 13.201 10.7323 13.2722C10.8213 13.3612 10.9104 13.4236 10.9994 13.4503C11.0617 13.6907 11.1151 13.9132 11.1774 14.1269C11.2397 14.305 11.311 14.4919 11.3911 14.6789C11.4802 14.8659 11.5781 14.9995 11.6938 15.0974C11.8007 15.1865 11.8808 15.2577 11.9342 15.32C11.9966 15.3823 12.0411 15.4357 12.0856 15.4892C12.1212 15.5426 12.1479 15.6138 12.1568 15.7028C12.139 15.7562 12.1568 15.8719 12.1924 16.0233Z" fill="url(#paint0_linear_267_1924)"/>
<defs>
<linearGradient id="paint0_linear_267_1924" x1="3.75248" y1="4.99903" x2="25.0439" y2="14.4855" gradientUnits="userSpaceOnUse">
<stop stop-color="#6CB6FF"/>
<stop offset="1" stop-color="#04DAFE"/>
</linearGradient>
</defs>
</svg>
