<svg width="26" height="26" viewBox="0 0 26 26" fill="none" xmlns="http://www.w3.org/2000/svg">
<path d="M23 18.3333C23 18.8008 22.8644 19.2344 22.6468 19.6159L15.7007 12.0794L22.5716 6.25001C22.8389 6.66146 23 7.14456 23 7.66667V18.3333ZM12 13.4479L21.5605 5.33595C21.1684 5.12763 20.7267 5 20.25 5H3.75002C3.27268 5 2.83085 5.12763 2.44012 5.33595L12 13.4479ZM14.6654 12.957L12.4525 14.836C12.3229 14.9453 12.1618 15.0001 12 15.0001C11.8381 15.0001 11.677 14.9453 11.5475 14.8359L9.33393 12.957L2.29983 20.5898C2.72146 20.8464 3.21559 21 3.75002 21H20.25C20.7844 21 21.2786 20.8463 21.7002 20.5898L14.6654 12.957ZM1.42836 6.25001C1.16113 6.66146 1 7.14456 1 7.66667V18.3333C1 18.8008 1.13494 19.2344 1.35316 19.6159L8.29864 12.0781L1.42836 6.25001Z" fill="url(#paint0_linear_267_1937)"/>
<defs>
<linearGradient id="paint0_linear_267_1937" x1="2.98361" y1="7.31579" x2="21.0158" y2="18.3484" gradientUnits="userSpaceOnUse">
<stop stop-color="#6CB6FF"/>
<stop offset="1" stop-color="#04DAFE"/>
</linearGradient>
</defs>
</svg>
