<svg width="26" height="26" viewBox="0 0 26 26" fill="none" xmlns="http://www.w3.org/2000/svg">
<path d="M11.4229 5.08007L7.50143 7.27007C7.35503 7.37417 7.17963 7.42963 7 7.42864H2.71429C2.25963 7.42864 1.82359 7.60926 1.5021 7.93075C1.18061 8.25224 1 8.68827 1 9.14293L1 16.8572C1 17.3119 1.18061 17.7479 1.5021 18.0694C1.82359 18.3909 2.25963 18.5715 2.71429 18.5715H7C7.17817 18.5714 7.35194 18.6268 7.49714 18.7301L11.4186 20.9201C11.6747 21.1036 11.9766 21.2131 12.2909 21.2363C12.6052 21.2595 12.9198 21.1956 13.2001 21.0517C13.4805 20.9077 13.7158 20.6893 13.88 20.4203C14.0443 20.1514 14.1313 19.8424 14.1314 19.5272V6.47293C14.1308 6.15848 14.0436 5.85027 13.8795 5.58203C13.7155 5.31378 13.4808 5.09584 13.2011 4.95203C12.9215 4.80823 12.6077 4.74411 12.294 4.7667C11.9804 4.78928 11.679 4.89769 11.4229 5.08007ZM20.1057 21.8072C19.9251 21.8075 19.749 21.7508 19.6025 21.645C19.456 21.5393 19.3467 21.39 19.2902 21.2184C19.2336 21.0469 19.2327 20.8618 19.2876 20.6897C19.3425 20.5176 19.4503 20.3672 19.5957 20.2601C20.7365 19.4243 21.6643 18.3314 22.3038 17.07C22.9434 15.8086 23.2767 14.4143 23.2767 13.0001C23.2767 11.5858 22.9434 10.1915 22.3038 8.93015C21.6643 7.66879 20.7365 6.57589 19.5957 5.74007C19.5048 5.67338 19.428 5.58944 19.3695 5.49304C19.3111 5.39664 19.2722 5.28967 19.255 5.17824C19.2379 5.06681 19.2429 4.9531 19.2698 4.8436C19.2966 4.7341 19.3447 4.63097 19.4114 4.54007C19.4781 4.44918 19.5621 4.37231 19.6585 4.31386C19.7549 4.25541 19.8618 4.21651 19.9733 4.1994C20.0847 4.18229 20.1984 4.18729 20.3079 4.21412C20.4174 4.24096 20.5205 4.28909 20.6114 4.35579C21.9701 5.35074 23.0751 6.65195 23.8368 8.15385C24.5985 9.65576 24.9955 11.3161 24.9955 13.0001C24.9955 14.6841 24.5985 16.3444 23.8368 17.8463C23.0751 19.3482 21.9701 20.6494 20.6114 21.6444C20.4644 21.7508 20.2873 21.8079 20.1057 21.8072Z" fill="url(#paint0_linear_267_1930)"/>
<path d="M17.6761 18.2586C17.5091 18.258 17.3459 18.2087 17.2066 18.1166C17.0672 18.0245 16.9578 17.8937 16.8918 17.7403C16.8258 17.5868 16.806 17.4175 16.835 17.253C16.8639 17.0885 16.9403 16.936 17.0547 16.8143C18.025 15.7813 18.5651 14.4173 18.5651 13.0001C18.5651 11.5828 18.025 10.2188 17.0547 9.18577C16.9773 9.10388 16.9168 9.00756 16.8767 8.90229C16.8365 8.79702 16.8175 8.68487 16.8207 8.57224C16.8271 8.34479 16.9236 8.1292 17.089 7.97292C17.2544 7.81663 17.4751 7.73244 17.7025 7.73887C17.8151 7.74205 17.926 7.76739 18.0289 7.81343C18.1317 7.85947 18.2245 7.92531 18.3018 8.0072C19.5735 9.35863 20.2816 11.1444 20.2816 13.0001C20.2816 14.8557 19.5735 16.6415 18.3018 17.9929C18.2212 18.0775 18.1241 18.1448 18.0165 18.1905C17.9089 18.2362 17.793 18.2594 17.6761 18.2586Z" fill="url(#paint1_linear_267_1930)"/>
<defs>
<linearGradient id="paint0_linear_267_1930" x1="3.16352" y1="6.73939" x2="22.9326" y2="18.7203" gradientUnits="userSpaceOnUse">
<stop stop-color="#6CB6FF"/>
<stop offset="1" stop-color="#04DAFE"/>
</linearGradient>
<linearGradient id="paint1_linear_267_1930" x1="17.1324" y1="9.26117" x2="20.9496" y2="9.82002" gradientUnits="userSpaceOnUse">
<stop stop-color="#6CB6FF"/>
<stop offset="1" stop-color="#04DAFE"/>
</linearGradient>
</defs>
</svg>
