<svg width="26" height="26" viewBox="0 0 26 26" fill="none" xmlns="http://www.w3.org/2000/svg">
<path d="M13.0012 2.48342C18.8055 2.48342 23.5107 7.18871 23.5107 12.9929C23.5107 18.7972 18.8055 23.5025 13.0012 23.5025C7.197 23.5025 2.49171 18.7972 2.49171 12.9929C2.49171 7.18871 7.19702 2.48342 13.0012 2.48342ZM14.2307 19.5849L14.0808 11.3668H11.9217L11.7718 19.5849H14.2307H14.2307ZM13.0012 9.91325C13.7929 9.91325 14.4348 9.25353 14.4348 8.4395C14.4348 7.62563 13.7929 6.96582 13.0012 6.96582C12.2096 6.96582 11.5677 7.62566 11.5677 8.4395C11.5677 9.25353 12.2096 9.91325 13.0012 9.91325Z" fill="url(#paint0_linear_267_1943)"/>
<defs>
<linearGradient id="paint0_linear_267_1943" x1="21.6156" y1="5.52563" x2="1.85155" y2="14.3199" gradientUnits="userSpaceOnUse">
<stop stop-color="#6CB6FF"/>
<stop offset="1" stop-color="#04DAFE"/>
</linearGradient>
</defs>
</svg>
