<svg width="24" height="24" viewBox="0 0 24 24" fill="none" xmlns="http://www.w3.org/2000/svg">
<path d="M18.5 2C18.7626 2 19.0227 2.05173 19.2654 2.15224C19.508 2.25275 19.7285 2.40007 19.9142 2.58579C20.0999 2.7715 20.2472 2.99198 20.3478 3.23463C20.4483 3.47728 20.5 3.73736 20.5 4V15C20.5 18.3135 17.8135 21 14.5 21H5.5C5.23736 21 4.97728 20.9483 4.73463 20.8478C4.49198 20.7472 4.2715 20.5999 4.08579 20.4142C3.90007 20.2285 3.75275 20.008 3.65224 19.7654C3.55173 19.5227 3.5 19.2626 3.5 19V4C3.5 3.73736 3.55173 3.47728 3.65224 3.23463C3.75275 2.99198 3.90007 2.7715 4.08579 2.58579C4.2715 2.40007 4.49198 2.25275 4.73463 2.15224C4.97728 2.05173 5.23736 2 5.5 2H18.5ZM14.25 13H7.75C7.55109 13 7.36032 13.079 7.21967 13.2197C7.07902 13.3603 7 13.5511 7 13.75C7 13.9489 7.07902 14.1397 7.21967 14.2803C7.36032 14.421 7.55109 14.5 7.75 14.5H14.25C14.4489 14.5 14.6397 14.421 14.7803 14.2803C14.921 14.1397 15 13.9489 15 13.75C15 13.5511 14.921 13.3603 14.7803 13.2197C14.6397 13.079 14.4489 13 14.25 13ZM16.25 8.5H7.75C7.55109 8.5 7.36032 8.57902 7.21967 8.71967C7.07902 8.86032 7 9.05109 7 9.25C7 9.44891 7.07902 9.63968 7.21967 9.78033C7.36032 9.92098 7.55109 10 7.75 10H16.25C16.4489 10 16.6397 9.92098 16.7803 9.78033C16.921 9.63968 17 9.44891 17 9.25C17 9.05109 16.921 8.86032 16.7803 8.71967C16.6397 8.57902 16.4489 8.5 16.25 8.5Z" fill="url(#paint0_linear_207_1007)"/>
<defs>
<linearGradient id="paint0_linear_207_1007" x1="5.03279" y1="4.75" x2="21.5626" y2="11.331" gradientUnits="userSpaceOnUse">
<stop stop-color="#6CB6FF"/>
<stop offset="1" stop-color="#04DAFE"/>
</linearGradient>
</defs>
</svg>
