<svg width="20" height="20" viewBox="0 0 20 20" fill="none" xmlns="http://www.w3.org/2000/svg">
<path d="M17.8793 3.3045L16.0662 1.4914C15.7515 1.17678 15.3248 1.00002 14.8799 1H8.86487C7.93827 1 7.18737 1.7511 7.18737 2.6775V4.355H4.39137C3.46477 4.355 2.71387 5.106 2.71387 6.0325V17.2159C2.71387 18.1424 3.46507 18.8933 4.39137 18.8933H12.2199C13.1463 18.8933 13.8972 18.1422 13.8972 17.2159V15.5385H16.6931C17.6195 15.5385 18.3706 14.7874 18.3706 13.861V4.4907C18.3706 4.2704 18.3273 4.05224 18.243 3.84871C18.1587 3.64517 18.0351 3.46024 17.8793 3.3045ZM12.01 17.2159H4.60097C4.57343 17.2159 4.54617 17.2105 4.52073 17.1999C4.4953 17.1894 4.47219 17.174 4.45272 17.1545C4.43326 17.135 4.41782 17.1119 4.40729 17.0864C4.39677 17.061 4.39135 17.0337 4.39137 17.0062V6.2422C4.39137 6.1263 4.48517 6.0325 4.60097 6.0325H7.18727V13.8609C7.18727 14.7874 7.93827 15.5383 8.86457 15.5383H12.2197V17.0062C12.2197 17.0338 12.2143 17.061 12.2038 17.0865C12.1933 17.112 12.1778 17.1351 12.1583 17.1546C12.1389 17.174 12.1157 17.1895 12.0903 17.2C12.0648 17.2105 12.0375 17.2159 12.01 17.2159ZM16.4836 13.8609H9.07437C9.04682 13.8609 9.01955 13.8555 8.99411 13.8449C8.96867 13.8344 8.94555 13.8189 8.92609 13.7994C8.90662 13.78 8.89119 13.7568 8.88066 13.7314C8.87014 13.7059 8.86474 13.6786 8.86477 13.6511V2.8872C8.86477 2.7713 8.95857 2.6775 9.07437 2.6775H12.7791V5.7529C12.7791 5.86305 12.8007 5.97212 12.8429 6.07389C12.885 6.17565 12.9468 6.26812 13.0247 6.34602C13.1026 6.42391 13.195 6.48569 13.2968 6.52785C13.3986 6.57 13.5076 6.5917 13.6178 6.5917H16.6932V13.6514C16.6932 13.7671 16.5992 13.8609 16.4836 13.8609ZM16.6932 4.9142H14.4565V2.6775H14.7932C14.8489 2.6775 14.902 2.6996 14.9414 2.7389L16.6316 4.4293C16.6709 4.4687 16.6929 4.5219 16.6929 4.5776V4.9142H16.6932Z" fill="url(#paint0_linear_201_5997)"/>
<defs>
<linearGradient id="paint0_linear_201_5997" x1="10.5422" y1="1" x2="10.5422" y2="18.8933" gradientUnits="userSpaceOnUse">
<stop stop-color="#FFB752"/>
<stop offset="1" stop-color="#F08C51"/>
</linearGradient>
</defs>
</svg>
