<svg width="40" height="40" viewBox="0 0 40 40" fill="none" xmlns="http://www.w3.org/2000/svg">
<path d="M20 30C25.5228 30 30 25.5228 30 20C30 14.4772 25.5228 10 20 10C14.4772 10 10 14.4772 10 20C10 25.5228 14.4772 30 20 30Z" stroke="#292D32" stroke-width="1.5" stroke-linecap="round" stroke-linejoin="round"/>
<path d="M16 11H17C15.05 16.84 15.05 23.16 17 29H16" stroke="#292D32" stroke-width="1.5" stroke-linecap="round" stroke-linejoin="round"/>
<path d="M23 11C24.95 16.84 24.95 23.16 23 29" stroke="#292D32" stroke-width="1.5" stroke-linecap="round" stroke-linejoin="round"/>
<path d="M11 24V23C16.84 24.95 23.16 24.95 29 23V24" stroke="#292D32" stroke-width="1.5" stroke-linecap="round" stroke-linejoin="round"/>
<path d="M11 17C16.84 15.05 23.16 15.05 29 17" stroke="#292D32" stroke-width="1.5" stroke-linecap="round" stroke-linejoin="round"/>
<path d="M21.745 30.15C21.025 30.15 20.4083 29.9933 19.895 29.68C19.3817 29.3633 18.9867 28.9233 18.71 28.36C18.4367 27.7967 18.3 27.1433 18.3 26.4C18.3 25.6567 18.4367 25.0033 18.71 24.44C18.9867 23.8767 19.3817 23.4383 19.895 23.125C20.4083 22.8083 21.025 22.65 21.745 22.65C22.575 22.65 23.2667 22.8583 23.82 23.275C24.3733 23.6883 24.7617 24.2467 24.985 24.95L23.77 25.285C23.63 24.815 23.3917 24.4483 23.055 24.185C22.7183 23.9183 22.2817 23.785 21.745 23.785C21.2617 23.785 20.8583 23.8933 20.535 24.11C20.215 24.3267 19.9733 24.6317 19.81 25.025C19.65 25.415 19.5683 25.8733 19.565 26.4C19.565 26.9267 19.645 27.3867 19.805 27.78C19.9683 28.17 20.2117 28.4733 20.535 28.69C20.8583 28.9067 21.2617 29.015 21.745 29.015C22.2817 29.015 22.7183 28.8817 23.055 28.615C23.3917 28.3483 23.63 27.9817 23.77 27.515L24.985 27.85C24.7617 28.5533 24.3733 29.1133 23.82 29.53C23.2667 29.9433 22.575 30.15 21.745 30.15ZM26.0828 30V22.8H27.3028L30.6428 27.875V22.8H31.8628V30H30.6428L27.3028 24.925V30H26.0828Z" fill="white"/>
<path d="M19.895 29.68L19.1075 30.9566L19.1135 30.9603L19.895 29.68ZM18.71 28.36L17.3605 29.0148L17.3636 29.0212L18.71 28.36ZM18.71 24.44L17.3636 23.7787L17.3605 23.7852L18.71 24.44ZM19.895 23.125L20.6765 24.4053L20.6825 24.4016L19.895 23.125ZM23.82 23.275L22.9177 24.4733L22.9223 24.4767L23.82 23.275ZM24.985 24.95L25.3837 26.396C25.7769 26.2876 26.1089 26.0238 26.3034 25.6654C26.4979 25.3069 26.5381 24.8847 26.4147 24.496L24.985 24.95ZM23.77 25.285L22.3324 25.7132C22.5655 26.4957 23.3816 26.9481 24.1687 26.731L23.77 25.285ZM23.055 24.185L22.1236 25.3609L22.1309 25.3665L23.055 24.185ZM20.535 24.11L19.7 22.8639L19.694 22.8679L20.535 24.11ZM19.81 25.025L18.4247 24.4497L18.4222 24.4557L19.81 25.025ZM19.565 26.4L18.065 26.3905V26.4H19.565ZM19.805 27.78L18.4156 28.3452C18.4175 28.35 18.4195 28.3547 18.4214 28.3594L19.805 27.78ZM20.535 28.69L21.37 27.4439H21.37L20.535 28.69ZM23.055 28.615L22.1236 27.4392L23.055 28.615ZM23.77 27.515L24.1687 26.069C23.3827 25.8522 22.5675 26.303 22.3333 27.084L23.77 27.515ZM24.985 27.85L26.4147 28.304C26.5381 27.9153 26.4979 27.4931 26.3034 27.1346C26.1089 26.7762 25.7769 26.5124 25.3837 26.404L24.985 27.85ZM23.82 29.53L24.7177 30.7317L24.7223 30.7283L23.82 29.53ZM21.745 28.65C21.246 28.65 20.9118 28.5433 20.6765 28.3997L19.1135 30.9603C19.9049 31.4434 20.804 31.65 21.745 31.65V28.65ZM20.6825 28.4034C20.4198 28.2413 20.2138 28.0192 20.0564 27.6988L17.3636 29.0212C17.7596 29.8274 18.3435 30.4854 19.1075 30.9566L20.6825 28.4034ZM20.0595 27.7052C19.9021 27.3807 19.8 26.9586 19.8 26.4H16.8C16.8 27.3281 16.9713 28.2126 17.3605 29.0148L20.0595 27.7052ZM19.8 26.4C19.8 25.8414 19.9021 25.4193 20.0595 25.0948L17.3605 23.7852C16.9713 24.5874 16.8 25.4719 16.8 26.4H19.8ZM20.0564 25.1012C20.2132 24.782 20.4174 24.5635 20.6765 24.4053L19.1135 21.8447C18.346 22.3132 17.7602 22.9713 17.3636 23.7788L20.0564 25.1012ZM20.6825 24.4016C20.9168 24.2571 21.2488 24.15 21.745 24.15V21.15C20.8012 21.15 19.8999 21.3595 19.1075 21.8484L20.6825 24.4016ZM21.745 24.15C22.3159 24.15 22.6729 24.2889 22.9177 24.4733L24.7223 22.0767C23.8604 21.4277 22.8341 21.15 21.745 21.15V24.15ZM22.9223 24.4767C23.207 24.6894 23.42 24.9777 23.5553 25.404L26.4147 24.496C26.1033 23.5156 25.5397 22.6873 24.7177 22.0733L22.9223 24.4767ZM24.5863 23.504L23.3713 23.839L24.1687 26.731L25.3837 26.396L24.5863 23.504ZM25.2076 24.8568C24.9923 24.134 24.5959 23.4859 23.9791 23.0035L22.1309 25.3665C22.1874 25.4108 22.2677 25.496 22.3324 25.7132L25.2076 24.8568ZM23.9864 23.0092C23.3241 22.4846 22.5335 22.285 21.745 22.285V25.285C22.0298 25.285 22.1125 25.352 22.1236 25.3608L23.9864 23.0092ZM21.745 22.285C21.0365 22.285 20.3242 22.4456 19.7 22.8639L21.37 25.3561C21.3925 25.341 21.4868 25.285 21.745 25.285V22.285ZM19.694 22.8679C19.1068 23.2655 18.6885 23.8145 18.4247 24.4497L21.1953 25.6003C21.2582 25.4489 21.3232 25.3878 21.376 25.3521L19.694 22.8679ZM18.4222 24.4557C18.1736 25.0616 18.0693 25.718 18.065 26.3905L21.065 26.4095C21.0674 26.0287 21.1264 25.7684 21.1978 25.5943L18.4222 24.4557ZM18.065 26.4C18.065 27.0754 18.1673 27.7349 18.4156 28.3452L21.1944 27.2148C21.1227 27.0384 21.065 26.7779 21.065 26.4H18.065ZM18.4214 28.3594C18.6881 28.9962 19.1113 29.5416 19.7 29.9361L21.37 27.4439C21.312 27.4051 21.2486 27.3438 21.1886 27.2006L18.4214 28.3594ZM19.7 29.9361C20.3242 30.3544 21.0365 30.515 21.745 30.515V27.515C21.4868 27.515 21.3925 27.459 21.37 27.4439L19.7 29.9361ZM21.745 30.515C22.5335 30.515 23.3241 30.3154 23.9864 29.7908L22.1236 27.4392C22.1125 27.448 22.0298 27.515 21.745 27.515V30.515ZM23.9864 29.7908C24.5953 29.3085 24.9908 28.6658 25.2067 27.946L22.3333 27.084C22.2692 27.2975 22.1881 27.3882 22.1236 27.4392L23.9864 29.7908ZM23.3713 28.961L24.5863 29.296L25.3837 26.404L24.1687 26.069L23.3713 28.961ZM23.5553 27.396C23.4197 27.8231 23.2056 28.115 22.9177 28.3317L24.7223 30.7283C25.5411 30.1117 26.1036 29.2836 26.4147 28.304L23.5553 27.396ZM22.9223 28.3283C22.6772 28.5113 22.3185 28.65 21.745 28.65V31.65C22.8315 31.65 23.8561 31.3753 24.7177 30.7317L22.9223 28.3283ZM26.0828 30H24.5828C24.5828 30.8284 25.2544 31.5 26.0828 31.5V30ZM26.0828 22.8V21.3C25.2544 21.3 24.5828 21.9716 24.5828 22.8H26.0828ZM27.3028 22.8L28.5558 21.9754C28.2784 21.5538 27.8075 21.3 27.3028 21.3V22.8ZM30.6428 27.875L29.3898 28.6996C29.7541 29.2532 30.4384 29.5021 31.0732 29.3119C31.708 29.1218 32.1428 28.5376 32.1428 27.875H30.6428ZM30.6428 22.8V21.3C29.8144 21.3 29.1428 21.9716 29.1428 22.8H30.6428ZM31.8628 22.8H33.3628C33.3628 21.9716 32.6912 21.3 31.8628 21.3V22.8ZM31.8628 30V31.5C32.6912 31.5 33.3628 30.8284 33.3628 30H31.8628ZM30.6428 30L29.3898 30.8246C29.6673 31.2462 30.1381 31.5 30.6428 31.5V30ZM27.3028 24.925L28.5558 24.1004C28.1915 23.5468 27.5072 23.2979 26.8724 23.4881C26.2376 23.6782 25.8028 24.2624 25.8028 24.925H27.3028ZM27.3028 30V31.5C28.1312 31.5 28.8028 30.8284 28.8028 30H27.3028ZM27.5828 30V22.8H24.5828V30H27.5828ZM26.0828 24.3H27.3028V21.3H26.0828V24.3ZM26.0498 23.6246L29.3898 28.6996L31.8958 27.0504L28.5558 21.9754L26.0498 23.6246ZM32.1428 27.875V22.8H29.1428V27.875H32.1428ZM30.6428 24.3H31.8628V21.3H30.6428V24.3ZM30.3628 22.8V30H33.3628V22.8H30.3628ZM31.8628 28.5H30.6428V31.5H31.8628V28.5ZM31.8958 29.1754L28.5558 24.1004L26.0498 25.7496L29.3898 30.8246L31.8958 29.1754ZM25.8028 24.925V30H28.8028V24.925H25.8028ZM27.3028 28.5H26.0828V31.5H27.3028V28.5Z" fill="#292D32"/>
</svg>
