<svg width="35" height="15" viewBox="0 0 35 15" fill="none" xmlns="http://www.w3.org/2000/svg">
<path d="M2.51556 2.536C2.57956 2.072 2.78756 1.688 3.13956 1.384C3.50756 1.064 3.92356 0.904 4.38756 0.904H16.4116L14.7316 12.928C14.6516 13.392 14.4356 13.784 14.0836 14.104C13.7316 14.408 13.3236 14.56 12.8596 14.56H0.835562L2.51556 2.536ZM7.00356 3.16L5.70756 12.28H10.2436L11.5396 3.16H7.00356ZM29.2817 3.16H24.6977L24.4817 4.984H19.9217L20.4977 0.879999H34.1537L33.0017 9.088H23.4257L22.9937 12.28H31.6577L32.6897 11.368L32.2337 14.56H20.2097C19.7457 14.56 19.3777 14.408 19.1057 14.104C18.8337 13.784 18.7297 13.392 18.7937 12.928L19.6577 6.808H28.7537L29.2817 3.16Z" fill="#4263EB"/>
</svg>
