<svg width="33" height="15" viewBox="0 0 33 15" fill="none" xmlns="http://www.w3.org/2000/svg">
<path d="M1.83197 2.536C1.89597 2.072 2.10397 1.688 2.45597 1.384C2.82397 1.064 3.23997 0.904 3.70397 0.904H15.728L14.048 12.928C13.968 13.392 13.752 13.784 13.4 14.104C13.048 14.408 12.64 14.56 12.176 14.56H0.151968L1.83197 2.536ZM6.31997 3.16L5.02397 12.28H9.55997L10.856 3.16H6.31997ZM27.2062 8.632H18.9982L19.3102 6.352H27.5182L27.9742 3.16H18.8542L19.1662 0.904H32.8462L31.1422 12.928C31.0782 13.392 30.8622 13.784 30.4942 14.104C30.1422 14.408 29.7422 14.56 29.2942 14.56H17.2462L17.5822 12.28H26.6782L27.2062 8.632Z" fill="#4263EB"/>
</svg>
