<svg width="18" height="18" viewBox="0 0 18 18" fill="none" xmlns="http://www.w3.org/2000/svg">
<g clip-path="url(#clip0_254_1224)">
<path d="M4.91535 17.377C3.80766 17.377 2.69997 16.9616 1.8692 16.1308C1.03843 15.3001 0.623047 14.1924 0.623047 13.0847C0.623047 11.9078 1.03843 10.8693 1.8692 10.0385L3.32305 8.58469C4.29228 7.61546 5.67689 7.20008 6.99228 7.33854C7.33843 7.40777 7.61535 7.75392 7.54612 8.10008C7.47689 8.44623 7.13074 8.72315 6.78458 8.65392C5.88459 8.51546 4.91535 8.79238 4.29228 9.48469L2.83843 10.9385C2.28459 11.4924 2.00766 12.2539 2.00766 13.0155C2.00766 13.777 2.28459 14.5385 2.83843 15.0924C4.01535 16.2693 5.88458 16.2693 6.99228 15.0924L8.44612 13.6385C9.13843 12.9462 9.41535 12.0462 9.27689 11.1462C9.20766 10.8001 9.48458 10.3847 9.83074 10.3847C10.2461 10.3155 10.5923 10.5924 10.5923 10.9385C10.8 12.2539 10.3154 13.6385 9.34612 14.6078L7.89228 16.0616C7.13074 16.9616 6.02305 17.377 4.91535 17.377ZM6.3692 12.3232C6.16151 12.3232 6.02305 12.2539 5.88458 12.1155C5.60766 11.8385 5.60766 11.4232 5.88458 11.1462L11.0769 5.88469C11.3538 5.60777 11.7692 5.60777 12.0461 5.88469C12.323 6.16161 12.323 6.577 12.0461 6.85392L6.92305 12.1155C6.78458 12.2539 6.57689 12.3232 6.3692 12.3232ZM11.5615 10.7308C11.3538 10.7308 11.1461 10.7308 10.9384 10.6616C10.5923 10.5924 10.3154 10.2462 10.3846 9.90008C10.4538 9.55392 10.8 9.277 11.1461 9.34623C12.0461 9.48469 13.0154 9.20777 13.6384 8.51546L15.0923 7.06161C16.2692 5.88469 16.2692 4.01546 15.0923 2.90777C14.5384 2.35392 13.7769 2.077 13.0154 2.077C12.2538 2.077 11.4923 2.35392 10.9384 2.90777L9.48458 4.36161C8.79228 5.05392 8.51535 5.95392 8.65382 6.85392C8.72305 7.20008 8.44612 7.61546 8.09997 7.61546C7.75382 7.68469 7.33843 7.40777 7.33843 7.06161C7.13074 5.74623 7.61535 4.36161 8.58459 3.39238L10.0384 1.93854C10.8692 1.10777 11.9769 0.692383 13.0846 0.692383C14.2615 0.692383 15.3 1.10777 16.1307 1.93854C17.7923 3.60008 17.7923 6.36931 16.1307 8.03085L14.6769 9.48469C13.8461 10.2462 12.7384 10.7308 11.5615 10.7308Z" fill="white"/>
</g>
<defs>
<clipPath id="clip0_254_1224">
<rect width="18" height="18" fill="white"/>
</clipPath>
</defs>
</svg>
