<svg width="28" height="28" viewBox="0 0 28 28" fill="none" xmlns="http://www.w3.org/2000/svg">
<path d="M14.0055 5.25C9.63594 5.25 5.49063 6.88516 2.30781 9.84922L1.75 10.3688L2.29141 10.9047L4.05781 12.6547L4.56641 13.1578L5.09141 12.6766C7.525 10.4398 10.6859 9.20391 13.9945 9.20391C17.3031 9.20391 20.4695 10.4398 22.8977 12.6766L23.4227 13.1578L23.9313 12.6547L25.6977 10.9047L26.2391 10.3688L25.6813 9.84922C22.5094 6.88516 18.3586 5.25 14.0055 5.25Z" fill="url(#paint0_linear_254_1509)"/>
<path d="M21.7326 14.0219C19.6107 12.1023 16.8709 11.0469 14.0162 11.0469H14.0107H13.9943H13.5295L13.524 11.0578C10.8334 11.1672 8.27402 12.2117 6.27246 14.0219L5.69824 14.5414L6.25059 15.0883L8.03887 16.8602L8.53652 17.3523L9.06152 16.893C10.4451 15.6789 12.2006 15.0062 13.9998 15.0062C15.81 15.0062 17.5654 15.6789 18.949 16.893L19.474 17.3523L19.9717 16.8602L21.76 15.0883L22.3123 14.5414L21.7326 14.0219Z" fill="url(#paint1_linear_254_1509)"/>
<path d="M14.0113 22.75L14.5363 22.2304L17.4238 19.3757L18.0035 18.8015L17.3691 18.282C16.527 17.6585 15.5973 17.1882 14.0059 17.1882C12.4199 17.1882 11.5504 17.7023 10.6426 18.282L10.0137 18.8015L10.5934 19.3757L13.4809 22.2304L14.0113 22.75Z" fill="url(#paint2_linear_254_1509)"/>
<defs>
<linearGradient id="paint0_linear_254_1509" x1="3.95803" y1="6.39455" x2="13.4743" y2="19.5078" gradientUnits="userSpaceOnUse">
<stop stop-color="#6CB6FF"/>
<stop offset="1" stop-color="#04DAFE"/>
</linearGradient>
<linearGradient id="paint1_linear_254_1509" x1="7.19623" y1="11.9595" x2="15.0777" y2="21.1999" gradientUnits="userSpaceOnUse">
<stop stop-color="#6CB6FF"/>
<stop offset="1" stop-color="#04DAFE"/>
</linearGradient>
<linearGradient id="paint2_linear_254_1509" x1="10.7341" y1="17.9932" x2="17.1235" y2="22.0775" gradientUnits="userSpaceOnUse">
<stop stop-color="#6CB6FF"/>
<stop offset="1" stop-color="#04DAFE"/>
</linearGradient>
</defs>
</svg>
