<svg width="50" height="50" viewBox="0 0 50 50" fill="none" xmlns="http://www.w3.org/2000/svg">
<g clip-path="url(#clip0_254_1133)">
<path d="M41.0811 0C42.0616 0 43.3032 0.669407 43.8476 1.48881L49.0056 9.22449C49.5528 10.0467 49.9972 11.4966 49.9972 12.5021V46.4446C49.9972 48.4056 48.389 49.9972 46.4419 49.9972H3.55536C2.61242 49.9972 1.7081 49.6226 1.04134 48.9559C0.374581 48.2891 1.295e-08 47.3848 0 46.4419L0 12.5021C0 11.516 0.44442 10.0439 0.991612 9.22449L6.14966 1.48881C6.69685 0.66663 7.95511 0 8.91339 0H41.0811ZM40.1755 3.57202H9.82168L5.35804 8.92728H44.6364L40.1728 3.57202H40.1755Z" fill="url(#paint0_linear_254_1133)"/>
<path d="M30.7068 28.1568C31.1542 28.6093 31.7573 28.8743 32.3932 28.8975C33.0292 28.9208 33.6501 28.7007 34.1293 28.282C34.6086 27.8633 34.9101 27.2776 34.9725 26.6443C35.0348 26.011 34.8533 25.3777 34.4649 24.8736L34.2427 24.6181L26.732 17.1185C26.3047 16.6918 25.7373 16.4343 25.1348 16.3934C24.5323 16.3526 23.9354 16.5312 23.4544 16.8963L23.1989 17.1185L15.7076 24.6014C15.2582 25.049 14.9956 25.6506 14.9732 26.2845C14.9508 26.9184 15.1702 27.5371 15.5869 28.0152C16.0037 28.4934 16.5866 28.7953 17.2175 28.8597C17.8485 28.9242 18.4804 28.7464 18.9852 28.3623L19.2407 28.1401L24.9654 22.421L30.7068 28.1568Z" fill="white"/>
<path d="M24.9984 42.22C25.6071 42.22 26.1949 41.998 26.6516 41.5956C27.1083 41.1931 27.4024 40.6379 27.4788 40.034L27.4983 39.7201V22.2211C27.4989 21.5848 27.257 20.9722 26.8217 20.5082C26.3865 20.0441 25.7906 19.7635 25.1556 19.7235C24.5206 19.6834 23.8943 19.8871 23.4042 20.2928C22.9141 20.6985 22.5972 21.2759 22.518 21.9072L22.4985 22.2211V39.7201C22.4985 40.3831 22.7619 41.019 23.2307 41.4878C23.6995 41.9566 24.3354 42.22 24.9984 42.22Z" fill="white"/>
</g>
<defs>
<linearGradient id="paint0_linear_254_1133" x1="4.50795" y1="7.23644" x2="51.5199" y2="28.1551" gradientUnits="userSpaceOnUse">
<stop stop-color="#6CB6FF"/>
<stop offset="1" stop-color="#04DAFE"/>
</linearGradient>
<clipPath id="clip0_254_1133">
<rect width="50" height="50" fill="white"/>
</clipPath>
</defs>
</svg>
