<svg width="40" height="40" viewBox="0 0 40 40" fill="none" xmlns="http://www.w3.org/2000/svg">
<path d="M39.4016 24.8381C36.7301 35.5525 25.877 42.0731 15.1601 39.4012C4.44772 36.7301 -2.07358 25.8775 0.599038 15.1639C3.26931 4.44838 14.1225 -2.07268 24.836 0.598468C35.5521 3.26961 42.073 14.1234 39.4013 24.8383L39.4015 24.8381H39.4016Z" fill="#F3BA2F"/>
<path fill-rule="evenodd" clip-rule="evenodd" d="M20.0018 12.6934L14.8224 17.8723L14.8225 17.8721L11.8089 14.8587L20.0018 6.66675L28.1974 14.8612L25.1837 17.8745L20.0018 12.6934ZM9.68077 16.9862L6.66699 20.0001L9.68056 23.0129L12.6943 19.9995L9.68077 16.9862ZM14.8224 22.1282L20.0018 27.3067L25.1836 22.1257L28.1989 25.1375L28.1974 25.1391L20.0018 33.3334L11.8089 25.1414L11.8046 25.1371L14.8224 22.1282ZM30.3231 16.988L27.3093 20.0014L30.323 23.0146L33.3367 20.0012L30.3231 16.988Z" fill="white"/>
<path d="M23.0586 19.9984H23.0599L20.002 16.9407L17.7418 19.2L17.4822 19.4597L16.9466 19.9953L16.9424 19.9994L16.9466 20.0038L20.002 23.0593L23.0601 20.0016L23.0616 19.9999L23.0588 19.9984" fill="white"/>
</svg>
