<svg width="38" height="39" viewBox="0 0 38 39" fill="none" xmlns="http://www.w3.org/2000/svg">
<g clip-path="url(#clip0_230_4362)">
<path d="M37.9644 19.2866C37.9644 29.8454 29.5004 38.4045 19.0589 38.4045C8.6178 38.4045 0.153442 29.8454 0.153442 19.2866C0.153442 8.72797 8.6178 0.168701 19.0589 0.168701C29.5004 0.168701 37.9644 8.72797 37.9644 19.2866Z" fill="#1BA27A"/>
<path d="M27.931 9.80586H10.0294V14.1762H16.8193V20.5998H21.1411V14.1762H27.931V9.80586Z" fill="white"/>
<path d="M19.025 21.2879C13.4082 21.2879 8.85444 20.389 8.85444 19.2799C8.85444 18.1711 13.408 17.272 19.025 17.272C24.6418 17.272 29.1954 18.1711 29.1954 19.2799C29.1954 20.389 24.6418 21.2879 19.025 21.2879ZM30.4449 19.6147C30.4449 18.1847 25.3321 17.0255 19.025 17.0255C12.7182 17.0255 7.60498 18.1847 7.60498 19.6147C7.60498 20.874 11.5696 21.9232 16.8233 22.1556V31.377H21.1447V22.1593C26.4388 21.9341 30.4449 20.8805 30.4449 19.6147Z" fill="white"/>
</g>
<defs>
<clipPath id="clip0_230_4362">
<rect width="38" height="38.427" fill="white" transform="translate(0 0.0786438)"/>
</clipPath>
</defs>
</svg>
