<svg width="30" height="30" viewBox="0 0 30 30" fill="none" xmlns="http://www.w3.org/2000/svg">
<circle cx="15" cy="15" r="15" fill="#988430"/>
<circle cx="15" cy="15" r="14.5195" fill="#7A6A2A"/>
<circle cx="14.9997" cy="14.9997" r="14.2136" fill="#BA9F33"/>
<path fill-rule="evenodd" clip-rule="evenodd" d="M6.55814 13.3978C6.47318 13.3202 6.38342 13.2425 6.30086 13.1649C6.2183 13.0873 6.1335 13.0095 6.04854 12.9319L5.79606 12.6919C5.75478 12.6506 5.7111 12.6143 5.66982 12.5729C5.62854 12.5366 5.58006 12.4953 5.53878 12.4588C5.20374 12.1409 4.86678 11.823 4.53638 11.5049C4.87862 11.818 5.21366 12.1289 5.5559 12.4466L5.67478 12.5657C5.71606 12.6068 5.75974 12.6433 5.80102 12.6846L6.05334 12.9175C6.1383 12.9951 6.22086 13.0729 6.30582 13.1575C6.39078 13.2422 6.47334 13.3201 6.5583 13.3975L6.55814 13.3978ZM2.11133 13.3499C2.11133 13.3499 3.32973 13.4759 3.92445 13.5609C4.47533 13.6387 6.19869 13.9031 6.19869 13.9031L2.11133 13.3499ZM2.11149 13.35C2.45373 13.3791 2.79597 13.4154 3.13821 13.4519C3.31293 13.4688 3.48045 13.4882 3.64797 13.5052L3.90509 13.5344C3.99005 13.5464 4.07261 13.5586 4.15757 13.5708L5.17709 13.7333L5.68669 13.8183C5.85421 13.8474 6.02173 13.8791 6.19645 13.9082C6.02893 13.8912 5.85421 13.8669 5.68669 13.8426L5.17709 13.7698L4.15757 13.6194C4.07261 13.6072 3.99005 13.5901 3.90509 13.5781L3.64781 13.5485C3.48029 13.5316 3.30557 13.5072 3.13805 13.4877C2.79581 13.4466 2.45357 13.4028 2.11133 13.3495L2.11149 13.35ZM6.07756 14.2207C6.07756 14.2207 4.7766 14.5509 4.33724 14.6772C3.90524 14.7961 2.59692 15.1941 2.59692 15.1941L6.0774 14.2209L6.07756 14.2207Z" fill="#CFB66C"/>
<path fill-rule="evenodd" clip-rule="evenodd" d="M6.07765 14.2207C5.78885 14.3057 5.50165 14.3882 5.20869 14.466L4.33973 14.6989C4.05093 14.7839 3.76373 14.8665 3.47573 14.9514L3.04373 15.0703C2.90053 15.1116 2.75493 15.1479 2.60693 15.1893C2.74997 15.1413 2.89573 15.0922 3.03893 15.0509L3.47093 14.9127C3.75973 14.8228 4.04693 14.7378 4.33493 14.6481C4.62853 14.5753 4.91749 14.4975 5.21109 14.4271C5.49013 14.3567 5.78389 14.2865 6.07765 14.2209V14.2207ZM2.77917 15.9952C2.92221 15.9418 4.57277 15.1725 4.95629 14.9928C5.14829 14.9029 5.70637 14.7048 5.70637 14.7048L2.77917 15.9952Z" fill="#CFB66C"/>
<path fill-rule="evenodd" clip-rule="evenodd" d="M2.77946 15.9954C2.90554 15.9474 3.02458 15.8887 3.14586 15.8328L3.50506 15.6653L4.22602 15.3183C4.46602 15.2042 4.6993 15.0783 4.94682 14.9711C5.07306 14.9178 5.1993 14.8741 5.32538 14.8328L5.51738 14.7722C5.58282 14.7552 5.64362 14.7357 5.70938 14.7188C5.46938 14.8328 5.21674 14.93 4.97642 15.0415C4.73642 15.1605 4.49098 15.2576 4.2433 15.3644L3.51034 15.6871C3.26426 15.7868 3.02426 15.8935 2.7793 15.9954H2.77946ZM2.93921 16.6676C2.93921 16.6676 4.43425 15.7914 4.94881 15.5098C5.21825 15.3594 6.08961 14.9272 6.08961 14.9272L2.93921 16.6676Z" fill="#CFB66C"/>
<path fill-rule="evenodd" clip-rule="evenodd" d="M2.93945 16.667C3.19177 16.5116 3.44905 16.3539 3.70633 16.1937L4.09033 15.9606C4.22137 15.883 4.34761 15.8102 4.48121 15.7326C4.61225 15.6548 4.73849 15.5772 4.87193 15.5044C4.93546 15.4652 5.00202 15.4311 5.07097 15.4025L5.27481 15.3006C5.54425 15.1696 5.81369 15.036 6.09769 14.9219C5.84041 15.0846 5.57577 15.223 5.31129 15.366C5.18025 15.4388 5.04665 15.5044 4.91561 15.5772C4.78457 15.65 4.65833 15.7278 4.52473 15.7982C4.39369 15.8758 4.26745 15.9486 4.13401 16.019L3.73833 16.235L2.93977 16.667H2.93945ZM6.0776 15.1185C6.0776 15.1185 5.148 15.8321 4.84704 16.0603C4.54608 16.2885 3.66016 16.9293 3.66016 16.9293L6.0776 15.1185Z" fill="#CFB66C"/>
<path fill-rule="evenodd" clip-rule="evenodd" d="M11.4127 20.8742L10.937 19.9737L11.2137 18.8475L13.1869 18.0854L12.3471 16.3622L12.7621 14.6219L13.5413 13.0635L15.9492 12.6849L17.7185 10.998L21.5389 11.2868L22.2889 15.3718L20.8447 20.515L20.022 23.1777L16.6869 23.304L15.1385 22.2312L13.3253 21.4737L11.4127 20.8742Z" fill="#E2CC85"/>
<path fill-rule="evenodd" clip-rule="evenodd" d="M17.2625 20.8447C17.2625 20.8447 16.8012 21.0559 16.0145 21.0073C15.7868 20.7015 14.1923 20.5583 14.1923 20.5583C14.1923 20.5583 13.9932 20.4977 13.6412 20.6433C13.287 20.7873 12.9519 20.7695 12.6388 20.8471C12.3257 20.9247 12.0148 20.5171 11.7748 20.4321C11.5348 20.3423 11.2166 20.1263 11.2166 20.1263L10.5446 20.0607L9.19514 19.4903L7.0513 17.3545L6.46874 18.2665L6.28906 19.3951L6.93722 20.7326L8.68234 22.3223L12.0852 23.1863L14.1022 22.5921L16.6289 21.5241L17.2625 20.8446V20.8447Z" fill="#F1D789"/>
<path fill-rule="evenodd" clip-rule="evenodd" d="M5.17246 13.2962L5.60446 11.9881L6.11918 11.1433L7.77678 11.0049L7.27918 12.4564L5.89342 14.9225L6.46862 17.1239L5.44926 17.6335L5.13598 17.153L4.88366 16.0511L4.8667 14.8132L5.17246 13.2962Z" fill="#F4ECB4"/>
<path fill-rule="evenodd" clip-rule="evenodd" d="M7.03141 20.7552L6.71349 20.3111C6.71349 20.3111 6.62853 20.0999 6.67717 19.9154C6.72517 19.7285 6.71829 19.7164 6.69413 19.646C6.66997 19.5756 6.46597 19.3328 6.47813 19.124C6.49013 18.9128 6.46117 18.8424 6.61637 18.6751C6.77893 18.5125 6.73045 18.2309 6.73045 18.2309L6.94165 18.362L6.98965 18.2892C6.98965 18.2892 7.06725 18.3498 7.06725 18.4445C7.08421 18.3135 7.01381 17.7066 7.17397 17.5684C7.33413 17.4301 7.61813 18.2164 7.61813 18.2164L7.44341 17.0756L6.99429 15.9058L6.19573 14.8378L6.14773 13.6605V13.5586C6.14773 13.5586 5.78117 14.1218 5.67925 14.5666C5.60645 14.8724 5.78117 15.2437 5.74485 15.6831C5.71557 16.12 5.67925 16.086 5.78597 16.2591C5.89269 16.4322 6.15253 16.7882 6.05061 17.0455C5.96085 17.2664 5.65493 17.1111 5.65493 17.1111C5.65493 17.1111 5.59429 17.2906 5.51173 17.3562C5.48261 17.2495 5.45109 17.1815 5.39285 17.1162C5.38789 17.1575 5.37589 17.2133 5.37589 17.2133C5.37589 17.2133 5.32245 17.0458 5.26901 16.8346C5.19637 16.5532 5.11861 16.1818 5.04821 15.9828C5.01909 16.0968 4.94629 16.4439 4.94629 16.4439L4.98757 16.978L5.18661 17.7109L5.37861 18.1909L5.56549 18.7783L5.72789 19.1728L5.85893 19.4738L5.97301 20.1511L6.52389 20.7335L6.81765 20.8647L7.03109 20.7554L7.03141 20.7552Z" fill="#F3E19D"/>
<path fill-rule="evenodd" clip-rule="evenodd" d="M5.46083 12.2275C5.46083 12.2275 5.06515 12.8995 4.95123 13.5769C4.83731 14.2544 4.73523 14.9702 4.80723 15.8925C4.88003 16.8222 5.01843 17.3925 5.13011 17.8003C5.32211 18.4776 5.81939 19.4193 5.81939 19.4193L5.83635 19.3829C5.75277 19.2244 5.68605 19.0576 5.63731 18.8853C5.57171 18.628 5.54739 18.3222 5.48675 18.1838C5.43331 18.0456 5.34355 17.9265 5.29987 17.7566C5.25859 17.5941 5.25187 17.3368 5.12515 17.1451C5.07171 17.0673 5.00611 16.8635 4.98675 16.6597C4.96243 16.3537 4.99891 16.0115 4.96979 15.7301C4.91635 15.2616 4.88003 14.9437 4.92851 14.6984C4.97699 14.4531 5.22963 13.7568 5.38499 13.2033C5.48691 12.8489 5.42611 12.5504 5.61299 12.2421C5.79987 11.9363 5.91411 11.6669 5.95523 11.48C6.00323 11.3101 5.46019 12.2275 5.46019 12.2275H5.46083Z" fill="#F2E8B0"/>
<path fill-rule="evenodd" clip-rule="evenodd" d="M7.33758 11.959C7.33758 11.959 7.13374 12.0198 7.03662 12.1265C6.9395 12.2284 6.89822 12.3134 6.76718 12.4857C6.63614 12.658 6.62878 12.7988 6.5219 13.0148C6.41518 13.226 6.17966 13.5439 6.15054 13.658C6.12142 13.7721 6.07294 14.306 6.0123 14.5585C5.95886 14.811 6.07294 15.1217 6.07294 15.1217L6.21118 15.0924C6.21118 15.0924 6.21118 15.2721 6.34958 15.3935C6.48782 15.5124 6.51214 14.9905 6.51214 14.9905L7.0291 13.2454L7.80814 12.7163L7.8931 12.2891L7.33726 11.959H7.33758Z" fill="#F5EEC0"/>
<path fill-rule="evenodd" clip-rule="evenodd" d="M7.71606 12.7501C7.71606 12.7501 7.3495 12.7743 7.16998 12.9055C7.09718 12.9588 7.06806 13.0025 6.99046 13.0681C6.84726 13.1869 6.7015 13.2962 6.63126 13.4521C6.5535 13.6073 6.46854 13.8428 6.4103 14.2869C6.38598 14.4738 6.38598 14.6461 6.36902 14.7967C6.3447 15.0005 6.30838 15.1631 6.32774 15.2767C6.35206 15.5097 6.59238 15.6311 6.61574 15.8956L7.11334 15.6433L7.58182 13.7961L8.57702 13.1721L8.01382 12.541L7.71542 12.749L7.71606 12.7501Z" fill="#E6DB9D"/>
<path fill-rule="evenodd" clip-rule="evenodd" d="M5.09098 25.1885C5.09306 25.1703 5.09514 25.1521 5.09722 25.1333C5.16986 24.5093 5.18218 24.0364 5.23546 23.7402C5.31306 23.3204 5.3665 23.1642 5.35434 23.0071C5.33738 22.7548 5.31802 22.5703 5.34234 22.3761C5.37866 22.1188 5.63114 21.813 5.62394 21.6018C5.61898 21.4343 5.53402 21.3252 5.46122 21.2233C5.38842 21.1213 5.33018 21.0364 5.33018 21.0364C5.33018 21.0364 5.82778 20.6941 5.82298 19.3154C5.83314 19.3183 5.84292 19.3224 5.8521 19.3276L6.09722 20.0241L6.26474 20.2279L6.90794 21.4269L7.73562 22.2305L8.95882 23.0532L9.72586 23.8879L9.80346 26.1137L8.80106 27.4146L8.6369 27.7119C7.33269 27.0572 6.13674 26.2061 5.09082 25.1884L5.09098 25.1885Z" fill="#E5CB7A"/>
<path fill-rule="evenodd" clip-rule="evenodd" d="M8.15283 27.3182C8.15283 27.3182 8.16979 27.0415 8.39795 26.8619C8.43443 26.9225 8.45859 26.9809 8.45139 27.0244C8.49267 26.9518 8.78147 26.4857 9.43443 26.3643C10.0874 26.2454 10.2452 25.7697 10.2452 25.7697L11.6309 24.51L13.2159 23.0513L15.1431 22.374L16.0437 22.1531C16.0437 22.1531 16.0607 22.2187 16.0268 22.3643C16.1941 22.3523 16.5655 22.2673 16.9514 22.1313C17.1068 22.0707 17.2525 22.0463 17.3301 22.1265C17.4442 22.2332 17.4612 22.4857 17.4684 22.6361C17.6552 22.5948 17.8712 22.4153 18.0444 22.4323C18.3212 22.4614 18.5663 22.7867 18.8479 22.7867C19.2192 22.7867 19.3866 22.5585 19.6464 22.3788C19.8018 22.2721 20.025 22.1388 20.1512 22.0487C20.4522 21.8278 23.6367 20.8545 23.6367 20.8545L24.7532 20.9273L24.9328 22.1263L24.8368 25.2607C24.825 25.2721 24.8132 25.2839 24.8012 25.2953L19.7247 27.9467L12.6879 29.0254C11.1116 28.7678 9.59048 28.2446 8.18931 27.478L8.15331 27.318L8.15283 27.3182Z" fill="#D8C173"/>
<path fill-rule="evenodd" clip-rule="evenodd" d="M5.51758 25.5872C5.61758 25.3781 5.7075 25.2032 5.72334 25.1406C5.73582 25.2667 5.7587 25.5433 5.80478 25.8374C5.70803 25.7552 5.6123 25.6717 5.51758 25.587V25.5872Z" fill="#F1D789"/>
<path fill-rule="evenodd" clip-rule="evenodd" d="M10.6579 28.5369L11.5679 28.2838L11.6455 28.3081C11.6455 28.3081 11.6868 28.3324 11.6868 28.4148C11.8009 28.3494 11.898 28.3614 11.9684 28.3178C12.0047 28.3954 12.0411 28.6527 12.2014 28.6842C12.3687 28.7207 12.5484 28.6114 12.7305 28.4732C12.91 28.33 13.1145 28.1503 13.2692 28.0775C13.326 28.1819 13.3763 28.2897 13.4198 28.4002C13.6236 28.2377 13.978 27.5775 14.4828 27.5895C14.6287 27.2447 14.8725 26.9502 15.1839 26.7425C15.6524 26.4246 15.946 26.4002 16.3126 26.4294C16.4582 26.2402 16.6376 26.0798 16.8417 25.9561C16.9023 25.9804 17.0699 26.0823 17.2787 25.9852C17.4899 25.8882 17.7276 25.5119 18.0407 25.4634C18.2095 25.4402 18.381 25.4762 18.5262 25.5654C18.5262 25.5654 19.4382 24.6599 20.0675 24.359C20.0431 24.2862 19.9947 24.0119 20.7324 23.405C20.7737 23.4415 20.7446 23.5434 20.7737 23.549C20.7857 23.549 20.9657 23.4714 21.1935 23.2966C21.4751 23.0855 21.8124 22.8646 22.0163 22.8039C22.4003 22.6898 22.8076 22.9228 22.8076 22.9228C22.8423 22.8985 22.8809 22.8804 22.9217 22.8694C23.0187 22.8524 23.0891 22.8402 23.1425 22.8214C23.1377 22.9476 23.2081 23.1636 23.1425 23.3505C23.2185 23.3932 23.299 23.4274 23.3825 23.4524C23.3414 23.5422 23.2515 23.7703 23.1011 23.8796C23.2271 23.9402 23.2441 24.0106 23.4238 24.0716C23.351 24.1735 23.2318 24.3484 23.1787 24.4556C23.1252 24.5697 22.9334 25.043 22.8484 25.2225C22.7587 25.4022 22.6374 25.7322 22.579 25.7985C22.5206 25.8647 22.3095 26.1455 22.147 26.2838C22.291 26.2303 22.8801 26.0508 23.13 25.9828C23.0556 26.0919 22.6785 26.6514 22.3159 27.1895C18.8042 29.2944 14.5565 29.7861 10.6567 28.5393L10.6579 28.5369Z" fill="#E0CD81"/>
<path fill-rule="evenodd" clip-rule="evenodd" d="M7.77589 12.6844C7.77589 12.6844 7.56485 12.6844 7.52357 12.7136C7.48229 12.7427 7.73477 12.8035 7.81237 12.8326C7.88997 12.8617 8.05749 12.9952 8.10117 13.102C8.14245 13.204 9.61813 13.7985 9.61813 13.7985L10.6618 13.7451L11.0217 13.248L10.3372 12.6484L10.8172 11.2334L10.1813 11.3353L8.65221 12.2473L7.88517 12.5411L7.77589 12.6844Z" fill="#DFC57C"/>
<path fill-rule="evenodd" clip-rule="evenodd" d="M10.0681 13.1531C10.0988 13.2028 10.1537 13.2324 10.2121 13.2307C10.4281 13.2307 10.627 13.2842 10.7096 13.3933C10.848 13.5682 11.2315 14.1264 11.2315 14.1264L12.1489 14.4565L12.2081 13.3762L11.2057 12.6797L10.0649 13.0995V13.153H10.0675L10.0681 13.1531Z" fill="#E5CC7C"/>
<path fill-rule="evenodd" clip-rule="evenodd" d="M9.88826 13.553C9.88826 13.553 10.0556 13.5652 10.2668 13.4874C10.478 13.4096 10.8251 13.2423 10.9756 13.3079C11.1867 13.3976 11.143 13.6792 11.3713 13.9319C11.5095 14.0872 11.762 14.0824 11.9052 14.25C12.0484 14.4175 12.5411 14.3397 12.5411 14.3397L12.7279 15.3477L11.978 16.309L11.7327 17.5031H10.7187L9.79226 17.1356L9.33594 16.0316L9.5641 14.9151L9.88826 13.553Z" fill="#D2C281"/>
<path fill-rule="evenodd" clip-rule="evenodd" d="M11.8498 13.6015C11.875 13.6092 11.9011 13.6133 11.9274 13.6136C11.8983 13.638 11.8375 13.6912 11.8618 13.8296C11.8861 13.968 11.9637 14.1428 11.8983 14.2495C11.9505 14.3066 11.9895 14.3746 12.0124 14.4485C12.0536 14.5676 12.0658 14.6767 12.3351 14.6938C12.2962 14.7177 12.2604 14.7462 12.2284 14.7788C12.2284 14.7788 12.4152 14.9413 12.51 15.0917C12.6069 15.0876 12.8642 15.0076 12.8642 15.0076L12.9176 15.044L13.0317 14.996C13.0317 14.996 12.925 14.9548 13.0026 14.6951C13.0754 14.4669 13.141 14.4791 13.1466 14.4621C13.1522 14.4452 13.2 14.2048 13.2 14.1077C13.2364 13.9816 13.2655 13.5981 13.2655 13.5981L13.1879 12.7511L12.7511 12.4864L12.3959 12.1436L12.0608 12.7746L11.8402 12.9946L11.8232 13.5407L11.8498 13.6015Z" fill="#E2C270"/>
<path fill-rule="evenodd" clip-rule="evenodd" d="M12.9004 12.8934C12.9004 12.8934 12.978 13.1142 13.0073 13.2841C13.0176 13.2511 13.0233 13.2168 13.0242 13.1822C13.0242 13.1822 13.0849 13.5172 13.0969 13.6556C13.1212 13.6507 13.1449 13.6435 13.1503 13.6676C13.1558 13.6918 13.2111 13.9614 13.1983 14.1118C13.2994 13.945 13.4392 13.8052 13.606 13.7041C13.7031 13.6433 13.8172 13.5779 13.9362 13.5729C14.1231 13.5681 14.259 13.6919 14.4823 13.6919C15.021 13.6919 15.509 13.2963 15.8682 13.175C16.1327 13.0851 16.3609 13.0196 16.521 12.8739C16.5988 12.8084 16.7372 12.6628 16.8633 12.4467C17.0308 12.1587 17.2055 11.9079 17.3804 11.8764C17.3013 11.891 17.2208 11.8967 17.1404 11.8934C17.1404 11.8934 17.1938 11.8399 17.2844 11.7671C17.375 11.6943 17.4834 11.6046 17.6386 11.6046C17.9154 11.6046 18.0537 11.6457 18.209 11.6457C18.3644 11.6409 18.4542 11.6046 18.4542 11.6046C18.4542 11.6046 18.6169 11.7187 18.9833 11.7187C19.3498 11.7235 19.595 11.755 19.7868 11.7721C19.9786 11.7892 20.6217 11.7187 20.8062 11.7241C20.9264 11.7287 21.0445 11.7576 21.1534 11.8091L20.5586 10.0811L18.4223 8.21387L17.1505 9.11435L15.194 11.0707L13.3009 11.7721L12.9052 12.2163V12.8934H12.9004Z" fill="#CCB360"/>
<path fill-rule="evenodd" clip-rule="evenodd" d="M17.1483 11.9029C17.1483 11.9029 17.2017 11.8496 17.2913 11.7768C17.3809 11.704 17.4905 11.6141 17.6457 11.6141C17.9223 11.6141 18.0607 11.6554 18.2161 11.6554C18.3715 11.6506 18.4612 11.6141 18.4612 11.6141C18.4612 11.6141 18.6241 11.728 18.9903 11.728C19.3569 11.7328 19.602 11.7644 19.7939 11.7813C19.9857 11.7983 20.6287 11.728 20.8132 11.7333C20.9335 11.7378 21.0515 11.7667 21.1603 11.8183L20.8908 11.0391L20.5779 10.4445L19.6846 9.46628C19.6846 9.46628 18.6126 8.83524 18.6044 8.83044C18.5996 8.82564 18.2331 8.72852 18.2331 8.72852L17.2622 9.31588L16.3812 11.5951L16.3643 12.0751L16.9345 12.3445C17.0777 12.1045 17.2356 11.9125 17.3836 11.8882C17.25 11.9028 17.1481 11.9028 17.1481 11.9028L17.1483 11.9029Z" fill="#D5B457"/>
<path fill-rule="evenodd" clip-rule="evenodd" d="M17.1363 12.066C17.0514 12.0708 16.9811 12.0538 16.9616 11.9932C16.8888 11.7893 16.8306 11.7602 16.7696 11.7602C16.7086 11.7602 16.6264 11.8912 16.5776 11.9032C16.5288 11.9152 16.4709 11.7528 16.4709 11.7528L16.4174 11.7285C16.4174 11.7285 16.1043 11.9324 15.8835 12.1727C15.6627 12.413 15.301 12.8208 15.1384 12.8935C14.9758 12.9661 14.4174 12.9906 14.2264 13.0319C14.0354 13.0732 13.8235 13.2116 13.7944 13.2431C13.7653 13.2746 13.8795 13.3085 13.8965 13.34C13.9134 13.3692 13.7094 13.357 13.6925 13.388C13.6805 13.4124 13.7405 13.5506 13.7702 13.621C13.8223 13.5951 13.8795 13.581 13.9376 13.5797C14.1245 13.5749 14.2605 13.6988 14.4837 13.6988C15.0226 13.6988 15.5104 13.3031 15.8696 13.1816C16.1342 13.0919 16.3624 13.0263 16.5226 12.8807C16.6002 12.8152 16.7386 12.6695 16.8648 12.4535C16.957 12.3055 17.0469 12.1671 17.1368 12.0652L17.1363 12.066Z" fill="#D2B257"/>
<path fill-rule="evenodd" clip-rule="evenodd" d="M9.40791 24.0774C9.40791 24.0774 9.35991 23.8978 8.91511 23.4342C8.78887 23.3032 8.71127 23.1942 8.62631 23.1163C8.41511 22.9171 8.29127 22.8638 8.14087 22.7498C7.81079 22.5046 7.45159 22.5046 7.17495 22.2037C6.89831 21.9027 6.57591 21.3277 6.35191 20.74C6.13111 20.1526 6.07031 19.9658 6.07031 19.9488C6.07031 19.9318 6.13111 19.8178 6.20871 19.8347C6.28631 19.8517 6.28631 20.0021 6.30583 20.0386C6.34449 20.0981 6.38835 20.1541 6.43687 20.2059C6.55095 20.3371 6.71351 20.4939 6.79607 20.7278C6.77911 20.5288 6.71111 20.308 6.71111 20.308C6.71111 20.308 7.13831 20.5774 7.50231 20.8589C7.86887 21.1405 8.01927 21.2376 8.12631 21.4171C8.23335 21.5966 8.48551 22.0701 8.60631 22.2085C8.72711 22.3469 10.3823 22.8686 10.3823 22.8686L11.1697 23.4557L11.5606 24.3125L11.2546 24.7925L10.6673 24.9187L9.71335 24.4915L9.40791 24.0773V24.0774Z" fill="#D2B159"/>
<path fill-rule="evenodd" clip-rule="evenodd" d="M7.28857 21.1261C7.28857 21.1261 7.48761 21.444 7.97305 21.7449C8.41001 22.0096 9.10169 22.2499 9.71833 22.3931C10.0726 22.4781 10.427 22.5435 10.7449 22.5485C11.6017 22.5605 12.1915 22.3155 12.9222 22.2353C13.3179 22.1941 13.8033 22.1625 14.3081 22.0433C14.9561 21.888 15.3396 21.7131 15.8615 21.4673C16.2401 21.2926 16.5873 21.1616 16.8687 20.9941C17.2644 20.7611 17.5532 20.5014 17.8883 20.4238C17.847 20.5379 17.8033 20.7417 17.4732 20.9529C17.6479 20.948 17.8883 20.936 17.8883 20.936C17.8883 20.936 17.6553 21.0742 17.2451 21.3849C16.9926 21.5769 16.6577 21.9019 16.3155 22.1179C16.0945 22.2563 15.8542 22.3579 15.6964 22.4408C15.3124 22.652 15.1575 22.7587 14.9052 23.0168C14.995 23.012 15.0023 23.0168 15.0023 23.0168C15.0023 23.0168 14.6843 23.0581 14.4563 23.1793C14.4083 23.1793 14.3251 23.1624 14.1795 23.2037C14.0654 23.24 13.9148 23.3227 13.7596 23.3662C13.5387 23.4318 13.466 23.4027 13.466 23.4027L13.5023 23.4755C13.5023 23.4755 13.2143 23.4705 13.1183 23.4803C13.1353 23.4851 13.1305 23.4925 13.1305 23.4925C13.1136 23.4953 13.0974 23.501 13.0825 23.5094C13.0363 23.5394 12.9855 23.5615 12.9321 23.5749C12.903 23.5797 12.8787 23.5797 12.8422 23.587C12.8543 23.6161 12.9491 23.779 12.9927 23.875C12.9564 23.8993 12.4102 24.312 12.4102 24.312C12.4271 24.3386 12.441 24.3672 12.4515 24.3969C12.4684 24.4502 12.4758 24.528 12.4927 24.5643C12.5339 24.6371 12.5582 24.6493 12.5582 24.6493C12.5582 24.6493 12.4927 24.6614 12.3785 24.6905C12.2815 24.7149 12.1625 24.756 11.9945 24.7803C11.9429 24.787 11.8911 24.7911 11.8391 24.7925C11.8635 24.8459 11.9702 25.0497 11.7735 25.2851C11.5769 25.5205 11.5163 25.5547 11.4556 25.7051C11.4251 25.682 11.3926 25.6617 11.3585 25.6443C11.2931 25.6152 11.2031 25.5717 11.1716 25.5133C11.1532 25.5911 11.1289 25.6674 11.0988 25.7414C11.0382 25.904 10.9484 26.0643 10.9315 26.1856C10.8659 26.1128 10.7446 25.9696 10.5771 25.9987C10.4095 26.0278 10.2761 26.256 10.247 26.3216C10.247 26.2803 10.2179 26.2488 10.2107 26.2973C10.2057 26.3507 10.1135 26.9088 9.59897 27.3603C9.59417 27.2462 9.59417 26.9937 9.58201 26.9113C9.53401 26.9593 9.47529 27.0302 9.12569 27.1808C8.78345 27.3312 8.83769 27.4817 8.83769 27.4817C8.83769 27.4817 8.80857 27.2417 8.99305 26.9889C9.17993 26.7366 9.29401 26.6176 9.29401 26.5982C9.291 26.5785 9.28258 26.56 9.26969 26.5448C9.24537 26.5205 9.19689 26.4913 9.19689 26.472C9.22601 26.46 9.51481 26.3216 9.49785 26.035C9.48089 25.7779 9.37177 25.6443 9.29401 25.5497C9.28201 25.5376 9.40825 25.4478 9.39113 25.4187C9.37897 25.4017 9.22377 25.2875 9.20425 25.2267C9.20884 25.1904 9.21699 25.1547 9.22857 25.12C9.24553 25.0665 9.25769 25.0301 9.25289 24.9937C9.24073 24.9331 9.17513 24.7656 9.15577 24.7486C9.17273 24.7534 9.29401 24.7486 9.29401 24.7486C9.29401 24.7486 9.19705 24.5933 9.17993 24.5205C9.16281 24.4477 9.12649 24.2558 9.10713 24.2195C9.14841 24.2243 9.25033 24.2315 9.25033 24.2195C9.25529 24.183 9.16057 24.1224 9.20233 24.0755C9.23145 24.0803 9.28729 24.1046 9.34057 24.1726C9.31145 24.0949 9.26297 23.9445 9.16089 23.8838C9.20889 23.8669 9.37209 23.823 9.51529 23.908C9.65849 23.9929 9.70729 24.1118 9.70729 24.1118C9.70729 24.1118 9.79225 24.1774 9.92345 24.2745C10.0739 24.3934 10.2655 24.5625 10.5715 24.6822C10.6371 24.7187 10.8044 24.7187 10.9259 24.6944C10.9787 24.6818 11.0294 24.6613 11.0763 24.6337C11.0932 24.6238 11.1111 24.6156 11.1297 24.6094C11.1036 24.5571 11.0736 24.5067 11.0399 24.4589C11.0812 24.4589 11.1297 24.4638 11.1297 24.4638C11.1297 24.4638 11.1588 24.3982 11.0278 24.2718C11.0569 24.2427 11.0934 24.2238 11.0934 24.1747C11.0521 24.1699 10.9793 24.1093 10.9623 24.0849C10.9865 24.068 11.023 24.0121 11.0643 23.9952C11.0278 23.9661 10.938 23.8446 10.8967 23.8326C10.9362 23.818 10.9743 23.8001 11.0108 23.7792C11.0108 23.7792 10.807 23.7257 10.7414 23.6821C10.6758 23.6341 10.5788 23.551 10.5206 23.5267C10.4598 23.5024 10.3531 23.4904 10.3094 23.4417C10.3505 23.4539 10.4161 23.4417 10.4647 23.4417C10.5011 23.4417 10.5182 23.4465 10.5302 23.4465C10.5254 23.4296 10.5254 23.3931 10.6201 23.3811C10.6657 23.3742 10.7099 23.3603 10.7511 23.3398C10.7511 23.3398 10.6612 23.335 10.5591 23.2379C10.4571 23.1408 10.3723 23.0632 10.314 23.051C10.2534 23.0389 10.1393 23.0923 10.0689 23.0873C9.97177 23.0753 9.93049 23.0267 9.93049 23.0267C9.93049 23.0267 9.60777 23.0558 8.89177 22.619C8.27273 22.2403 8.00329 21.9054 8.00329 21.9054C7.94536 21.8844 7.88936 21.8584 7.83593 21.8277C7.60297 21.7064 7.28009 21.4539 7.28985 21.1237L7.28857 21.1261Z" fill="#C2A44D"/>
<path fill-rule="evenodd" clip-rule="evenodd" d="M16.2183 6.5584C16.2745 6.57664 16.3244 6.61029 16.3623 6.65552C16.4764 6.78656 16.5492 7.03408 16.2895 7.29872C16.3914 7.33504 16.4335 7.34672 16.5225 7.33504C16.4327 7.44192 16.2289 7.67008 16.2167 7.86912C16.2045 8.03168 16.3065 8.08032 16.3065 8.08032C16.3065 8.08032 16.1511 8.25984 16.1439 8.56032C16.2173 8.47758 16.2976 8.40125 16.3839 8.33216C16.5636 8.18896 16.8111 8.0264 16.9786 7.92448C16.9763 7.96719 16.9821 8.00996 16.9956 8.05056C16.9956 8.05056 17.3085 7.79328 17.5716 7.90752C17.6905 7.96096 17.637 8.12832 17.637 8.12832C17.637 8.12832 17.7997 8.06768 17.9138 8.18176C18.0279 8.29584 18.1892 8.59008 18.2719 8.70416C18.3082 8.7576 18.4029 8.85952 18.4999 9.01728C18.6324 9.23815 18.743 9.47141 18.8301 9.71376C18.8349 9.58752 18.8665 9.39104 19.2258 9.51472C19.585 9.64096 19.9927 9.9056 20.3349 10.4267C20.6772 10.9478 20.762 11.5362 20.9343 11.7602C21.109 11.9762 21.2887 12.3354 21.3009 12.4859C21.313 12.6365 21.2474 13.1218 21.6066 14.4349C21.7085 14.0272 21.8639 13.1218 21.8639 13.1218L21.9489 12.3232L22.046 9.85232L19.4658 7.7088L17.4489 6.24512L16.1357 6.37136L16.2181 6.55824L16.2183 6.5584Z" fill="#CAA13E"/>
<path fill-rule="evenodd" clip-rule="evenodd" d="M21.0121 10.2357C21.0121 10.2357 20.9756 9.9957 20.3689 9.5877C19.762 9.18482 19.2887 9.18482 18.8519 8.84258C18.5169 8.57314 18.1674 7.9541 17.9399 7.75026C17.7189 7.54882 17.6826 6.96626 17.6826 6.96626L18.4277 6.34226L19.5359 4.7405L20.4727 3.70898L20.9217 4.33298L21.5457 5.06594L21.8927 6.53682L22.0189 8.68978L21.0109 10.2359L21.0121 10.2357Z" fill="#B59544"/>
<path fill-rule="evenodd" clip-rule="evenodd" d="M21.7624 12.8161C21.7808 12.4896 21.7405 12.1624 21.6434 11.8501C21.4834 11.3525 21.1338 10.469 20.9714 10.1381C20.9058 9.77159 20.9544 9.74247 21.0248 9.70119C21.0952 9.65991 21.3599 9.50919 21.5048 8.98039C21.6498 8.45159 22.0995 8.43431 22.0995 8.43431L22.3762 8.23047L22.7962 9.28135L23.1626 10.2305L23.2767 10.9562L23.3616 11.5751L23.1626 12.8834L22.1797 13.7717L21.7623 12.8161H21.7624Z" fill="#C89D3A"/>
<path fill-rule="evenodd" clip-rule="evenodd" d="M8.04639 27.3987V27.3718C8.06681 27.359 8.08484 27.3428 8.09967 27.3238C8.11663 27.2995 8.12895 27.2704 8.14095 27.2632C8.16527 27.251 8.27935 27.2152 8.33999 27.2267C8.40063 27.2382 8.56095 27.3043 8.64591 27.2995C8.82063 27.2947 9.02447 27.1611 9.34735 27.2219C9.83279 27.3116 9.94687 27.6417 10.2285 27.8286C10.4205 27.9598 10.6192 27.9014 10.6483 27.9014H10.7137C10.7259 27.9014 10.8157 27.7995 10.8643 27.8044C10.9614 27.8092 10.971 27.8894 11.0317 27.8942C11.1749 27.9112 11.4517 27.8214 11.5901 27.8579C11.6734 27.884 11.7386 27.9492 11.7648 28.0324C11.7939 28.1222 11.7696 28.2363 11.6992 28.3019C11.5488 28.4401 11.4056 28.5713 11.3765 28.6859C11.4135 28.7141 11.4491 28.7442 11.483 28.7761C10.2821 28.4701 9.12664 28.0075 8.04639 27.4001V27.3987Z" fill="#CEB052"/>
<path fill-rule="evenodd" clip-rule="evenodd" d="M20.9712 22.5482C20.9712 22.5482 21.3498 22.0434 21.481 21.7933C21.612 21.5356 21.0659 18.2716 21.0659 18.2716L22.163 14.677L22.1338 13.5071C22.1338 13.5071 22.1872 12.4269 22.3134 11.9585C22.464 12.2279 22.9325 12.5532 23.0344 12.7255C23.0824 12.3953 23.2454 11.6988 23.2213 10.9561C23.311 11.0943 23.527 12.4852 23.527 12.4852L23.743 13.422L24.0246 14.4172L24.3378 15.4682L24.5246 16.194L24.6314 16.3687L24.7213 16.6745L24.8062 17.0047L25.0514 17.7789L25.1954 18.4148L25.3094 19.5677C25.3342 19.656 25.3521 19.7461 25.3629 19.8372C25.3677 19.9634 25.3459 20.0362 25.3459 20.0581C25.3459 20.0801 25.3872 20.3348 25.3702 20.5266C25.3459 20.7186 25.3459 20.8689 25.1954 21.0066C25.0448 21.1444 24.9502 21.9677 24.9502 21.9677L24.6808 21.7882C24.6808 21.7882 24.7342 21.5429 24.608 21.3197C24.4818 21.0965 24.2366 21.0503 24.0982 21.0868C23.96 21.1159 23.6834 21.1594 23.5934 21.2372C23.5085 21.3148 23.2998 21.5551 23.108 21.6644C22.868 21.8084 22.477 21.8197 22.2683 21.8682C22.0571 21.9162 21.8242 22.0602 21.5789 22.2274C21.3866 22.3519 21.1835 22.459 20.9722 22.5474L20.9712 22.5482Z" fill="#CCA847"/>
<path fill-rule="evenodd" clip-rule="evenodd" d="M20.9712 27.8521C20.9712 27.8521 20.9872 27.8625 21.0181 27.8794C22.7425 27.0715 24.2876 25.9263 25.5621 24.5114C25.5482 24.0202 25.5301 23.5167 25.5102 23.3302C25.4691 22.9345 25.4982 22.5316 25.4861 22.2986C25.4739 22.0657 25.3429 21.1166 25.2822 20.8714C25.2166 20.6263 25.0902 20.5049 25.071 20.5049C25.0541 20.5098 24.952 20.9662 24.952 21.0809C24.952 21.1956 24.9277 21.4718 24.9277 21.5422C24.9107 21.5372 24.9035 21.4942 24.9035 21.4766C24.8792 21.5372 24.8501 21.6441 24.8379 21.6562C24.8258 21.6684 24.8549 21.5543 24.8379 21.53C24.821 21.5057 24.7899 21.5178 24.7966 21.4572C24.7995 21.4212 24.8052 21.3856 24.8136 21.3505C24.8136 21.3505 24.7408 21.4572 24.6875 21.729C24.6341 21.9985 24.6341 22.0058 24.6147 22.03C24.5978 22.0593 24.5006 22.1562 24.4957 22.1927C24.4909 22.2582 24.5856 22.3238 24.5928 22.3601C24.5976 22.4209 24.5078 22.7023 24.4787 22.8401C24.4496 22.9778 24.4618 23.2478 24.4307 23.3862C24.4064 23.5124 24.3827 23.5852 24.2997 23.6385C24.3603 23.6506 24.4186 23.6676 24.4186 23.6676C24.4186 23.6676 24.5035 24.0268 24.2875 24.3327C24.2099 24.4394 24.1906 24.4881 24.108 24.5852C23.9453 24.7647 23.819 24.9692 23.8069 25.1022C23.7985 25.0629 23.7928 25.0231 23.7899 24.9831C23.7899 24.9831 23.5376 25.2769 23.4307 25.4444C23.2925 25.6604 23.1006 25.6482 23.0467 25.7017C22.9928 25.7551 22.9811 25.8521 22.9987 25.9298C22.9507 25.9418 22.8605 25.959 22.7997 26.1458C22.7706 26.2428 22.6978 26.3378 22.5837 26.4031C22.4696 26.4684 22.3312 26.4881 22.2608 26.505C22.3214 26.522 22.3458 26.522 22.3749 26.5414C22.3386 26.602 22.171 26.6967 21.9842 26.8182C21.7973 26.9322 21.7074 27.0996 21.6613 27.2089C21.6133 27.3108 21.5424 27.3764 21.4283 27.3886C21.4763 27.4177 21.5474 27.4855 21.5837 27.5074C21.5302 27.5196 21.4397 27.5196 21.2779 27.658C21.108 27.7988 21.0498 27.8401 20.972 27.8522L20.9712 27.8521Z" fill="#C39D3C"/>
<path fill-rule="evenodd" clip-rule="evenodd" d="M17.5936 28.9769C17.6865 28.9117 17.7872 28.8584 17.8933 28.818C18.2718 28.6676 18.6723 28.6385 18.8301 28.59C18.9806 28.542 19.0995 28.4758 19.2864 28.4395C19.2814 28.482 19.2773 28.522 19.2728 28.5598C18.7218 28.733 18.1608 28.8723 17.5928 28.9769H17.5936Z" fill="#D2BA6B"/>
<path fill-rule="evenodd" clip-rule="evenodd" d="M24.5761 19.019C24.5761 19.019 24.4985 19.4389 24.3601 19.7035C24.2217 19.9681 24.0721 20.3345 24.0721 20.3345C24.073 20.252 24.0827 20.1697 24.1012 20.0893C23.9265 20.1912 23.5017 20.4365 23.3812 20.5456C23.2671 20.6475 23.0753 20.8272 23.0268 20.9121C23.1409 20.5773 23.2598 20.2763 23.2793 20.1379C23.1046 20.2641 22.2889 20.9365 21.8642 21.3806L20.5414 22.451C20.3887 22.5334 20.2315 22.607 20.0705 22.6715C19.8425 22.7685 19.573 22.851 19.374 22.9288C19.4274 22.7856 19.5122 22.6592 19.6313 22.5379C19.7575 22.419 20.1361 22.0088 20.1943 21.8179C20.2478 21.6189 20.2599 21.5 20.1895 21.3325C20.1239 21.3494 19.9735 21.3568 19.8716 21.3859C19.7697 21.415 19.6604 21.5241 19.6604 21.5241C19.6604 21.5241 19.738 21.08 19.9055 20.6601C19.7793 20.6649 19.5633 20.7013 19.5633 20.7013C19.5633 20.7013 19.8642 20.1965 20.3793 19.8446C20.2215 19.8782 20.0672 19.9261 19.9182 19.9877C19.6172 20.1139 19.2871 20.3008 19.042 20.4027C19.1802 20.2107 20.1511 18.8251 20.7289 17.5337C21.3049 16.2449 21.5201 15.9149 21.6463 15.2232C21.7118 14.8809 21.6943 14.3752 21.7118 13.9222C21.7287 13.4731 21.7846 13.0702 21.7482 12.8008C21.8986 12.9877 22.4618 13.5144 22.4812 14.6917C22.4982 15.8688 21.9425 17.4587 21.3526 18.3153C21.4966 18.3566 21.8697 18.4053 22.253 17.7393C22.6364 17.0734 22.6318 16.8875 22.7702 16.6107C22.7871 16.7491 22.7822 16.7976 22.7822 16.7976C22.7822 16.7976 23.3406 16.1205 23.605 15.2685C23.6585 15.635 23.8162 15.9579 23.5686 16.6302C23.3478 17.2369 23.059 17.3851 23.059 17.3851C23.059 17.3851 23.2022 17.3608 23.4132 17.2345C23.4497 17.3243 23.4425 17.4265 23.5031 17.4627C23.5638 17.4989 23.6463 17.5598 23.6585 17.6181C23.7239 17.5209 23.8258 17.3971 23.8575 17.3049C23.8332 17.4969 23.8162 18.3365 23.9055 18.7637C24.0926 18.7467 24.2842 18.7345 24.4153 18.3971C24.3255 18.7273 24.3255 18.9262 24.3862 19.2078C24.4857 19.14 24.5754 19.0185 24.5754 19.0185L24.5761 19.019Z" fill="#C0993A"/>
<path fill-rule="evenodd" clip-rule="evenodd" d="M18.2691 5.64045C18.2691 5.64045 18.0822 5.71805 17.7643 5.71805C17.4876 5.71805 17.5652 5.61133 17.1332 5.61133C16.4683 5.61133 14.1454 5.99533 13.7376 5.98989C13.4729 5.98509 14.6307 6.10397 14.6307 6.10397L17.5896 6.14525L18.1841 6.09725L18.4051 5.64765L18.2691 5.64045Z" fill="#A88F33"/>
<path fill-rule="evenodd" clip-rule="evenodd" d="M10.5969 11.425C10.5969 11.425 10.2182 11.7138 10.0581 11.9348C9.8979 12.1557 9.81294 12.3012 9.63086 12.4809C9.6736 12.4825 9.7163 12.4768 9.7571 12.4639C9.7571 12.4639 9.7571 12.5119 9.72798 12.5245C9.77894 12.5188 9.82975 12.5365 9.86622 12.5725C9.81278 12.6017 9.66718 12.7474 9.78126 12.9197C9.86622 13.0508 10.0459 13.0628 10.0459 13.0628C10.0459 13.0628 10.0046 13.1818 10.1769 13.1697C10.5483 13.1527 10.9633 12.99 11.155 13.0313C11.347 13.0793 11.4561 13.0969 11.592 13.3324C11.736 13.5653 11.8614 13.6018 11.8614 13.6018C11.8614 13.6018 11.9464 13.3857 11.927 13.0629C11.9967 12.889 12.0353 12.7042 12.0411 12.5169L11.9149 11.5873L11.364 10.8906L10.6504 11.2863L10.5969 11.4245V11.425Z" fill="#E3C571"/>
<path fill-rule="evenodd" clip-rule="evenodd" d="M11.2744 11.2858C11.2744 11.2858 11.3279 11.412 11.5512 11.424C11.5269 11.4774 11.5269 11.4848 11.5343 11.5259C11.5391 11.5672 11.5463 11.6278 11.5463 11.6278C11.5708 11.6159 11.5931 11.5997 11.6119 11.5798C11.624 11.6333 11.5997 11.7181 11.6119 11.7789C11.6194 11.8159 11.6316 11.8517 11.6482 11.8856C11.6517 11.8773 11.6558 11.8692 11.6603 11.8614C11.6651 11.8493 11.7083 11.9925 11.8279 12.1014C11.8277 12.0847 11.8319 12.0682 11.8399 12.0534C11.8417 12.0839 11.8518 12.1132 11.869 12.1384C11.86 12.1341 11.8519 12.1284 11.8448 12.1214C11.8448 12.1214 11.8568 12.5054 11.9224 12.704C11.9334 12.6912 11.9431 12.6773 11.9515 12.6627C11.9515 12.6507 11.9467 12.7696 11.9346 12.8547C11.9176 12.9397 11.9298 13.0586 11.9298 13.0586C11.9735 13.0241 12.0216 12.9955 12.0728 12.9736C12.1456 12.9443 12.2648 12.8546 12.3375 12.6555C12.3796 12.5428 12.4121 12.4267 12.4346 12.3085C12.458 12.3537 12.4742 12.4023 12.4826 12.4525C12.4875 12.5131 12.6016 12.4816 12.6016 12.4816L12.6259 12.217L12.7699 11.6174L12.901 11.2461L13.532 10.2632L14.6722 9.38512L15.6674 9.61328L16.5071 8.47248L15.0605 7.60352L13.6915 7.74672L12.4491 9.46752L11.4541 11.0283L11.2744 11.2856L11.2744 11.2858Z" fill="#D8B65B"/>
<path fill-rule="evenodd" clip-rule="evenodd" d="M18.4439 8.79611C18.4439 8.79611 18.3589 8.81307 18.1138 8.94011C17.8687 9.06715 17.6988 9.10747 17.6041 9.29435C17.5093 9.48123 17.5021 9.62939 17.5021 9.62939C17.5021 9.62939 17.6697 9.55659 17.7668 9.53227C17.8687 9.50811 17.9828 9.51531 17.9706 9.55659C17.9589 9.5849 17.9427 9.61111 17.9226 9.63419C17.9226 9.63419 18.1146 9.62939 18.1095 9.72411C18.1044 9.81883 18.0732 9.92315 18.0369 9.96923C18.0004 10.0172 17.85 10.0883 17.833 10.1441C17.7917 10.2582 17.85 10.263 17.8281 10.3551C17.8111 10.4451 17.7311 10.6198 17.4689 10.9255C17.1994 11.2315 17.0849 11.4475 17.0849 11.4475C17.0849 11.4475 16.9538 11.2023 16.8858 10.9911C16.8378 11.0153 16.5801 11.1585 16.5801 11.1585L15.9829 9.07851L15.9949 8.94011C15.9949 8.94011 16.0484 8.87467 16.0605 8.75323C15.9708 8.72411 15.9586 8.69979 15.8396 8.58587C15.7205 8.47195 15.6236 8.33339 15.4247 8.23867C15.3956 8.18523 15.3591 8.11259 15.2135 8.08331C15.0679 8.05403 14.9805 8.03003 14.9805 8.03003C14.9805 8.03003 15.0581 8.00075 15.0946 7.94011C15.0047 7.95227 14.9321 7.98139 14.7354 7.97659C14.5364 7.97163 14.5145 7.96443 14.4053 7.98139C14.2962 7.99835 14.1653 8.04699 14.1165 7.87947C14.0631 7.83819 13.949 7.87467 13.8519 8.01771C13.7548 8.16075 13.7209 8.27499 13.534 8.33083C13.5208 8.41321 13.492 8.49229 13.449 8.56379C13.3956 8.65371 13.3106 8.74347 13.1965 8.87691C13.0169 9.08811 13.046 9.43515 12.7596 9.69979C12.4708 9.96427 12.8076 8.96667 12.8076 8.96667L13.2687 7.86267L14.5818 6.57867L16.6207 6.44043L16.8197 7.49643L17.8149 7.83867L18.4436 8.79739L18.4439 8.79611Z" fill="#D3AE4D"/>
<path fill-rule="evenodd" clip-rule="evenodd" d="M18.7671 9.02914L17.9103 7.79378L17.3108 7.3325C17.3108 7.3325 16.8836 6.54626 16.8544 6.52194C16.8301 6.50498 16.4272 6.4613 16.17 6.44434L16.218 6.56322C16.2741 6.58146 16.324 6.61511 16.362 6.66034C16.476 6.79138 16.5488 7.0389 16.2892 7.30354C16.3911 7.33986 16.4332 7.35154 16.5221 7.33986C16.4324 7.44674 16.2285 7.6749 16.2164 7.87394C16.2042 8.0365 16.3061 8.08498 16.3061 8.08498C16.3061 8.08498 16.1508 8.26466 16.1436 8.56498C16.2169 8.48224 16.2972 8.40591 16.3836 8.33682C16.5632 8.19282 16.8108 8.0309 16.9783 7.92898C16.976 7.97175 16.9817 8.01457 16.9952 8.05522C16.9952 8.05522 17.3082 7.79794 17.5712 7.91202C17.6901 7.96546 17.6367 8.13298 17.6367 8.13298C17.6367 8.13298 17.7994 8.07234 17.9135 8.18642C18.0276 8.3005 18.1901 8.5941 18.2727 8.70834C18.309 8.76178 18.4037 8.8637 18.5007 9.0213C18.6332 9.24221 18.7438 9.47553 18.8309 9.71794C18.8357 9.62082 18.8552 9.48498 19.0229 9.48498L18.768 9.02866L18.7671 9.02914Z" fill="#CAA13E"/>
<path fill-rule="evenodd" clip-rule="evenodd" d="M5.92246 12.5386C5.92246 12.5386 5.86182 12.388 5.92246 12.0944C5.9831 11.8008 6.07782 11.6624 6.10934 11.2304C6.14086 10.7984 6.42246 10.2595 6.42246 10.2595L7.2015 9.90527L7.75254 10.0557L7.9151 10.7936L7.21846 11.1776C7.21846 11.1776 7.18214 11.3402 6.9855 11.4712C6.78886 11.6022 6.51702 11.7042 6.45158 11.8378C6.41246 11.9196 6.38391 12.006 6.36662 12.095C6.36662 12.095 6.16758 12.0538 6.0487 12.1848C5.92246 12.3184 5.92726 12.4373 5.92246 12.5392V12.5386Z" fill="#F4EFC8"/>
<path fill-rule="evenodd" clip-rule="evenodd" d="M7.49515 12.3418C7.49515 12.3418 7.42955 12.3831 7.38107 12.4858C7.33307 12.4082 7.21835 11.947 7.21355 11.5319C7.20875 11.1169 7.18395 11.014 7.27995 10.871C7.37595 10.7279 7.75243 10.5772 7.69899 10.3196C7.64555 10.0745 7.42219 9.97256 7.14795 10.043C6.95595 10.091 6.81307 10.4993 6.61403 10.7031C6.46347 10.8585 6.28395 10.8342 6.23547 10.9191C6.16987 11.0332 6.23051 11.1473 6.21115 11.2201C6.20619 11.2444 6.14555 11.3754 6.03627 11.5332C5.81547 11.8511 5.44171 12.3002 5.39307 12.7031C5.41003 12.475 5.39803 12.4702 5.45867 12.2177L5.42219 12.157L5.66219 11.3706L5.81755 10.7226L6.16475 9.63752L6.77627 8.5284L7.37099 7.86328L7.98987 7.90456L8.06267 8.83416L8.41707 10.5794L9.16219 11.4969L7.96795 12.3006L7.49467 12.3418H7.49515Z" fill="#EBCC73"/>
<path fill-rule="evenodd" clip-rule="evenodd" d="M7.8663 12.6724C7.8663 12.6724 7.76438 12.6967 7.7279 12.6774C7.69142 12.658 7.65526 12.6361 7.66726 12.6118C7.67926 12.5875 7.74486 12.5463 7.74486 12.5268C7.74766 12.4901 7.72079 12.4579 7.68422 12.454C7.62838 12.4468 7.61142 12.4831 7.61142 12.4831C7.61142 12.4831 7.55798 12.442 7.51446 12.4351C7.54021 12.432 7.56612 12.4303 7.59206 12.4302C7.52499 12.3998 7.45384 12.3794 7.38086 12.3695C7.4415 12.3332 7.56054 12.2263 7.63814 12.2263C7.71574 12.2263 7.76438 12.2143 7.75222 12.1731C7.74006 12.1318 7.67942 12.0711 7.61398 12.0468C7.63814 12.0177 7.65526 11.974 7.59702 11.8548C7.53622 11.7359 7.56054 11.6558 7.58006 11.6268C7.59702 11.5903 7.65766 11.5249 7.68678 11.4836C7.7159 11.4423 7.74022 11.3865 7.7887 11.3574C7.81302 11.3404 7.89062 11.3094 7.96838 11.2798C8.05334 11.2507 8.12374 11.2142 8.17222 11.2507C8.22566 11.287 8.20134 11.3356 8.20134 11.3356C8.20134 11.3356 8.36886 11.2748 8.51926 11.3526C8.66982 11.4252 9.03638 11.4715 9.03638 11.4715L9.16774 11.7361L8.29878 12.4812L7.93958 12.6609L7.86678 12.6729L7.8663 12.6724Z" fill="#E5C66B"/>
<path fill-rule="evenodd" clip-rule="evenodd" d="M9.07306 11.454C9.07306 11.454 8.80362 11.6337 8.74298 11.6991C8.7793 11.7041 8.83994 11.7284 8.81562 11.7647C8.7865 11.8011 8.61178 11.9273 8.51466 12.0463C8.41274 12.1652 8.31562 12.3158 8.2817 12.3886C8.24538 12.454 7.96858 12.6459 7.87402 12.67C8.07306 12.67 8.47354 12.4249 8.62394 12.4249C8.61914 12.4977 8.66522 12.5803 8.75018 12.5875C8.83514 12.5947 9.08026 12.6409 9.41034 12.4371C9.74042 12.238 9.6313 12.0899 9.76954 11.9929C10.0342 11.818 10.1409 11.6627 10.2865 11.5657C10.4321 11.4687 10.5075 11.4467 10.5075 11.4467C10.5075 11.4467 10.5123 11.3739 10.5555 11.3812C10.5796 11.384 10.6001 11.3999 10.6089 11.4225C10.6089 11.4225 10.8614 11.2428 11.1849 11.1943C11.1774 11.191 11.1713 11.1849 11.1679 11.1774C11.1679 11.1774 11.1921 11.1652 11.1971 11.1531C11.1971 11.1531 11.214 11.1287 11.2262 11.1409C11.2383 11.1531 11.2553 11.2428 11.2796 11.2793C11.3331 11.255 11.435 11.0268 11.435 11.0268L11.6803 10.3254V9.68457L11.4883 9.72105L10.0483 10.3326L9.17434 11.238L9.07242 11.454H9.07306Z" fill="#E6BD62"/>
<path fill-rule="evenodd" clip-rule="evenodd" d="M13.218 8.31028C13.2959 8.29138 13.3706 8.26108 13.4396 8.22036C13.4105 8.29812 13.4105 8.38308 13.2843 8.56756C13.158 8.75204 13.1532 8.77876 13.0513 8.97044C12.9494 9.16948 12.9372 9.45588 12.8401 9.58196C12.8836 9.5608 12.9303 9.54691 12.9783 9.54084C12.9783 9.54084 12.8814 9.6258 12.8401 9.71556C12.7988 9.80532 12.726 9.9922 12.5465 10.1064C12.367 10.2207 12.1387 10.2933 11.8935 10.5628C11.6483 10.8272 11.3959 11.1623 11.2695 11.2828C11.3351 11.1687 11.4249 10.9405 11.4492 10.7901C11.4735 10.6397 11.4443 10.4599 11.4855 10.261C11.5268 10.0621 11.5268 9.91876 11.7255 9.57156C11.9243 9.22436 12.2644 8.01812 12.2644 8.01812L12.9974 7.78516L13.2183 8.30948L13.218 8.31028Z" fill="#B6933F"/>
<path fill-rule="evenodd" clip-rule="evenodd" d="M12.6896 7.86699C12.6896 7.86699 12.4688 8.18491 12.4082 8.46651C12.3475 8.74811 12.4032 8.72379 12.3669 8.86219C12.3452 8.94658 12.3452 9.03509 12.3669 9.11947C12.4433 8.99628 12.548 8.89306 12.6723 8.81835C12.8811 8.69227 13.051 8.60235 13.1523 8.49563C13.2542 8.38155 13.3392 8.19467 13.56 8.05147C13.4702 8.03931 13.344 7.99803 13.32 8.00347C13.4099 7.90155 13.6792 7.74619 13.951 7.55931C14.2205 7.36731 14.2035 7.28987 14.6405 7.09819C14.4973 7.12251 14.4293 7.08603 14.3102 7.09819C14.3582 6.99627 14.5262 6.94763 14.6942 6.78027C14.8622 6.61291 14.5875 6.36523 14.5875 6.36523L13.3075 7.13947L12.6886 7.86763L12.6896 7.86699Z" fill="#C49937"/>
<path fill-rule="evenodd" clip-rule="evenodd" d="M9.21582 7.28845L9.24494 7.05549L9.6115 6.46813L9.99502 5.43661V4.02637L9.9659 3.21085L10.0265 2.67677L10.0726 2.50701L10.1213 2.44141L10.4342 2.60397L10.8664 3.19133L10.9077 4.32493L10.4877 6.11373L9.28862 7.42205L9.21582 7.28845Z" fill="#DFC068"/>
<path fill-rule="evenodd" clip-rule="evenodd" d="M10.1697 2.37613C10.1697 2.37613 9.97765 2.38109 9.93669 3.17965C9.89573 3.97821 9.87589 4.39805 9.84677 4.79373C9.81765 5.18941 9.74981 5.42957 9.71573 5.66269C9.68165 5.89581 9.66229 6.21357 9.55317 6.40781C9.50517 6.49757 9.40261 6.77917 9.16229 6.99037C8.89285 7.22333 8.49029 7.38605 8.42933 7.39821C8.32245 7.42237 7.78117 7.47581 7.56037 7.59725C7.48277 7.63853 7.34917 7.68701 7.20117 7.82541C6.90741 8.08989 6.51669 8.56317 6.23509 9.13357C5.80309 9.98557 5.37109 12.3909 5.37109 12.3909L5.46821 12.2283C5.46821 12.2283 5.48037 12.0123 5.69637 11.6336C5.90757 11.255 5.84693 10.8302 6.14053 10.1045C6.25461 9.82781 6.39781 9.46861 6.57253 9.16269C6.84933 8.66509 7.18421 8.23789 7.52165 8.00493C8.07253 7.62637 8.67941 7.54381 8.67941 7.54381L9.33237 7.11181C9.33237 7.11181 9.44645 6.89101 9.59701 6.63853C9.80805 6.28429 10.077 5.88861 10.1357 5.31341C10.2257 4.46141 10.0095 3.90317 10.0217 3.39837C10.0338 2.89357 10.0386 2.52221 10.1407 2.43229C10.2428 2.34237 10.1698 2.37645 10.1698 2.37645L10.1697 2.37613Z" fill="#A88F33"/>
<path fill-rule="evenodd" clip-rule="evenodd" d="M10.1698 6.18682C10.1698 6.18682 10.4578 5.47802 10.5896 4.84938C10.6139 4.72314 10.6624 4.59706 10.6746 4.49514C10.7352 3.90042 10.7522 3.6553 10.6746 3.33002C10.6139 3.09002 10.381 2.8737 10.2595 2.70602C10.1406 2.53114 10.0848 2.46602 10.1091 2.42922C10.1334 2.39242 10.228 2.33226 10.3202 2.33946C10.5181 2.34522 10.7051 2.43198 10.8373 2.57946C11.0242 2.79546 11.1722 3.52858 11.1722 3.52858L11.3278 4.49594L11.7235 5.71434L10.1701 6.18778L10.1698 6.18682Z" fill="#C99E3D"/>
<path fill-rule="evenodd" clip-rule="evenodd" d="M12.8759 5.44938C12.8759 5.44938 12.8224 5.47354 12.7255 5.44938C12.7339 5.53017 12.6964 5.60887 12.6284 5.65322C12.5264 5.61194 11.5724 5.6945 11.5724 5.6945C11.5724 5.6945 11.1282 5.61674 10.9898 5.02938C10.8928 4.6385 11.0626 4.09978 11.0068 3.74538C10.9218 3.22346 10.8029 3.12138 10.7908 2.95898C10.7786 2.79658 10.7664 2.75514 10.7664 2.65322C10.713 2.64106 10.6815 2.6241 10.6282 2.6241C10.616 2.5761 10.6402 2.53418 10.5869 2.44922C10.616 2.46138 10.8151 2.4857 11.048 2.7065C11.24 2.88618 11.24 2.95162 11.269 2.9881C11.3053 3.02442 11.5991 3.2761 11.7253 3.52698C11.8516 3.77786 12.0967 4.57786 12.1525 4.7089C12.1695 4.76234 12.206 4.81578 12.2965 4.93706C12.4373 5.11194 12.6436 5.40106 12.8765 5.44906L12.8759 5.44938Z" fill="#B58634"/>
<path fill-rule="evenodd" clip-rule="evenodd" d="M11.3037 3C11.4507 3.23752 11.5828 3.48397 11.6992 3.73792C11.8424 4.06064 11.9274 4.32528 12.1071 4.54128C12.01 4.25984 11.8376 3.7064 11.7357 3.50976C11.6216 3.30176 11.3887 3.07776 11.3037 3.00016V3Z" fill="#A88F33"/>
<path fill-rule="evenodd" clip-rule="evenodd" d="M9.65256 6.99039C9.65256 6.99039 9.40744 7.05103 8.95112 7.29135C8.80056 7.36895 8.65752 7.43439 8.51912 7.49519C8.1596 7.65775 7.774 7.80799 7.46808 7.89087C7.4924 7.91999 7.5044 7.93199 7.5044 7.93199C7.5044 7.93199 7.5044 8.05103 7.57 8.11887C7.53368 8.15535 7.04808 8.48543 7.19144 9.58975C7.2884 9.55343 7.40248 9.50479 7.41944 9.50479C7.44872 9.50975 7.45592 9.58975 7.49224 9.58975C7.52856 9.58975 7.6476 9.54175 7.77384 9.37855C7.76904 9.44415 7.69624 10.1043 8.08696 10.5485C8.15976 10.4635 8.34424 10.1819 8.34424 10.1819L8.34904 10.0922C8.34904 10.0922 8.366 9.77903 8.46808 9.49263C8.57016 9.20623 8.76904 8.99503 8.76904 8.99503L9.8076 7.51199L9.65224 6.99023L9.65256 6.99039Z" fill="#E6C367"/>
<path fill-rule="evenodd" clip-rule="evenodd" d="M8.68205 9.16817C8.6345 9.20177 8.58212 9.22794 8.52669 9.24577C8.50973 9.18513 8.48541 8.97633 8.62861 8.77249C8.79613 8.52721 9.16253 8.20929 9.26445 7.95649C9.33005 7.79377 9.30093 7.38609 9.88349 6.86417C10.4661 6.34225 10.6941 6.16273 10.6941 6.16273L11.6358 5.68945L12.7936 6.14577L12.2184 8.40017L11.7718 9.45617L9.99581 9.12129L8.68189 9.16817H8.68205Z" fill="#DCBA5A"/>
<path fill-rule="evenodd" clip-rule="evenodd" d="M9.35986 8.55579L9.58082 8.27915V8.08251C9.58082 8.08251 9.82594 8.01691 10.0904 7.74747C10.3549 7.47803 10.7215 6.96107 11.0443 6.99259C11.3672 7.02907 11.3987 7.69403 11.4109 7.88107C11.4231 8.06811 11.4643 8.49259 11.5298 8.72091C11.6026 8.94907 10.7434 9.81307 10.7434 9.81307L10.1599 10.2572L9.35986 8.55579Z" fill="#E9CE77"/>
<path fill-rule="evenodd" clip-rule="evenodd" d="M10.0439 10.8594C10.0439 10.8594 10.2236 10.5778 10.0919 10.5171C10.1695 10.3424 10.3127 10.1579 10.3127 10.1579C10.3127 10.1579 10.4147 9.90562 10.7447 9.5949C11.0748 9.28418 11.2788 9.07778 11.3323 8.86914C11.3652 8.73317 11.3831 8.59399 11.3857 8.4541C11.4214 8.48325 11.4596 8.50922 11.4998 8.5317C11.5532 8.55602 11.8055 8.76466 11.7692 9.18466C11.7329 9.60466 11.5772 9.77938 11.5772 9.77938C11.5772 9.77938 11.4268 9.92978 11.3201 10.0075C11.2059 10.0851 11.1647 10.1749 10.9729 10.1823C10.9926 10.1666 11.0148 10.1543 11.0385 10.1458C11.0385 10.1458 10.8395 10.1216 10.7326 10.2186C10.6257 10.3155 10.3985 10.6143 10.2844 10.7042C10.1703 10.777 10.0444 10.8595 10.0444 10.8595L10.0439 10.8594Z" fill="#CDAE50"/>
<path fill-rule="evenodd" clip-rule="evenodd" d="M18.1143 6.13824C17.8275 6.03373 17.5261 5.97477 17.2211 5.96352C16.7114 5.94656 15.9663 5.97568 15.2357 5.98048C14.4493 5.98528 13.7357 5.71104 12.7455 5.66256C12.5829 5.56544 12.1695 5.14064 10.8789 6.04112C10.9565 6.03632 11.8159 5.84208 12.1143 6.216C12.4152 6.58736 12.3303 7.2184 12.2891 7.3688C12.2114 7.70384 11.9589 8.19168 11.8571 8.53392C11.7554 8.87616 11.7794 9.056 11.7066 9.296C11.6338 9.536 11.4736 9.6552 11.5682 9.93184C11.6944 9.85424 11.7602 9.85424 11.9711 9.38096C12.1819 8.90768 12.1386 8.57024 12.4882 8.16976C12.8304 7.76688 13.4002 7.21584 13.6168 7.07744C13.8335 6.93904 15.5536 6.04592 17.3547 6.89792C17.7891 6.85184 18.1144 6.13808 18.1144 6.13808L18.1143 6.13824Z" fill="#D2A83E"/>
<path fill-rule="evenodd" clip-rule="evenodd" d="M11.6042 5.80827C11.6024 5.79003 11.5984 5.77208 11.5922 5.75483C11.5753 5.71934 11.5532 5.68659 11.5266 5.65771C11.5266 5.65771 11.0994 5.58011 10.8834 5.60427C10.5047 5.64555 10.1624 6.11403 10.0023 6.35435C9.84211 6.59467 9.64307 6.96587 9.42707 7.15771C9.42944 7.13902 9.42513 7.1201 9.41491 7.10427C9.41491 7.10427 9.42707 7.12123 9.40291 7.14555C9.37875 7.16987 9.37859 7.18187 9.39075 7.19355L9.42723 7.22987C9.43923 7.22987 9.77427 7.07931 10.2306 6.65387C10.716 6.20971 11.0874 5.98187 11.2816 5.90379C11.3852 5.85977 11.4935 5.82772 11.6044 5.80827H11.6042Z" fill="#C29637"/>
<path fill-rule="evenodd" clip-rule="evenodd" d="M19.8904 3.98242C19.8904 3.98242 19.8127 4.07938 19.7156 4.18626C19.4996 4.41442 19.218 4.67154 18.9776 4.93618C18.7496 5.18866 18.4924 5.3853 18.2034 5.71538C17.9144 6.04546 17.5794 6.41186 17.4946 6.51874C17.417 6.62562 17.3564 6.80034 17.3564 6.8901C17.3151 6.86098 17.2666 6.82946 17.2666 6.82946C17.287 6.86757 17.3114 6.9034 17.3394 6.93634C17.4 7.0213 17.4946 7.12834 17.5432 7.19362C17.6029 7.27673 17.6457 7.37071 17.6693 7.47026C17.6984 7.47506 17.8853 7.51154 18.1184 7.12802C18.3516 6.7445 18.6572 6.32466 18.6572 6.32466L19.1426 5.6037L19.4485 4.99218L19.8325 4.3077L19.8909 3.98242H19.8904Z" fill="#AC8132"/>
<path fill-rule="evenodd" clip-rule="evenodd" d="M20.3885 3.49316C20.3885 3.49316 20.0948 3.73316 19.9807 3.87716C19.8666 4.02116 19.5967 4.39908 19.5967 4.39908L19.6938 4.38692L20.1866 3.95012L20.3786 3.60788L20.3884 3.4938L20.3885 3.49316Z" fill="#A88F33"/>
<path fill-rule="evenodd" clip-rule="evenodd" d="M20.2986 22.7815C20.2986 22.7815 20.2938 22.5825 20.4055 22.4636C20.5196 22.3446 20.8084 22.1699 21.09 21.5145C21.3716 20.8591 21.403 20.7111 21.403 20.7111C21.403 20.7111 20.8982 21.1431 20.587 21.2451C20.6598 21.0945 20.701 20.9878 20.7375 20.91C20.6962 20.8737 20.5215 20.8324 20.5046 20.8131C20.6015 20.7159 20.655 20.478 20.8516 20.3203C21.1041 20.1283 21.5652 19.7983 21.9236 19.5043C22.282 19.2102 22.9866 18.5262 23.0766 18.3271C23.13 18.4047 23.142 18.4532 23.142 18.4532C23.142 18.4532 22.7878 18.9145 22.6033 19.2081C22.4406 19.4606 22.4527 19.6038 22.4527 19.6038L22.7878 19.4598C22.7878 19.4598 22.8847 19.819 22.4455 20.3652C22.6375 20.2924 22.715 20.3361 22.8241 20.2753C22.6444 20.3895 22.3969 20.5449 22.1639 20.9719C21.9358 21.3991 21.625 21.8967 21.1009 22.2073C20.5911 22.535 20.2974 22.7801 20.2974 22.7801L20.2986 22.7815Z" fill="#A67A2E"/>
<path fill-rule="evenodd" clip-rule="evenodd" d="M18.983 6.39046C18.983 6.39046 18.7839 6.80534 18.7548 7.12822C18.75 7.20598 18.7305 7.26662 18.7305 7.35638C18.7257 7.64518 18.7475 7.96806 18.6825 8.11846C18.6582 8.05782 18.646 8.01654 18.6217 7.99238C18.5854 8.0943 18.5198 8.41222 18.4663 8.5311C18.4422 8.4535 18.3887 8.18406 18.3937 7.86614C18.3987 7.54822 18.4057 7.48742 18.4057 7.42198C18.3937 7.51894 18.3281 7.65014 18.3038 7.72774C18.2675 7.6623 18.2262 7.57734 18.1775 7.50694C18.1484 7.55494 18.1121 7.62582 18.0806 7.6623C18.0756 7.63318 18.0636 7.55542 18.0563 7.4463C18.0515 7.32006 18.0441 7.1575 18.0515 7.12342C18.0635 7.05798 18.1655 6.8007 18.3815 6.56518C18.6388 6.28358 18.9035 5.74246 18.9811 5.57494C19.0587 5.40742 19.3887 4.71094 19.3887 4.71094H19.6412L19.2747 5.54582C19.2747 5.54582 19.0539 6.00214 18.9398 6.16982C18.8257 6.3375 18.5854 6.81798 18.4785 7.00486C18.5561 6.90294 18.6217 6.8495 18.6995 6.75238C18.7747 6.68438 18.9833 6.39078 18.9833 6.39078L18.983 6.39046Z" fill="#8C6228"/>
<path fill-rule="evenodd" clip-rule="evenodd" d="M20.3932 3.46094C20.352 3.58787 20.2868 3.70573 20.2012 3.80814C20.0507 3.98782 19.7278 4.22798 19.5702 4.41966C19.4262 4.60654 19.1382 5.1163 19.2691 5.72062C19.3171 5.58958 19.4075 5.3299 19.6478 5.03614C19.8881 4.74238 20.1454 4.4051 20.2718 4.14302C20.3979 3.87838 20.4148 3.66974 20.4148 3.66974L20.4628 3.6091L20.4337 3.4707L20.3924 3.46094L20.3932 3.46094Z" fill="#CBA94C"/>
<path fill-rule="evenodd" clip-rule="evenodd" d="M25.3085 19.5609C25.3085 19.5609 25.2114 19.2964 25.1823 19.0561C25.1531 18.8158 25.2303 18.7681 25.141 18.493C25.0875 18.3255 24.9906 18.349 24.9663 18.3255C24.9419 18.302 24.925 18.0489 24.9298 17.9105C24.9346 17.7721 24.925 17.5926 24.9007 17.5148C24.8643 17.4857 24.84 17.4614 24.7866 17.2818C24.7259 17.1022 24.6968 17.0124 24.6677 16.9591C24.6386 16.9058 24.5535 16.8572 24.5535 16.8038C24.5535 16.6969 24.6506 16.6412 24.6506 16.6118C24.6458 16.5511 24.573 16.5998 24.5535 16.5826C24.5293 16.5535 24.6143 16.3788 24.5827 16.3545C24.5706 16.3425 24.4856 16.4444 24.4637 16.4153C24.4394 16.386 24.4103 16.0972 24.3666 15.9055C24.3255 15.7186 24.2816 15.5828 24.2768 15.527C24.272 15.4735 23.9418 14.5318 23.8618 14.3036C23.7973 14.1108 23.743 13.9147 23.6992 13.7162C23.6749 13.6022 23.6579 13.369 23.6458 13.3934C23.6336 13.4177 23.641 13.5366 23.6215 13.5318C23.6045 13.5268 23.5439 13.1119 23.5245 13.0463C23.5075 12.9807 23.4055 12.7583 23.3805 12.5974C23.3562 12.4346 23.3029 12.0098 23.2664 11.721C23.2299 11.4322 23.213 11.3134 23.213 11.241C23.2189 11.0641 23.2092 10.8871 23.1839 10.7119C23.1359 10.406 23.0399 10.0346 22.9557 9.81879C22.7931 9.41095 22.361 8.36727 22.2837 8.10759C22.2837 8.04199 22.3687 8.07847 22.3687 8.07847C22.3687 8.07847 22.5797 8.60759 22.7351 9.01527C22.8856 9.42311 23.0288 9.78231 23.0653 9.81879C23.0944 9.85511 23.3226 10.2556 23.4245 10.911C23.5264 11.5663 23.5627 12.1706 23.6235 12.5735C23.6527 12.7655 23.677 12.9692 23.7376 13.173C23.8031 13.394 23.905 13.6222 24.0386 13.9716C24.1527 14.2654 24.2376 14.5105 24.2837 14.7217C24.3371 14.9911 24.3371 15.195 24.3687 15.3286C24.3979 15.4426 24.4415 15.6706 24.5435 16.0006C24.6456 16.3305 24.7959 16.7554 24.8978 17.0199C25.097 17.549 25.1858 17.9908 25.2159 18.2263C25.2424 18.469 25.3323 19.3089 25.308 19.5612L25.3085 19.5609Z" fill="#A88F33"/>
<path fill-rule="evenodd" clip-rule="evenodd" d="M20.4056 3.4322L20.3934 3.46132C20.3934 3.46132 20.4297 3.47348 20.4225 3.52212C20.423 3.58867 20.419 3.65517 20.4104 3.72116C20.3984 3.80612 20.374 3.87156 20.3692 3.925C20.3692 4.03908 20.3862 4.17012 20.2252 4.4954C20.1772 4.58516 20.1476 4.66276 20.1233 4.7162C20.0627 4.84724 20.0505 4.86676 19.9971 4.9274C20.082 4.8794 20.388 4.6874 20.5432 4.7162C20.4364 4.77684 20.2737 4.89588 20.1718 5.05124C20.1961 5.05604 20.298 5.07556 20.4598 5.05124C20.7292 5.00996 21.0302 4.91284 21.2947 4.9322C21.5836 4.94916 21.4696 4.58516 21.4696 4.58516L21.1361 3.8522L20.5051 3.4082L20.4056 3.43236V3.4322Z" fill="#BE9C44"/>
<path fill-rule="evenodd" clip-rule="evenodd" d="M22.0509 8.9223C22.0509 8.9223 21.7693 8.6407 21.6552 7.6743C21.5412 6.70342 21.5655 5.2743 21.5655 5.2743L21.3373 4.71606C21.3373 4.71606 21.2893 4.3447 21.1698 4.20646C21.0503 4.06822 20.8156 3.8351 20.7087 3.72102C20.6018 3.60694 20.4805 3.45158 20.4077 3.42726C20.444 3.36662 20.6068 3.02438 21.2304 3.01958C21.8541 3.01478 22.0464 3.36182 22.1116 3.48806C22.1767 3.6143 22.4708 4.16006 22.5799 5.20006C22.6818 6.23878 22.6868 6.31654 22.6698 6.67574C22.6576 6.87478 22.592 7.3359 22.4778 7.82854C22.3735 8.24614 22.2594 8.71222 22.0506 8.92326L22.0509 8.9223Z" fill="#A17C34"/>
<path fill-rule="evenodd" clip-rule="evenodd" d="M21.168 9.75044C21.2619 9.75721 21.3556 9.73606 21.4375 9.68964C21.5272 9.68484 21.8525 9.72612 22.1024 9.4082C22.1194 9.48084 22.1632 9.67764 22.049 9.85236C22.1098 9.79156 22.1995 9.7674 22.2117 9.75044C22.2165 9.8402 22.3015 10.1168 21.9423 10.7892C22.0392 10.6824 22.1533 10.6872 22.2552 10.6751C22.2602 10.8013 22.328 11.226 22.1485 11.4543C22.0296 11.6096 21.8354 11.561 21.8354 11.561C21.8382 11.5271 21.8382 11.493 21.8354 11.4591C21.8306 11.3935 21.8063 11.328 21.8234 11.2844C21.7295 11.2415 21.644 11.1823 21.5709 11.1095C21.3597 10.9104 21.0855 10.5708 21.0661 10.3183C21.0418 10.0367 21.2943 9.97604 21.2943 9.97604C21.2731 9.95712 21.2551 9.93498 21.2408 9.91044C21.2287 9.86932 21.2165 9.80372 21.168 9.75044Z" fill="#8C6228"/>
<path fill-rule="evenodd" clip-rule="evenodd" d="M19.2959 6.69641C19.2959 6.69641 19.2837 6.67945 19.2183 6.75705C19.2304 6.67945 19.2426 6.60649 19.2474 6.53609C19.2784 6.47091 19.3184 6.41047 19.3664 6.35657C19.3299 6.42921 19.3056 6.49481 19.3056 6.49481C19.3056 6.49481 19.3955 6.32729 19.5266 6.22537C19.6163 6.15257 19.7304 6.11865 19.7789 6.05065C19.8323 5.97785 19.8202 5.96569 19.8323 5.95353C19.8323 5.95353 19.9514 5.87593 20.1335 5.64761C20.1576 5.61849 20.1941 5.58697 20.2184 5.55785C20.2595 5.54089 20.3567 5.49721 20.4707 5.43881C20.5898 5.37337 20.7232 5.28361 20.8058 5.24681C20.9683 5.17401 21.1408 5.18137 21.2208 5.06713C21.2815 5.05017 21.3469 4.86809 21.3349 4.71289C21.4247 4.74921 21.8858 5.03561 22.0437 5.66185C22.1578 6.10601 21.9538 6.79049 21.8688 7.12073C21.7839 7.45097 21.7719 7.69593 21.6528 7.84633C21.5023 8.04553 21.017 8.32633 20.8979 8.46537C20.796 8.57945 20.4903 8.86825 20.5023 9.07689C20.5144 9.23225 20.7061 9.31689 20.7475 9.34633C20.789 9.37577 20.7887 9.41193 20.8664 9.39433C20.9442 9.37673 20.9731 9.34089 21.0048 9.34089C21.0411 9.34569 21.0411 9.35305 21.0581 9.35305C21.0704 9.35268 21.0826 9.35102 21.0946 9.34809C21.0946 9.34809 21.0824 9.56905 20.5655 9.63609C20.529 9.64105 20.4927 9.65305 20.4464 9.66041C20.5072 9.63129 20.5435 9.63129 20.6091 9.54153C20.5363 9.52937 20.3275 9.51721 20.2741 9.50025C20.2911 9.47113 20.3469 9.39337 20.393 9.35705C20.4343 9.32073 20.3882 9.30905 20.3519 9.32793C20.2893 9.37047 20.2293 9.41663 20.1722 9.46617C20.1115 9.51961 20.0581 9.59241 19.961 9.65817C19.9319 9.56105 19.9367 9.37657 20.0509 9.24313C20.0216 9.24793 19.9658 9.33289 19.9125 9.31593C19.9029 9.2274 19.9086 9.13787 19.9295 9.05129C19.9586 8.94201 20.1163 8.75033 20.1163 8.75033L20.8784 7.38857L21.041 6.35705L19.2959 6.69609V6.69641Z" fill="#92723A"/>
<path fill-rule="evenodd" clip-rule="evenodd" d="M19.2551 6.75465C19.2551 6.75465 19.2139 6.78377 19.2964 6.83961C19.2843 6.85657 19.2551 6.91721 19.2187 6.95849C19.1775 7.00649 19.1337 7.03625 19.1167 7.07753C19.0804 7.16249 19.0513 7.22073 19.0513 7.25721C19.0513 7.29369 19.0391 7.52665 18.9372 7.67705C18.9007 7.73049 18.8595 7.82025 18.8303 7.88089C18.7697 7.98761 18.7163 8.07289 18.7041 8.12089C18.6799 8.20585 18.663 8.43881 18.663 8.43881C18.663 8.43881 18.7164 8.37321 18.7358 8.34905C18.7065 8.40969 18.675 8.47513 18.6289 8.52377C18.658 8.49945 18.743 8.43881 18.8862 8.31257C19.0852 8.14521 19.3959 7.86361 19.7747 7.64057C19.6604 7.68185 19.5635 7.68185 19.4859 7.69401C19.5465 7.63337 20.0926 6.99257 20.379 6.93193C20.3964 6.90988 20.405 6.8822 20.4033 6.85417L20.158 6.83001L19.6604 6.93673L19.5878 6.55273L19.2551 6.75417V6.75465Z" fill="#B18E3E"/>
<path fill-rule="evenodd" clip-rule="evenodd" d="M20.0462 8.9398C20.0462 8.9398 19.9806 9.00524 19.9199 9.16796C19.8732 9.11921 19.8332 9.06449 19.8009 9.00524C19.7111 8.85484 19.5729 8.663 19.25 8.77228C19.2452 8.67036 19.2378 8.61692 19.25 8.54412C19.3034 8.53212 19.466 8.40108 19.6286 8.20924C19.7428 8.0782 19.8495 7.92764 19.9223 7.73596C19.9703 7.69948 20.0534 7.63884 20.1623 7.56844C20.3177 7.46172 20.5046 7.31596 20.5337 7.1534C20.4609 7.18252 20.3055 7.25532 20.0724 7.24332C20.1623 7.20204 20.3006 7.15836 20.2836 6.97868C20.3201 6.95436 20.3492 6.9374 20.3492 6.9374C20.3218 6.92827 20.2931 6.92415 20.2642 6.92524C20.2593 6.90828 20.2521 6.88412 20.2108 6.89612C20.1695 6.90812 20.1628 6.90828 20.1574 6.92524C20.1404 6.9302 20.0846 6.92524 20.0433 6.95452C20.002 6.9838 19.8879 7.0806 19.8442 7.09756C19.8612 7.06844 19.8854 7.02492 19.8854 7.02492C19.8854 7.02492 19.7665 7.03692 19.6815 7.07292C19.5262 7.12636 19.3466 7.22348 19.1646 7.31804C19.1815 7.28892 19.1889 7.27004 19.2009 7.2646C19.2129 7.25916 19.2422 7.2526 19.2422 7.24764C19.2422 7.24268 19.2302 7.19964 19.2374 7.1822C19.2918 7.06688 19.356 6.95644 19.4294 6.85212C19.5143 6.73788 19.5313 6.57532 19.5313 6.57532L19.9026 6.38844L20.9463 6.14844L21.6236 6.18972L21.5386 6.6582L21.1386 7.47612L20.7964 8.22124L20.4055 8.67772L20.0463 8.9398H20.0462Z" fill="#543E26"/>
<path fill-rule="evenodd" clip-rule="evenodd" d="M21.738 6.91164C21.738 6.91164 21.3301 7.41644 21.216 7.4942C21.2888 7.33884 21.738 6.41404 21.9005 6.15676C21.8642 6.12764 21.8156 6.12764 21.9296 5.67676C21.8327 5.90476 21.7986 6.0238 21.7186 6.08444C21.6386 6.14508 21.6287 6.12572 21.5746 6.12572C21.5848 6.10725 21.589 6.08605 21.5866 6.06508C21.5866 6.06508 21.2444 6.0238 21.0106 6.0238C20.7768 6.0238 20.3141 6.15004 20.0567 6.25196C19.8528 6.33692 19.7388 6.33692 19.666 6.3902C19.5932 6.45084 19.5519 6.51644 19.5154 6.5334C19.4863 6.55036 19.348 6.59404 19.3164 6.64012C19.2872 6.68812 19.2388 6.74204 19.2388 6.7542C19.2388 6.76636 19.2266 6.78348 19.2631 6.77116C19.2751 6.76636 19.365 6.71772 19.4669 6.65708C19.6052 6.57948 19.7727 6.48972 19.8941 6.43628C20.2412 6.29788 20.3504 6.3222 20.5056 6.29308C20.6682 6.26396 20.9013 6.19596 21.0565 6.19596C21.2119 6.19116 21.5056 6.19596 21.5736 6.20812C21.5445 6.23244 21.5202 6.26156 21.5324 6.36348C21.5324 6.3926 21.508 6.42412 21.4844 6.49452C21.4117 6.69356 21.2733 7.02364 21.1964 7.19116C21.0896 7.41916 20.9684 7.611 20.9084 7.72988C20.8484 7.84876 20.7164 8.16188 20.5856 8.3294C20.4549 8.49692 20.3866 8.59884 20.3456 8.63532C20.3047 8.6718 20.0106 8.88764 20.0325 8.9654C20.086 8.94844 20.4234 8.8214 20.6684 8.54556C20.9133 8.26972 20.9621 8.1014 21.1538 7.95084C21.3455 7.80028 21.496 7.54796 21.5858 7.33932C21.661 7.14508 21.644 7.08444 21.7386 6.91212L21.738 6.91164Z" fill="#806031"/>
<path fill-rule="evenodd" clip-rule="evenodd" d="M12.949 10.6796C12.949 10.6796 12.8956 10.9004 12.7742 11.0097C12.6553 11.1165 12.4441 11.2087 12.4199 11.3884C12.3908 11.5679 12.6311 11.6578 12.6311 11.6578C12.6311 11.6578 12.4999 11.8738 12.4999 12.0364C12.4999 12.2039 12.4951 12.2354 12.5121 12.3956C12.4928 12.408 12.4765 12.4243 12.4641 12.4436C12.4641 12.4436 12.4761 12.5989 12.5951 12.6959C12.7142 12.7929 12.8159 12.8513 12.8766 12.8269C12.8858 12.8467 12.8939 12.867 12.9009 12.8877C12.9009 12.8877 12.9908 12.6596 13.0514 12.4605C13.1121 12.2567 13.1655 12.2857 13.1897 12.0114C13.2138 11.7372 13.4777 11.2663 13.4777 11.2663L13.6577 10.8639L13.3641 10.6357L12.949 10.6794V10.6796Z" fill="#B6903C"/>
<path fill-rule="evenodd" clip-rule="evenodd" d="M13.4952 11.0752C13.4347 11.1373 13.3788 11.2039 13.328 11.2742C13.2504 11.3811 13.1898 11.4781 13.0757 11.5195C12.9616 11.561 12.8888 11.5606 12.896 11.6749C12.9032 11.7891 13.0101 11.8374 13.0707 11.8957C13.1363 11.9563 13.1898 12.0582 13.1606 12.1725C13.197 12.1555 13.2626 12.136 13.3232 12.005C13.3838 11.8739 13.808 11.0754 13.808 11.0754H13.4952V11.0752Z" fill="#685026"/>
<path fill-rule="evenodd" clip-rule="evenodd" d="M15.1683 9.23338C15.1683 9.23338 15.2046 9.13642 15.1683 9.06602C15.1318 8.99322 14.911 8.9689 14.8017 8.88634C14.6877 8.80138 14.5493 8.74234 14.4352 8.77962C14.4521 8.73834 14.5201 8.64842 14.4643 8.62906C14.4109 8.6121 14.212 8.70186 14.1585 8.74314C14.1051 8.78442 13.9837 8.8329 13.9595 8.86218C13.9353 8.89146 13.8939 8.94714 13.8696 8.92282C13.8453 8.90586 13.8333 8.86218 13.792 8.88634C13.7507 8.9105 13.552 9.07322 13.5153 9.16794C13.4787 9.26266 13.3963 9.47386 13.1488 9.71402C12.9013 9.95418 12.7944 10.1097 12.8672 10.1995C12.94 10.2892 12.9741 10.2238 12.9862 10.3014C12.9956 10.3776 12.9915 10.4548 12.9741 10.5295C12.9449 10.6558 12.8965 10.7747 12.9619 10.799C13.1294 10.8524 13.2921 10.751 13.3285 10.782C13.4013 10.8475 13.2872 11.083 13.4595 11.1291C13.6344 11.1771 13.8067 11.0878 13.8067 11.0878L14.4425 10.7455L15.0542 10.4228L15.3672 9.80378L15.1993 9.28682L15.1673 9.23338H15.1683Z" fill="#D4B968"/>
<path fill-rule="evenodd" clip-rule="evenodd" d="M14.5679 10.7112C14.5679 10.7112 14.461 10.5487 14.5922 10.4053C14.7234 10.2619 14.9101 10.2015 14.9829 10.1117C14.9691 10.0946 14.9505 10.082 14.9295 10.0754C14.9778 9.98891 15.0515 9.91938 15.1407 9.87619C15.1044 9.83987 15.0557 9.81075 15.0025 9.81075C14.8834 9.81075 14.8105 9.88355 14.7013 9.88355C14.5946 9.88355 14.5825 9.83011 14.5825 9.83011C14.5825 9.83011 14.7621 9.81315 14.745 9.73299C14.7281 9.64803 14.697 9.64803 14.697 9.64803C14.697 9.64803 15.0441 9.50403 15.1047 9.42723C15.1653 9.35043 15.1581 9.25971 15.1703 9.22339C15.2114 9.22339 15.4517 9.09715 15.5489 9.15059C15.646 9.20403 15.578 9.34963 15.578 9.34963C15.578 9.34963 15.8719 9.12867 16.0217 8.91203C16.1527 8.92419 16.2137 8.82227 16.3097 8.82227C16.4287 8.82227 16.6156 8.98483 16.6519 9.33187C16.6762 9.53091 16.7125 9.64499 16.6762 9.99699C16.6593 10.196 16.6641 10.621 16.7242 10.8319C16.7653 10.9994 16.8625 10.9824 16.8625 10.9824C16.8476 11.0335 16.818 11.079 16.7775 11.1135C16.7119 11.1741 16.7047 11.3344 16.7119 11.3951C16.7216 11.4394 16.7337 11.4832 16.7484 11.5261C16.7484 11.5261 16.6708 11.6159 16.6513 11.6767C16.6343 11.7373 16.5543 11.7786 16.4959 11.7786C16.4375 11.7786 16.4668 11.7736 16.3892 11.7786C16.3116 11.7835 16.2873 11.7955 16.2386 11.7786C16.19 11.7616 16.1537 11.7421 16.1732 11.5866C16.1901 11.4312 15.5737 11.0696 15.5737 11.0696L14.5657 10.7104L14.5679 10.7112Z" fill="#CCA849"/>
<path fill-rule="evenodd" clip-rule="evenodd" d="M13.4105 12.2453C13.4105 12.2453 13.6313 12.5391 14.5391 12.5391C14.9711 12.5391 15.1217 12.4978 15.2111 12.4735C15.3082 12.4491 15.6722 12.3061 16.0388 11.8739C16.3689 11.4832 16.2961 11.3231 16.2961 11.3231L16.1041 11.2939L15.4801 11.3789L13.6337 12.1653L13.4097 12.2453H13.4105Z" fill="#585136"/>
<path fill-rule="evenodd" clip-rule="evenodd" d="M14.0872 12.3184C14.0872 12.3184 13.3008 12.4933 13.3008 11.9957C13.3008 11.5103 13.7862 11.0005 13.9077 10.9108C14.0339 10.8208 14.3349 10.7188 14.3349 10.7188H15.0606L15.1989 11.0853L15.1382 11.8765L14.0872 12.3183V12.3184Z" fill="#252211"/>
<path fill-rule="evenodd" clip-rule="evenodd" d="M14.813 10.8668C14.813 10.8668 14.6626 10.7284 14.3203 10.9148C13.9781 11.1012 13.7013 11.4908 13.6843 11.8446C13.6674 12.1575 13.9416 12.3906 14.3688 12.4028C14.6867 12.4148 14.8786 12.3785 14.9757 12.3548C14.9514 12.3257 14.8251 12.1679 14.8251 12.1679L14.8131 10.867L14.813 10.8668Z" fill="#C3B378"/>
<path fill-rule="evenodd" clip-rule="evenodd" d="M14.6649 10.9438C14.6649 10.9438 14.6286 10.9147 14.5209 10.9729C14.4312 11.0209 14.3001 11.1478 14.1982 11.2376C14.1326 11.291 14.0913 11.3152 14.0542 11.3564C13.9037 11.5361 13.7774 11.8299 13.8504 11.9755C13.9233 12.1211 14.1635 12.2886 14.7752 12.1745L14.6632 10.944L14.6649 10.9438Z" fill="#E6D89C"/>
<path fill-rule="evenodd" clip-rule="evenodd" d="M14.466 11.2453C14.466 11.2453 14.3689 11.3958 14.3689 11.6361C14.3689 11.8813 14.5073 12.272 15.017 12.3011C15.4078 12.3254 15.6698 11.7381 15.9538 11.5099C16.1698 11.3352 16.3009 11.3302 16.3009 11.3302C16.3009 11.3302 16.0801 11.0902 15.4903 10.7793C14.9078 10.4662 14.2548 10.4249 13.9004 10.9056C14.0679 10.8934 14.6092 10.755 14.6092 10.755L14.8738 10.84L14.466 11.2454V11.2453Z" fill="#252211"/>
<path fill-rule="evenodd" clip-rule="evenodd" d="M15.228 11.5632C15.2111 11.5269 15.1989 11.4782 15.2693 11.4662C15.3397 11.4542 15.3712 11.4613 15.3956 11.5142C15.4199 11.5672 15.4436 11.6113 15.4076 11.6333C15.3712 11.6526 15.2765 11.6333 15.2279 11.5629L15.228 11.5632ZM15.1142 11.221C15.1142 11.221 15.0899 11.2379 15.102 11.204C15.1068 11.1629 15.1385 11.0899 15.2161 11.107C15.2937 11.1242 15.2769 11.209 15.2641 11.2333C15.2513 11.2576 15.1865 11.2987 15.1379 11.2813C15.1254 11.2781 15.1151 11.2691 15.1103 11.2571C15.1055 11.2452 15.1067 11.2316 15.1136 11.2206L15.1142 11.221Z" fill="#6F674D"/>
<path fill-rule="evenodd" clip-rule="evenodd" d="M8.54395 11.3758C8.54395 11.3758 8.73595 11.5198 8.95899 11.5142C9.17979 11.5092 9.46379 11.2812 9.59483 11.1355C9.67243 11.0505 9.73883 10.9608 9.81083 10.8904C9.87163 10.8297 9.91275 10.8006 9.94187 10.7593C9.98315 10.7113 10.0268 10.6211 10.0487 10.5918C9.99531 10.6331 9.91771 10.706 9.83755 10.7545C9.75995 10.8025 9.59243 10.8928 9.52443 10.9171C9.45899 10.9414 8.77931 11.3011 8.77931 11.3011L8.54395 11.3758Z" fill="#AC924C"/>
<path fill-rule="evenodd" clip-rule="evenodd" d="M8.8374 9.58291C8.8374 9.58291 8.94412 9.51011 9.15052 9.46387C9.34956 9.41587 9.75004 9.37891 9.75004 9.37891L10.0801 9.52291L10.2112 10.0205L9.97116 10.5376L9.6654 10.7296L9.3182 10.1714L8.8382 9.58387L8.8374 9.58291Z" fill="#9F8E57"/>
<path fill-rule="evenodd" clip-rule="evenodd" d="M8.40526 10.0267L8.29102 10.112C8.29102 10.112 8.3203 10.0585 8.34446 9.89597C8.36862 9.73341 8.49502 9.33773 8.6795 9.10957C8.86398 8.88141 8.85918 8.89357 8.85918 8.89357C8.82483 8.88729 8.78945 8.8961 8.76206 8.91773C8.78638 8.86397 8.94174 8.67197 9.0971 8.57597C9.25246 8.47997 9.3131 8.44973 9.47566 8.52797C9.63822 8.60621 9.6795 8.64685 9.79854 8.64205C9.91758 8.63725 10.0193 8.51101 10.0193 8.51101C10.0193 8.51101 10.0437 8.58861 9.9539 8.76829C9.86414 8.94797 9.50974 9.31437 9.50974 9.31437L8.77182 9.81917L8.40526 10.0272V10.0267Z" fill="#EAC970"/>
<path fill-rule="evenodd" clip-rule="evenodd" d="M8.95132 9.5218C8.95132 9.5218 9.4854 9.5946 9.64796 9.4442C9.65276 9.46116 9.67228 9.46116 9.67228 9.47332C9.67098 9.48248 9.66671 9.49097 9.66012 9.49748C9.67781 9.49466 9.69566 9.49305 9.71356 9.49268C9.73494 9.49904 9.75693 9.50312 9.77916 9.50484C9.79707 9.50445 9.81493 9.50279 9.8326 9.49988C9.8292 9.52425 9.81603 9.5462 9.79612 9.56068C9.82044 9.56068 9.84412 9.56548 9.84412 9.58484C9.84412 9.6042 9.84892 9.6626 9.8198 9.67476C9.79568 9.68143 9.77 9.67968 9.747 9.6698C9.74893 9.71575 9.76141 9.76065 9.78348 9.801C9.83148 9.89076 9.93388 9.993 10.0715 9.96356C10.0715 9.96356 10.1441 10.1383 9.83836 10.5266C9.79724 10.58 9.7534 10.6528 9.70012 10.7135C9.67907 10.7594 9.66298 10.8074 9.65212 10.8567C9.65212 10.8567 10.1692 10.6576 10.3172 10.2037C10.4678 9.7474 10.4969 9.29844 10.4678 8.8786C10.4628 8.75956 10.4435 8.67476 10.4144 8.61396C10.3416 8.4634 10.1376 8.48772 10.0552 8.57268C9.93612 8.69172 9.73708 8.98772 9.46044 9.19156C9.17884 9.3954 9.16684 9.43156 8.95068 9.5218H8.95132Z" fill="#D7BC6B"/>
<path fill-rule="evenodd" clip-rule="evenodd" d="M8.31056 10.1772C8.31056 10.1772 8.20864 10.2378 8.1552 10.4652C8.10176 10.6981 8.2032 10.9821 8.26192 11.0719C8.32064 11.1617 8.45392 11.4069 8.7304 11.4191C8.79883 11.4187 8.8665 11.4047 8.92944 11.3778C9.02596 11.3336 9.11649 11.2773 9.19888 11.2103C9.31792 11.1205 9.41488 11.0429 9.40272 11.0356C9.3736 11.0234 8.66976 10.4409 8.66976 10.4409L8.40512 10.1455L8.3104 10.1775L8.31056 10.1772Z" fill="#585136"/>
<path fill-rule="evenodd" clip-rule="evenodd" d="M8.97598 11.1437C8.97598 11.1437 9.11918 11.1317 9.20414 11.0783C9.2891 11.0249 8.70654 10.4473 8.70654 10.4473L8.74782 11.0713L8.97598 11.1437Z" fill="#453A25"/>
<path fill-rule="evenodd" clip-rule="evenodd" d="M8.35645 10.1331C8.35645 10.1331 8.28365 10.2715 8.28365 10.3079C8.27149 10.4268 8.30797 10.8006 8.33709 10.9195C8.36621 11.0457 8.52397 11.2374 8.72797 11.2374C8.85405 11.2374 9.02893 11.1598 9.02893 11.1404C9.02893 11.1161 8.84925 11.0924 8.80077 11.002C8.77165 10.954 8.75949 10.8347 8.75277 10.714C8.74797 10.6364 8.74797 10.5515 8.77709 10.522C8.84269 10.4492 8.85469 10.2404 8.85469 10.2404L9.08765 9.80762H8.78125L8.41469 10.0358L8.35645 10.1331Z" fill="#84754B"/>
<path fill-rule="evenodd" clip-rule="evenodd" d="M8.26709 10.2672C8.26709 10.2672 8.50709 9.94925 8.72341 9.87629C8.93973 9.80333 9.03653 9.84717 9.03653 9.84717L8.91029 10.1701L8.73061 10.3691L8.74277 10.471C8.74277 10.471 8.71349 10.7405 8.89317 10.9273C9.07285 11.1142 9.20629 11.107 9.28405 11.107C9.36181 11.107 9.58501 11.0414 9.69909 10.772C9.80101 10.5197 9.88597 10.196 9.68213 9.87149C9.48293 9.54861 9.13109 9.53613 9.06309 9.53613C8.99509 9.53613 8.46117 9.56285 8.26709 10.2667V10.2672Z" fill="#252211"/>
<path fill-rule="evenodd" clip-rule="evenodd" d="M14.4298 11.3473C14.34 11.306 14.425 11.0537 14.5148 10.9759C14.6045 10.8982 14.7186 10.8086 14.9178 10.7962C14.9904 10.7914 15.0608 10.8375 15.0488 10.8862C15.0319 10.9759 14.9056 11.1022 14.7916 11.1919C14.6338 11.3158 14.5317 11.3934 14.4298 11.3473Z" fill="#F7F7E7"/>
<path fill-rule="evenodd" clip-rule="evenodd" d="M9.57528 9.97101C9.64088 9.96621 9.72584 10.019 9.7428 10.09C9.75976 10.1676 9.70152 10.323 9.57528 10.323C9.47336 10.323 9.41992 10.1968 9.41992 10.1604C9.42107 10.1306 9.42941 10.1014 9.44424 10.0755C9.44904 10.0681 9.4612 9.98317 9.57528 9.97101Z" fill="#F8F6DE"/>
<path fill-rule="evenodd" clip-rule="evenodd" d="M8.62862 10.0273C8.62862 10.0273 8.4611 10.1049 8.3835 10.2673C8.32805 10.3873 8.31128 10.5215 8.3355 10.6513C8.34766 10.712 8.4083 10.8624 8.44958 10.9158C8.49086 10.9693 8.5467 11.0057 8.58798 11.0008C8.62926 10.9958 8.71406 10.8867 8.71406 10.8213C8.71406 10.7558 8.71902 10.479 8.79902 10.3285C8.86942 10.1781 8.6291 10.0275 8.6291 10.0275L8.62862 10.0273Z" fill="#D4C38B"/>
<path fill-rule="evenodd" clip-rule="evenodd" d="M8.65292 10.0147C8.6238 10.0316 8.57532 10.056 8.58732 10.0875C8.59948 10.1166 8.7014 10.1355 8.73788 10.2065C8.77916 10.2793 8.77916 10.3569 8.767 10.3934C8.79871 10.3783 8.82748 10.3577 8.85196 10.3326C8.9054 10.272 8.97084 10.1896 9.02668 10.1896C9.06316 10.1896 9.09948 10.2065 9.13356 10.2065C9.187 10.2065 9.24028 10.1896 9.24764 10.1337C9.25964 10.0609 9.14572 9.99531 9.08012 10.0075C9.09228 9.95947 9.10924 9.88859 9.0558 9.83995C9.00236 9.79131 8.835 9.87643 8.79852 9.90075C8.76204 9.92507 8.65292 10.0148 8.65292 10.0148V10.0147Z" fill="#E2D59D"/>
<path fill-rule="evenodd" clip-rule="evenodd" d="M12.5097 15.1139L12.8689 15.0078L12.9708 15.0806C12.9708 15.0806 13.0435 15.236 13.1577 15.2553C13.1212 15.3329 13.0265 15.3993 13.0315 15.4544C13.0364 15.5094 13.0849 15.5515 13.0849 15.5515C13.0849 15.5515 12.762 16.0854 13.398 16.6235C13.2475 16.6841 13.0558 16.7675 12.9539 16.8155C13.0265 16.8325 13.1819 16.8635 13.2475 16.9224C13.3131 16.9813 13.3131 17 13.3737 17.0365C13.4344 17.0729 13.4707 17.1214 13.4587 17.1432C13.4174 17.1189 13.279 17.0462 13.2548 17.1141C13.2307 17.1819 12.6553 17.1553 12.6553 17.1553L11.6844 17.3422C11.6844 17.3422 11.7208 17.2451 11.6188 17.1553C11.5 17.0486 11.3544 17.1601 11.199 17.0413C10.9952 16.8859 10.9878 16.7062 10.9224 16.6384C10.9878 16.5971 11.1214 16.5365 11.4393 16.4944C11.4272 16.4701 11.3859 16.3973 11.4102 16.3318C11.4393 16.2469 11.5606 16.1934 11.5243 16.0918C11.5777 16.0797 11.6019 16.0797 11.7355 15.9121C11.8617 15.7446 11.9393 15.7083 12.0364 15.6961C12.1336 15.684 12.1918 15.6961 12.3715 15.5286C12.4976 15.4097 12.4564 15.3078 12.4564 15.3078C12.4564 15.3078 12.5388 15.2811 12.5099 15.1136L12.5097 15.1139Z" fill="#CBAC5A"/>
<path fill-rule="evenodd" clip-rule="evenodd" d="M11.4493 15.1676C11.4541 15.1433 11.4736 15.1311 11.6047 15.1433C11.7357 15.1554 12.5658 15.0657 12.7915 15.0535C13.0197 15.0366 13.8231 15.0486 14.2139 15.1311C14.6048 15.2137 15.0003 15.3108 15.192 15.3593C15.384 15.4127 15.4445 15.4319 15.4371 15.4562C15.4323 15.4806 15.3891 15.5042 15.3643 15.4975C15.3402 15.4927 14.7042 15.2985 14.5077 15.2575C14.3112 15.2166 13.6314 15.107 13.2597 15.1135C12.9127 15.1185 12.7743 15.1087 12.4807 15.1426C12.1869 15.1791 11.7015 15.2276 11.5559 15.2082C11.4119 15.1913 11.4416 15.1913 11.449 15.167L11.4493 15.1676Z" fill="#D6BC6F"/>
<path fill-rule="evenodd" clip-rule="evenodd" d="M13.4027 17.0704C13.4027 17.0704 13.9003 17.3399 14.08 17.6699C14.211 17.9151 14.0024 18.0365 14.0024 18.0365C14.0024 18.0365 14.284 18.0365 14.2475 18.1919C14.2306 18.2888 13.7621 18.5509 13.449 18.6893C13.131 18.8277 13.1432 18.8205 12.9878 18.8447C12.8373 18.869 12.4246 18.7967 12.3397 18.9175C12.2547 19.0383 12.2917 19.1627 12.3154 19.1821C12.3397 19.1991 12.5363 19.2234 12.5363 19.2234C12.5363 19.2234 12.495 19.3375 12.0874 19.3496C11.6797 19.3618 11.5776 19.3907 11.5533 19.4346C11.529 19.4757 11.6309 19.4515 11.8179 19.4826C12.0048 19.5117 12.2669 19.5306 12.2669 19.5306C12.2669 19.5306 12.1819 19.6034 11.9611 19.6616C11.7086 19.7271 11.313 19.7879 11.1941 19.8607C11.2547 19.9019 11.3446 19.9626 11.3861 19.9674C11.2842 19.9917 11.1408 20.0451 11.1166 20.0645C11.153 20.0888 11.2016 20.1179 11.2016 20.1179C11.2016 20.1179 10.9976 20.3631 10.8787 20.4239C10.7598 20.4847 10.0754 20.8024 9.83984 20.7418C9.25248 20.5864 9.17968 19.9432 9.03648 19.8947C8.82048 19.8219 8.71856 19.9674 8.52672 19.8655C8.61168 19.8048 8.65792 19.7685 8.74768 19.7272C8.65056 19.6792 8.14816 19.3607 8.14816 19.3607C8.09562 19.2461 8.03731 19.1344 7.97344 19.0258C7.87632 18.8583 7.73344 18.6349 7.62624 18.4383C7.39328 18.0063 7.38112 17.8072 7.16992 17.5621C7.2064 17.5141 7.33248 17.5208 7.33248 17.5208L9.10208 18.1034L12.2398 18.1943L13.0558 17.0293L13.4029 17.0706L13.4027 17.0704Z" fill="#DFC677"/>
<path fill-rule="evenodd" clip-rule="evenodd" d="M8.75488 18.8465C8.77382 18.8676 8.79589 18.8856 8.82032 18.9C8.88112 18.9412 8.97088 18.9899 9.03152 19.0625C9.05584 19.0262 9.11648 18.9606 9.22352 19.0625C9.33056 19.1644 9.46352 19.0918 9.54624 19.116C9.6312 19.1452 9.636 19.1572 9.636 19.1572C9.636 19.1572 9.684 19.116 9.79136 19.0723C9.85696 19.048 9.93456 19.031 10.0195 19.0068C10.0971 18.9899 10.1821 18.9656 10.2405 18.9656C10.2939 19.0019 10.4856 19.2056 11.255 18.9049C11.9808 18.6233 12.1482 18.5918 12.2696 18.6353C12.2818 18.6062 12.2939 18.5504 12.4808 18.5577C12.4808 18.4801 12.3254 18.2155 12.3254 18.2155L11.4686 17.9219H11L9.59472 18.1792L8.816 18.6235L8.75536 18.8475L8.75488 18.8465Z" fill="#C4A859"/>
<path fill-rule="evenodd" clip-rule="evenodd" d="M8.28613 18.3544C8.28613 18.3544 8.30309 18.4855 8.49733 18.6239C8.68933 18.7621 8.74965 18.8447 8.74965 18.8447C8.74965 18.8447 8.78613 18.7967 8.81525 18.7477C8.84437 18.6943 8.86869 18.6336 8.91717 18.6167C9.01429 18.5754 9.23509 18.653 9.28373 18.6408C9.32501 18.6288 9.31285 18.5439 9.35653 18.5439C9.45845 18.5389 9.52389 18.6093 9.56037 18.6093C9.59685 18.6093 9.68645 18.6045 9.69861 18.5852C9.71077 18.5658 9.71557 18.3642 9.85397 18.2671C10.0045 18.1604 10.189 18.2064 10.238 18.2307C10.238 18.2671 10.2428 18.357 10.3399 18.3618C10.437 18.3666 10.4466 18.3496 10.5319 18.3787C10.6172 18.4079 10.7188 18.374 10.7649 18.517C10.8061 18.505 10.9033 18.4928 10.8789 18.3544C10.9269 18.3181 10.9689 18.2938 11.0709 18.1506C11.0953 18.1143 11.1364 18.073 11.1681 18.0196C11.253 18.0196 11.3549 18.0026 11.4908 18.1215C11.4495 18.1506 11.4252 18.1695 11.4132 18.1991C11.4487 18.2342 11.4811 18.2724 11.5101 18.3132C11.5466 18.3612 11.5709 18.42 11.617 18.4322C11.7189 18.4613 11.8865 18.42 12.0733 18.4322C12.253 18.4443 12.4034 18.5098 12.469 18.5511C12.4933 18.5391 12.4933 18.5341 12.554 18.5463C12.6146 18.5584 12.6607 18.5632 12.5953 18.4856C12.6316 18.5026 12.6729 18.5391 12.7093 18.5026C12.7458 18.4661 12.7748 18.4128 12.8767 18.4007C12.9786 18.3885 13.0151 18.4055 13.0564 18.2988C13.1098 18.1677 12.9253 18.1677 12.9253 18.1677C12.9253 18.1677 13.0103 18.09 13.105 17.988C13.2191 17.8813 13.3501 17.7429 13.3817 17.573C13.4351 17.2599 13.1293 17.2188 13.1293 17.2188L11.6463 17.6751L9.83317 17.5852L8.28709 18.3546L8.28613 18.3544Z" fill="#927D49"/>
<path fill-rule="evenodd" clip-rule="evenodd" d="M6.95407 14.0702C6.95407 14.0702 6.90607 14.1309 6.87647 14.2741C6.84687 14.4173 6.85951 14.4003 6.83519 14.5022C6.81087 14.6041 6.51215 15.6187 6.62415 15.9609C6.73615 16.3032 6.93007 16.4294 7.05135 16.7061C7.07567 16.7667 7.09935 16.8032 7.11199 16.8566C7.15327 17.0361 7.11695 17.1745 7.16543 17.3542C7.18239 17.4149 7.22623 17.4853 7.29167 17.5581C7.43567 17.7085 7.67039 17.8517 7.77167 17.9536C7.91471 18.1041 8.11871 18.4101 8.37839 18.439C8.51679 18.456 8.71343 18.3977 8.87599 18.3008C9.01999 18.2109 9.10895 18.0848 9.25999 18.0128C9.36671 17.9593 9.48079 17.94 9.58271 17.9157C9.79391 17.8744 9.98575 17.8677 10.0998 17.8913C10.2746 17.9278 10.6872 18.0541 10.9158 18.0541C11.0945 18.0512 11.2722 18.0267 11.445 17.9813C11.792 17.8793 12.2118 17.7045 12.4886 17.6269C12.6512 17.5789 12.7822 17.5662 12.9158 17.5371C13.144 17.4837 13.3357 17.4109 13.445 17.2725C13.3722 17.1875 13.2824 17.0565 12.7968 17.0613C12.2459 17.0734 11.6099 17.3792 11.2968 17.4278C10.9837 17.4765 10.8478 17.5176 10.4982 17.3913C10.1555 17.2638 10.1442 17.1795 10.1442 17.1795C10.1442 17.1795 9.78431 16.9278 9.63375 16.2862C9.48319 15.6446 9.63375 15.1771 10.0246 14.7328C10.1266 14.6187 10.1022 14.5168 10.1022 14.5168C10.1022 14.5168 10.3595 14.1697 10.2891 13.8448C10.2115 13.5219 9.71391 13.5875 9.71391 13.5875L6.95423 14.0702H6.95407Z" fill="#6E6342"/>
<path fill-rule="evenodd" clip-rule="evenodd" d="M7.3693 15.1504C7.3479 15.1906 7.33783 15.2359 7.34018 15.2814C7.34498 15.3469 7.3645 15.4318 7.56098 15.6237C7.7285 15.791 7.69202 15.9779 7.69202 15.9779C7.69202 15.9779 7.77634 15.9949 8.00514 15.8878C8.18482 15.8029 8.24514 15.9534 8.24514 15.9534C8.29744 15.926 8.35413 15.9079 8.41266 15.9C8.46568 15.8951 8.517 15.8787 8.56306 15.852C8.56306 15.852 8.77426 16.068 8.95874 16.1699C9.12626 16.2598 9.22338 16.3205 9.30594 16.2598C9.38354 16.2064 9.38354 16.0971 9.37858 16.0486C9.35932 16.0039 9.33495 15.9615 9.30594 15.9224C9.2525 15.8448 9.16754 15.7549 9.16194 15.6824C9.14978 15.515 9.28818 15.3158 9.2589 15.2674C9.22962 15.2189 9.12066 15.2067 8.85122 15.3038C8.57218 15.396 7.36818 15.1509 7.36818 15.1509L7.3693 15.1504Z" fill="#39331F"/>
<path fill-rule="evenodd" clip-rule="evenodd" d="M8.00485 16.2359C8.00485 16.2359 7.86661 16.1048 7.91509 15.4688C7.97378 15.468 8.03239 15.4737 8.08981 15.4858C8.08981 15.4858 8.16517 15.9786 8.00485 16.2359Z" fill="#292311"/>
<path fill-rule="evenodd" clip-rule="evenodd" d="M7.01971 13.5848C7.039 13.5705 7.0569 13.5545 7.07315 13.5368C7.02515 13.6266 6.80355 13.9858 6.98323 14.5514C7.16291 15.1144 7.61427 15.5343 8.17011 15.5538C8.72595 15.5733 9.01811 15.3013 9.35219 14.8936C9.48323 14.7311 9.63379 14.5271 9.76723 14.3888C9.96627 14.1727 10.1216 14.112 10.1216 13.9034C10.1216 13.4762 9.68467 13.2843 9.04147 13.0927C8.39827 12.901 7.81811 12.9247 7.51715 13.0559C7.22355 13.1989 7.09731 13.3495 7.01955 13.585L7.01971 13.5848Z" fill="#252211"/>
<path fill-rule="evenodd" clip-rule="evenodd" d="M9.08495 16.4271L9.13295 16.4028C9.13295 16.4028 9.14495 16.2108 9.22271 16.2159C9.30031 16.2281 9.33679 16.3302 9.32943 16.3665C9.32463 16.4028 9.30527 16.4636 9.22751 16.4562C9.12559 16.4586 9.08447 16.4271 9.08447 16.4271H9.08495Z" fill="#3F3824"/>
<path fill-rule="evenodd" clip-rule="evenodd" d="M8.86914 15.6117C8.86914 15.6117 8.91714 15.5947 8.97586 15.653C9.02386 15.653 9.23314 15.6286 9.29874 15.6699C9.36434 15.7112 9.3837 15.7475 9.3837 15.7475C9.3837 15.7475 9.13858 15.801 9.00498 15.7475C8.86914 15.7014 8.86914 15.6117 8.86914 15.6117H8.86914Z" fill="#2D2815"/>
<path fill-rule="evenodd" clip-rule="evenodd" d="M9.94897 15.6486C9.94897 15.6364 9.81793 15.5467 9.67953 15.5174C9.65521 15.5126 9.65025 15.5296 9.63153 15.5296C9.61937 15.5248 9.61457 15.4883 9.61457 15.4883L9.53585 15.5297C9.53585 15.5297 9.52369 15.5467 9.56497 15.5777C9.60129 15.6068 9.66209 15.6312 9.67905 15.6796C9.69601 15.7281 9.69601 15.7451 9.70337 15.7524C9.70817 15.7572 9.79313 15.7524 9.83441 15.7281C9.87569 15.7038 9.95345 15.6641 9.94849 15.6481L9.94897 15.6486Z" fill="#82764F"/>
<path fill-rule="evenodd" clip-rule="evenodd" d="M8.72363 16.1402C8.72363 16.1402 8.74779 15.9729 8.91051 15.9655C9.07787 15.9533 9.10955 16.1159 9.10955 16.1159L9.01243 16.213C9.01243 16.2106 8.93963 16.1087 8.72443 16.1402H8.72363Z" fill="#2D2816"/>
<path fill-rule="evenodd" clip-rule="evenodd" d="M9.77919 15.4195C9.77919 15.4195 9.68927 15.5166 9.49039 15.5457C9.47343 15.5214 9.43695 15.4729 9.49039 15.3953C9.54383 15.3177 9.60447 15.2934 9.66511 15.3176C9.71974 15.3264 9.76426 15.3662 9.77919 15.4195Z" fill="#574F35"/>
<path fill-rule="evenodd" clip-rule="evenodd" d="M10.1456 15.5387C10.1506 15.5144 10.1336 15.5096 10.1456 15.4974C10.1576 15.4853 10.2234 15.4611 10.2355 15.4731C10.2403 15.4781 10.2355 15.4974 10.2355 15.5211C10.2355 15.5448 10.2355 15.5691 10.2234 15.5865C10.2064 15.6109 10.1579 15.623 10.1336 15.6158C10.1093 15.6086 10.1045 15.5745 10.1045 15.5678C10.1165 15.563 10.1456 15.5509 10.1456 15.5387ZM10.5601 15.2767C10.5601 15.2646 10.6013 15.2402 10.6257 15.2402C10.662 15.2402 10.662 15.2694 10.6669 15.2767C10.6789 15.2815 10.6789 15.2718 10.6911 15.2937C10.7033 15.3156 10.7204 15.3543 10.7081 15.3786C10.6957 15.403 10.6474 15.4198 10.6354 15.415C10.6185 15.4028 10.565 15.2937 10.5601 15.2767Z" fill="#82764F"/>
<path fill-rule="evenodd" clip-rule="evenodd" d="M9.72559 15.5949C9.72559 15.5949 9.77903 15.6069 9.85183 15.6677C9.82751 15.6846 9.79103 15.704 9.79103 15.704C9.79103 15.704 9.78623 15.6482 9.72559 15.5947V15.5949Z" fill="#6E6342"/>
<path fill-rule="evenodd" clip-rule="evenodd" d="M9.6069 15.0607C9.59474 15.0487 9.64322 15.0196 9.67234 15.0244C9.70146 15.0292 9.71362 15.0487 9.74514 15.0535C9.77666 15.0583 9.78162 15.0414 9.79314 15.0292C9.80466 15.017 9.84658 15.0244 9.85378 15.0292C9.85826 15.0345 9.86233 15.0402 9.86594 15.0462C9.86697 15.0275 9.87572 15.0101 9.8901 14.9982C9.90896 14.9843 9.93312 14.9798 9.9557 14.986C9.9605 15.003 9.98482 15.0636 9.98002 15.0758C9.97522 15.0879 9.90242 15.105 9.8901 15.0927C9.90226 15.122 9.9557 15.1826 9.9629 15.1946C9.9701 15.2066 9.90946 15.2359 9.8853 15.2311C9.85138 15.2287 9.64258 15.1073 9.60626 15.0612L9.6069 15.0607ZM9.92476 14.658C9.92026 14.6457 9.91167 14.6355 9.90044 14.6289C9.88348 14.6241 9.82764 14.6289 9.82764 14.658C9.82764 14.6871 9.87564 14.85 9.92956 14.9348C9.99036 15.0197 10.0315 15.09 10.0728 15.1095C10.0996 15.1217 10.1314 15.1111 10.1456 15.0852C10.1504 15.073 10.1625 14.9833 10.1577 14.7721C10.1529 14.5609 10.1456 14.357 10.1334 14.3449C10.1212 14.3327 10.0728 14.3329 10.0558 14.357C10.0388 14.3812 9.92956 14.6217 9.9246 14.658H9.92476Z" fill="#585136"/>
<path fill-rule="evenodd" clip-rule="evenodd" d="M9.70864 15.9008C9.70864 15.9008 9.62368 15.8474 9.54112 15.8838C9.46352 15.9203 9.46832 16.0635 9.46832 16.0635C9.50376 16.0774 9.54378 16.0728 9.5752 16.0514C9.62864 16.015 9.69648 15.9544 9.70864 15.901V15.9008Z" fill="#574F35"/>
<path fill-rule="evenodd" clip-rule="evenodd" d="M9.86929 16.0925C9.86449 16.0445 9.82129 16.0445 9.82129 16.0197C9.82741 15.9953 9.84942 15.9782 9.87457 15.9784C9.89889 15.9784 9.92257 16.0075 9.95233 16.0264C9.98145 16.0434 10.0251 16.0744 10.0299 16.1114C10.0347 16.1483 9.98193 16.2496 9.92321 16.2496C9.86449 16.2496 9.88193 16.1403 9.86977 16.0918L9.86929 16.0925ZM10.3379 16.0266C10.3379 16.0266 10.2407 16.0557 10.2479 16.0266C10.2551 15.9975 10.2772 15.9903 10.3087 15.9903C10.3248 15.9735 10.3463 15.9631 10.3694 15.961C10.3826 15.9603 10.3955 15.9647 10.4057 15.9732C10.4057 15.9732 10.4713 15.944 10.4907 15.961C10.51 15.978 10.4956 15.978 10.5076 15.9975C10.5229 16.0191 10.5329 16.0441 10.5369 16.0703C10.5369 16.0896 10.4641 16.1309 10.4057 16.1237C10.3379 16.1092 10.3499 16.0388 10.3379 16.0266ZM10.9033 15.9175C10.9033 15.9175 10.9324 15.9345 10.9082 15.954C10.8913 15.971 10.8063 16.002 10.7333 16.0075C10.6605 16.0075 10.5951 16.0195 10.5951 15.9953C10.5951 15.9711 10.6557 15.9225 10.6921 15.9103C10.7068 15.8919 10.7292 15.8811 10.7529 15.8812C10.782 15.8812 10.8959 15.8691 10.9276 15.8643C10.9567 15.8593 10.981 15.8763 10.9639 15.9006C10.9567 15.9175 10.9033 15.9175 10.9033 15.9175ZM11.0709 15.168C11.0709 15.168 11.0344 15.2456 10.9933 15.2456C10.952 15.2408 10.952 15.2287 10.952 15.2165C10.952 15.1996 10.9933 15.1559 10.9883 15.1437C10.9763 15.1437 10.947 15.1437 10.952 15.1146C10.952 15.0903 10.9933 15.0612 11.0296 15.0666C11.057 15.044 11.0912 15.0313 11.1267 15.0303C11.168 15.0303 11.2043 15.0423 11.2043 15.0666C11.2043 15.0909 11.1563 15.1442 11.1387 15.1565C11.1193 15.1759 11.095 15.1885 11.0709 15.1685V15.168ZM10.5171 16.6025C10.5171 16.6025 10.4691 16.6074 10.4691 16.6316C10.4691 16.6437 10.4811 16.6437 10.4982 16.6365C10.5081 16.636 10.5179 16.6343 10.5274 16.6316C10.5322 16.6365 10.5322 16.6607 10.5686 16.6607C10.5986 16.6567 10.6275 16.6468 10.6536 16.6316C10.6827 16.6196 10.707 16.6073 10.707 16.5836C10.6949 16.5423 10.6706 16.5228 10.6342 16.5228C10.6156 16.5216 10.5971 16.5258 10.5808 16.5349C10.5808 16.5349 10.5686 16.5106 10.5274 16.5349C10.4861 16.5593 10.4909 16.5593 10.503 16.5714C10.5248 16.5908 10.5176 16.6034 10.5176 16.6034L10.5171 16.6025ZM10.2432 16.8548C10.2432 16.8427 10.3038 16.8183 10.3208 16.8257C10.3378 16.8305 10.3862 16.9227 10.3862 16.9324C10.3862 16.9446 10.3256 16.9737 10.3013 16.9737C10.277 16.9737 10.2358 16.9324 10.2358 16.9257C10.2358 16.9209 10.265 16.9137 10.265 16.9087C10.2722 16.8967 10.2432 16.8675 10.2432 16.8553V16.8548ZM10.0512 16.5005C10.0633 16.4957 10.0633 16.4835 10.0803 16.4713C10.0911 16.4642 10.1045 16.4624 10.1168 16.4665C10.1254 16.4511 10.1406 16.4403 10.1581 16.4373C10.1872 16.4325 10.2115 16.4373 10.2061 16.4494C10.2061 16.4859 10.2304 16.5101 10.2304 16.5392C10.2304 16.5683 10.2134 16.6048 10.1528 16.6291C10.0921 16.6461 10.0096 16.6461 9.99742 16.6413C9.98526 16.6365 9.9731 16.5878 9.98526 16.5635C9.99742 16.5392 10.0313 16.5126 10.0509 16.5005H10.0512Z" fill="#82764F"/>
<path fill-rule="evenodd" clip-rule="evenodd" d="M10.1282 16.5166C10.1282 16.5166 10.0869 16.5409 10.0869 16.5531C10.0833 16.5648 10.0816 16.5771 10.0821 16.5894C10.0821 16.5966 10.1356 16.5846 10.1428 16.5772C10.1452 16.5724 10.1282 16.5292 10.1282 16.5166Z" fill="#6E6342"/>
<path fill-rule="evenodd" clip-rule="evenodd" d="M9.76729 16.4033C9.79145 16.4083 9.83273 16.4033 9.86425 16.4155C9.88857 16.4276 9.90553 16.452 9.88121 16.4811C9.85689 16.5102 9.83321 16.5539 9.77929 16.5465C9.71865 16.5417 9.66041 16.5102 9.66041 16.4859C9.65835 16.4548 9.66884 16.4242 9.68953 16.4009C9.71385 16.3816 9.72585 16.3937 9.76713 16.4033H9.76729Z" fill="#585136"/>
<path fill-rule="evenodd" clip-rule="evenodd" d="M9.73787 16.4268C9.73787 16.4268 9.66027 16.4874 9.64075 16.5167C9.61643 16.5458 9.49755 16.6962 9.46123 16.7277C9.47329 16.7064 9.48704 16.6862 9.50235 16.6671C9.45435 16.6978 9.41836 16.744 9.40043 16.7981C9.37131 16.888 9.56315 16.9365 9.68923 16.973C9.81531 17.0095 9.86411 17.021 9.86411 17.021C9.81769 16.9512 9.77784 16.8773 9.74507 16.8002C9.69707 16.6861 9.67227 16.674 9.70379 16.6205C9.72811 16.5671 9.76459 16.5308 9.76459 16.4895C9.75003 16.4511 9.73787 16.4268 9.73787 16.4268Z" fill="#574F35"/>
<path fill-rule="evenodd" clip-rule="evenodd" d="M6.97102 16.6191C6.98869 16.6224 7.0068 16.6224 7.02446 16.6191C7.06078 16.6141 7.4395 16.4751 7.83518 16.5001C8.13139 16.518 8.42499 16.5662 8.71134 16.6441C9.20894 16.7751 9.82782 17.0348 10.2283 17.1829C10.335 17.2241 10.4395 17.297 10.5163 17.326C10.8222 17.445 10.8342 17.445 11.0139 17.4765C11.2251 17.5057 11.4411 17.4353 11.6669 17.3868C11.9435 17.326 12.4168 17.2969 12.8318 17.2362C12.966 17.2176 13.0984 17.1876 13.2275 17.1465C13.2275 17.1465 12.8974 17.4765 12.1061 17.5954C11.7862 17.644 11.4611 17.6481 11.1401 17.6076C10.8877 17.5833 10.7203 17.5468 10.5941 17.5105C10.4509 17.4692 10.1571 17.3599 9.7955 17.2705C9.54302 17.2049 9.26142 17.1564 8.9387 17.0957C8.14254 16.95 7.27854 16.7826 6.9707 16.6201L6.97102 16.6191Z" fill="#252211"/>
<path fill-rule="evenodd" clip-rule="evenodd" d="M6.0773 15.1191C5.8853 15.2817 5.68162 15.4371 5.48274 15.5875L4.88322 16.0481C4.67938 16.1985 4.48034 16.3539 4.27634 16.5044C4.07234 16.655 3.86866 16.798 3.65234 16.9364C3.84434 16.7739 4.04802 16.6233 4.25186 16.4753C4.4557 16.3273 4.66706 16.1822 4.8637 16.0321L5.46322 15.5708C5.66946 15.4204 5.8685 15.2651 6.0773 15.1195V15.1191ZM5.01664 16.8181C5.01664 16.8181 5.23264 16.6384 5.50208 16.3861C5.83696 16.0731 6.2472 15.6725 6.37824 15.5999L5.01648 16.8183L5.01664 16.8181Z" fill="#CFB66C"/>
<path fill-rule="evenodd" clip-rule="evenodd" d="M5.01709 16.8181C5.12397 16.7114 5.23805 16.607 5.35213 16.505L5.52685 16.3546C5.58029 16.3066 5.64109 16.2526 5.69437 16.1992C5.80109 16.0925 5.90557 15.9782 6.01229 15.8691C6.06518 15.8143 6.12111 15.7624 6.17981 15.7138C6.20916 15.6878 6.24175 15.6657 6.27677 15.6482C6.30605 15.6312 6.33757 15.6002 6.37869 15.5947C6.35453 15.6312 6.32541 15.6482 6.30109 15.6797C6.27197 15.704 6.24765 15.7331 6.22349 15.7573C6.17005 15.8107 6.10941 15.8592 6.05597 15.9078C5.94189 16.005 5.82301 16.0998 5.70893 16.2014C5.59485 16.303 5.48813 16.4126 5.37389 16.5146C5.25021 16.619 5.13613 16.721 5.01709 16.8186V16.8181ZM6.46869 15.847C6.46869 15.847 5.67749 16.6214 5.51477 16.7475L6.46869 15.847Z" fill="#CFB66C"/>
<path fill-rule="evenodd" clip-rule="evenodd" d="M6.46857 15.8467C6.39739 15.9291 6.32108 16.0069 6.24009 16.0796L6.00009 16.3078C5.92249 16.3854 5.84953 16.4632 5.76713 16.5408C5.68217 16.6136 5.60457 16.6848 5.51465 16.752L5.74761 16.5238C5.82537 16.4462 5.91033 16.3808 5.99289 16.303L6.22585 16.0748C6.30585 15.9948 6.38361 15.9171 6.46857 15.8467ZM6.50485 16.2662C6.43192 16.4698 6.34598 16.6684 6.24757 16.861C6.04373 17.2688 5.73797 17.7784 5.60437 18.0382L6.50485 16.2662Z" fill="#CFB66C"/>
<path fill-rule="evenodd" clip-rule="evenodd" d="M6.50453 16.2676C6.50453 16.3573 6.48021 16.4351 6.45109 16.5127C6.4227 16.5904 6.39034 16.6665 6.35413 16.7409C6.31765 16.8137 6.27637 16.8914 6.23509 16.9618C6.19381 17.0322 6.14533 17.1049 6.10885 17.1778L5.86373 17.6098C5.77877 17.7538 5.69621 17.8986 5.60645 18.037C5.66709 17.8817 5.74965 17.7361 5.82741 17.5929C5.91237 17.4489 5.98997 17.3049 6.06741 17.1559C6.10521 17.0817 6.13923 17.0056 6.16933 16.9279C6.20565 16.8501 6.24197 16.7773 6.27125 16.7069C6.30757 16.6293 6.33669 16.5564 6.37317 16.4861C6.41429 16.4108 6.44837 16.338 6.50421 16.2676L6.50453 16.2676Z" fill="#CFB66C"/>
<path fill-rule="evenodd" clip-rule="evenodd" d="M7.36905 18.2578C7.36905 18.2578 7.12905 18.5757 7.15305 18.9786C7.21849 18.7676 7.30105 18.4447 7.36905 18.2578ZM7.59713 18.5765C7.59713 18.5765 7.51217 19.4405 7.44177 19.8653C7.54129 19.3743 7.56065 19.4156 7.59713 18.5765ZM9.18712 19.9166C9.18712 19.9166 8.82792 20.9726 8.82056 21.266C8.89832 20.9643 9.04872 20.3478 9.18712 19.9158V19.9166Z" fill="#DEC270"/>
<path fill-rule="evenodd" clip-rule="evenodd" d="M10.0269 18.1914C10.0269 18.1914 10.6094 19.1525 11.0464 19.9728C10.9281 19.56 10.6561 18.8029 10.0269 18.1914Z" fill="#CBAF59"/>
<path fill-rule="evenodd" clip-rule="evenodd" d="M11.5923 19.6074C11.9121 20.1728 12.2006 20.7554 12.4563 21.3525C12.4078 20.9399 12.2766 20.2337 11.5923 19.6074Z" fill="#E3C677"/>
<path fill-rule="evenodd" clip-rule="evenodd" d="M16.1939 21.0237C16.2909 20.9631 16.4827 20.6328 16.6503 20.5504C16.8176 20.4655 16.9439 20.4485 17.0944 20.281C17.2448 20.1061 17.2864 19.9994 17.6162 19.8612C18.0775 19.662 17.7602 19.4047 17.7602 19.4047C17.811 19.3548 17.8653 19.3086 17.9227 19.2664C18.0418 19.1767 18.18 19.0674 18.168 18.8756C18.1511 18.5528 18.0904 18.0844 17.8258 17.8125C18.0831 17.7591 18.5757 17.7228 18.8818 17.6452C19.236 17.5552 19.3987 17.429 19.3987 17.429C19.3987 17.429 19.1949 17.082 19.525 16.7325C19.8551 16.3831 20.1245 16.1743 20.3235 15.7834C20.0954 15.7543 19.7475 15.633 18.8599 15.9703C18.9078 15.9928 18.954 16.0188 18.9983 16.0479C18.9983 16.0479 18.4522 16.1984 18.2531 16.366C17.9059 16.6596 17.8623 16.8999 17.4861 17.0796C17.1099 17.2592 16.7312 17.2106 16.4183 17.3562C16.1053 17.5018 16.0591 17.6256 15.9448 17.6791C15.9691 17.7082 15.94 17.7567 15.9861 17.798C15.957 17.8392 15.7871 18.1159 15.6147 18.1159C15.6317 18.1815 15.7773 18.23 15.7773 18.23C15.7773 18.23 15.6706 18.3077 15.3987 18.3271C15.537 18.4711 15.6682 18.628 16.0298 18.8562C16.0007 18.9168 15.8792 19.0068 15.9279 19.1208C15.9813 19.2349 16.1199 19.3903 16.673 19.5165C16.3914 19.5285 16.0615 19.5941 15.617 19.5335C15.1728 19.48 15.1 19.4485 14.8258 19.5165C14.8549 19.5456 14.9325 19.5456 15.0005 19.6232C14.9277 19.628 14.4714 19.5698 14.316 19.7738C14.1535 19.9848 14.0831 20.332 14.0952 20.565C14.0103 20.6063 13.9277 20.6791 13.969 20.8296C14.0103 20.9802 14.2263 21.0287 14.3647 21.1232C14.5029 21.2252 14.5151 21.2615 14.6463 21.2373C14.7845 21.2082 14.9883 21.07 15.1074 21.07C15.2264 21.07 15.3112 21.1597 15.3112 21.1597C15.3112 21.1597 15.6341 21.0044 15.6656 21.0335C15.6947 21.0626 15.6704 21.2495 15.7019 21.2786C15.7339 21.3005 16.0976 21.0845 16.1947 21.0237H16.1939Z" fill="#ECD592"/>
<path fill-rule="evenodd" clip-rule="evenodd" d="M23.2504 11.3112C21.7335 7.39373 17.9834 6.66797 17.9834 6.66797H7.28434L7.32562 10.6582H9.45634V19.5684H7.28418V23.5515H17.6872C20.1944 23.5515 22.2042 21.032 22.2042 21.032C25.4226 16.4641 23.2503 11.3112 23.2503 11.3112H23.2504ZM17.7432 18.3477C17.7432 18.3477 16.9272 19.525 16.0394 19.525H14.2634L14.2213 10.6682H16.5005C16.5005 10.6682 17.5565 10.889 18.2943 12.9788C18.2943 12.9788 19.2724 15.9708 17.7432 18.3477Z" fill="white" fill-opacity="0.8"/>
</svg>
